%
M48
M72
T01C0.02362
T02C0.03200
T03C0.03937
T04C0.04000
%
T01
X226256Y35700
X257956Y91900
X257756Y146000
T02
X259256Y133500
X259256Y123500
X259256Y113500
X259256Y103500
X259256Y80500
X259256Y70500
X259256Y60500
X259256Y50500
X229256Y50500
X229256Y60500
X229256Y70500
X229256Y80500
X229256Y103500
X229256Y113500
X229256Y123500
X229256Y133500
X229256Y157500
X229256Y167500
X229256Y177500
X229256Y187500
X259256Y187500
X259256Y177500
X259256Y167500
X259256Y157500
T03
X29169Y33500
X42949Y33500
X174256Y58807
X174256Y72587
X174256Y111807
X174256Y125587
X171256Y164807
X171256Y178587
T04
X171256Y208500
X181256Y208500
X191256Y208500
X201256Y208500
X221256Y208500
X231256Y208500
X241256Y208500
X251256Y208500
X261256Y208500
X271256Y208500
X281256Y208500
X291256Y208500
X161256Y208500
X151256Y208500
X141256Y208500
X131256Y208500
X131256Y18500
X121256Y18500
X111256Y18500
X101256Y18500
X91256Y18500
X81256Y18500
X71256Y18500
X61256Y18500
X151256Y18500
X161256Y18500
X171256Y18500
X181256Y18500
X191256Y18500
X201256Y18500
X211256Y18500
X221256Y18500
M30
