G75*
%MOIN*%
%OFA0B0*%
%FSLAX25Y25*%
%IPPOS*%
%LPD*%
%AMOC8*
5,1,8,0,0,1.08239X$1,22.5*
%
%ADD10C,0.06000*%
%ADD11C,0.04800*%
%ADD12C,0.08600*%
%ADD13C,0.03200*%
%ADD14R,0.03962X0.03962*%
%ADD15C,0.01000*%
%ADD16C,0.01600*%
D10*
X0056500Y0018500D02*
X0056500Y0024500D01*
X0066500Y0024500D02*
X0066500Y0018500D01*
X0076500Y0018500D02*
X0076500Y0024500D01*
X0086500Y0024500D02*
X0086500Y0018500D01*
X0096500Y0018500D02*
X0096500Y0024500D01*
X0106500Y0024500D02*
X0106500Y0018500D01*
X0116500Y0018500D02*
X0116500Y0024500D01*
X0126500Y0024500D02*
X0126500Y0018500D01*
X0146500Y0018500D02*
X0146500Y0024500D01*
X0156500Y0024500D02*
X0156500Y0018500D01*
X0166500Y0018500D02*
X0166500Y0024500D01*
X0176500Y0024500D02*
X0176500Y0018500D01*
X0186500Y0018500D02*
X0186500Y0024500D01*
X0196500Y0024500D02*
X0196500Y0018500D01*
X0206500Y0018500D02*
X0206500Y0024500D01*
X0216500Y0024500D02*
X0216500Y0018500D01*
X0216500Y0208500D02*
X0216500Y0214500D01*
X0226500Y0214500D02*
X0226500Y0208500D01*
X0236500Y0208500D02*
X0236500Y0214500D01*
X0246500Y0214500D02*
X0246500Y0208500D01*
X0256500Y0208500D02*
X0256500Y0214500D01*
X0266500Y0214500D02*
X0266500Y0208500D01*
X0276500Y0208500D02*
X0276500Y0214500D01*
X0286500Y0214500D02*
X0286500Y0208500D01*
X0196500Y0208500D02*
X0196500Y0214500D01*
X0186500Y0214500D02*
X0186500Y0208500D01*
X0176500Y0208500D02*
X0176500Y0214500D01*
X0166500Y0214500D02*
X0166500Y0208500D01*
X0156500Y0208500D02*
X0156500Y0214500D01*
X0146500Y0214500D02*
X0146500Y0208500D01*
X0136500Y0208500D02*
X0136500Y0214500D01*
X0126500Y0214500D02*
X0126500Y0208500D01*
D11*
X0147100Y0190500D02*
X0151900Y0190500D01*
X0151900Y0180500D02*
X0147100Y0180500D01*
X0147100Y0170500D02*
X0151900Y0170500D01*
X0151900Y0160500D02*
X0147100Y0160500D01*
X0177100Y0160500D02*
X0181900Y0160500D01*
X0181900Y0170500D02*
X0177100Y0170500D01*
X0177100Y0180500D02*
X0181900Y0180500D01*
X0181900Y0190500D02*
X0177100Y0190500D01*
X0177100Y0136500D02*
X0181900Y0136500D01*
X0181900Y0126500D02*
X0177100Y0126500D01*
X0177100Y0116500D02*
X0181900Y0116500D01*
X0181900Y0106500D02*
X0177100Y0106500D01*
X0151900Y0106500D02*
X0147100Y0106500D01*
X0147100Y0116500D02*
X0151900Y0116500D01*
X0151900Y0126500D02*
X0147100Y0126500D01*
X0147100Y0136500D02*
X0151900Y0136500D01*
X0151900Y0083500D02*
X0147100Y0083500D01*
X0147100Y0073500D02*
X0151900Y0073500D01*
X0151900Y0063500D02*
X0147100Y0063500D01*
X0147100Y0053500D02*
X0151900Y0053500D01*
X0177100Y0053500D02*
X0181900Y0053500D01*
X0181900Y0063500D02*
X0177100Y0063500D01*
X0177100Y0073500D02*
X0181900Y0073500D01*
X0181900Y0083500D02*
X0177100Y0083500D01*
D12*
X0074500Y0075587D03*
X0074500Y0061807D03*
X0038193Y0036500D03*
X0024413Y0036500D03*
X0074500Y0114807D03*
X0074500Y0128587D03*
X0071500Y0167807D03*
X0071500Y0181587D03*
D13*
X0096500Y0021500D02*
X0096500Y0020500D01*
D14*
X0146500Y0038700D03*
X0178200Y0094900D03*
X0178000Y0149000D03*
X0206500Y0161500D03*
X0242000Y0156000D03*
X0256500Y0131500D03*
X0256200Y0075900D03*
D15*
X0055082Y0014000D02*
X0009000Y0014000D01*
X0009000Y0218961D01*
X0124987Y0218961D01*
X0123838Y0218484D01*
X0122516Y0217162D01*
X0121800Y0215435D01*
X0121800Y0207565D01*
X0122516Y0205838D01*
X0123838Y0204516D01*
X0125565Y0203800D01*
X0127435Y0203800D01*
X0129162Y0204516D01*
X0130484Y0205838D01*
X0131200Y0207565D01*
X0131200Y0215435D01*
X0130484Y0217162D01*
X0129162Y0218484D01*
X0128013Y0218961D01*
X0134987Y0218961D01*
X0133838Y0218484D01*
X0132516Y0217162D01*
X0131800Y0215435D01*
X0131800Y0207565D01*
X0132516Y0205838D01*
X0133838Y0204516D01*
X0135565Y0203800D01*
X0137435Y0203800D01*
X0139162Y0204516D01*
X0140484Y0205838D01*
X0141200Y0207565D01*
X0141200Y0215435D01*
X0140484Y0217162D01*
X0139162Y0218484D01*
X0138013Y0218961D01*
X0144987Y0218961D01*
X0143838Y0218484D01*
X0142516Y0217162D01*
X0141800Y0215435D01*
X0141800Y0207565D01*
X0142516Y0205838D01*
X0143838Y0204516D01*
X0145565Y0203800D01*
X0147435Y0203800D01*
X0149162Y0204516D01*
X0150484Y0205838D01*
X0151200Y0207565D01*
X0151200Y0215435D01*
X0150484Y0217162D01*
X0149162Y0218484D01*
X0148013Y0218961D01*
X0154987Y0218961D01*
X0153838Y0218484D01*
X0152516Y0217162D01*
X0151800Y0215435D01*
X0151800Y0207565D01*
X0152516Y0205838D01*
X0153838Y0204516D01*
X0155565Y0203800D01*
X0157435Y0203800D01*
X0159162Y0204516D01*
X0160484Y0205838D01*
X0161200Y0207565D01*
X0161200Y0215435D01*
X0160484Y0217162D01*
X0159162Y0218484D01*
X0158013Y0218961D01*
X0164987Y0218961D01*
X0163838Y0218484D01*
X0162516Y0217162D01*
X0161800Y0215435D01*
X0161800Y0207565D01*
X0162516Y0205838D01*
X0163838Y0204516D01*
X0165565Y0203800D01*
X0167435Y0203800D01*
X0169162Y0204516D01*
X0170484Y0205838D01*
X0171200Y0207565D01*
X0171200Y0215435D01*
X0170484Y0217162D01*
X0169162Y0218484D01*
X0168013Y0218961D01*
X0174987Y0218961D01*
X0173838Y0218484D01*
X0172516Y0217162D01*
X0171800Y0215435D01*
X0171800Y0207565D01*
X0172516Y0205838D01*
X0173838Y0204516D01*
X0175565Y0203800D01*
X0177435Y0203800D01*
X0179162Y0204516D01*
X0180484Y0205838D01*
X0181200Y0207565D01*
X0181200Y0215435D01*
X0180484Y0217162D01*
X0179162Y0218484D01*
X0178013Y0218961D01*
X0184987Y0218961D01*
X0183838Y0218484D01*
X0182516Y0217162D01*
X0181800Y0215435D01*
X0181800Y0207565D01*
X0182516Y0205838D01*
X0183838Y0204516D01*
X0185565Y0203800D01*
X0187435Y0203800D01*
X0189162Y0204516D01*
X0190484Y0205838D01*
X0191200Y0207565D01*
X0191200Y0215435D01*
X0190484Y0217162D01*
X0189162Y0218484D01*
X0188013Y0218961D01*
X0194987Y0218961D01*
X0193838Y0218484D01*
X0192516Y0217162D01*
X0191800Y0215435D01*
X0191800Y0207565D01*
X0192516Y0205838D01*
X0193838Y0204516D01*
X0195565Y0203800D01*
X0197435Y0203800D01*
X0199162Y0204516D01*
X0200484Y0205838D01*
X0201200Y0207565D01*
X0201200Y0215435D01*
X0200484Y0217162D01*
X0199162Y0218484D01*
X0198013Y0218961D01*
X0214987Y0218961D01*
X0213838Y0218484D01*
X0212516Y0217162D01*
X0211800Y0215435D01*
X0211800Y0207565D01*
X0212516Y0205838D01*
X0213838Y0204516D01*
X0215565Y0203800D01*
X0217435Y0203800D01*
X0219162Y0204516D01*
X0220484Y0205838D01*
X0221200Y0207565D01*
X0221200Y0215435D01*
X0220484Y0217162D01*
X0219162Y0218484D01*
X0218013Y0218961D01*
X0224987Y0218961D01*
X0223838Y0218484D01*
X0222516Y0217162D01*
X0221800Y0215435D01*
X0221800Y0207565D01*
X0222516Y0205838D01*
X0223838Y0204516D01*
X0225565Y0203800D01*
X0227435Y0203800D01*
X0229162Y0204516D01*
X0230484Y0205838D01*
X0231200Y0207565D01*
X0231200Y0215435D01*
X0230484Y0217162D01*
X0229162Y0218484D01*
X0228013Y0218961D01*
X0234987Y0218961D01*
X0233838Y0218484D01*
X0232516Y0217162D01*
X0231800Y0215435D01*
X0231800Y0207565D01*
X0232516Y0205838D01*
X0233838Y0204516D01*
X0235565Y0203800D01*
X0237435Y0203800D01*
X0239162Y0204516D01*
X0240484Y0205838D01*
X0241200Y0207565D01*
X0241200Y0215435D01*
X0240484Y0217162D01*
X0239162Y0218484D01*
X0238013Y0218961D01*
X0244987Y0218961D01*
X0243838Y0218484D01*
X0242516Y0217162D01*
X0241800Y0215435D01*
X0241800Y0207565D01*
X0242516Y0205838D01*
X0243838Y0204516D01*
X0245565Y0203800D01*
X0247435Y0203800D01*
X0249162Y0204516D01*
X0250484Y0205838D01*
X0251200Y0207565D01*
X0251200Y0215435D01*
X0250484Y0217162D01*
X0249162Y0218484D01*
X0248013Y0218961D01*
X0254987Y0218961D01*
X0253838Y0218484D01*
X0252516Y0217162D01*
X0251800Y0215435D01*
X0251800Y0207565D01*
X0252516Y0205838D01*
X0253838Y0204516D01*
X0255565Y0203800D01*
X0257435Y0203800D01*
X0259162Y0204516D01*
X0260484Y0205838D01*
X0261200Y0207565D01*
X0261200Y0215435D01*
X0260484Y0217162D01*
X0259162Y0218484D01*
X0258013Y0218961D01*
X0264987Y0218961D01*
X0263838Y0218484D01*
X0262516Y0217162D01*
X0261800Y0215435D01*
X0261800Y0207565D01*
X0262516Y0205838D01*
X0263838Y0204516D01*
X0265565Y0203800D01*
X0267435Y0203800D01*
X0269162Y0204516D01*
X0270484Y0205838D01*
X0271200Y0207565D01*
X0271200Y0215435D01*
X0270484Y0217162D01*
X0269162Y0218484D01*
X0268013Y0218961D01*
X0274987Y0218961D01*
X0273838Y0218484D01*
X0272516Y0217162D01*
X0271800Y0215435D01*
X0271800Y0207565D01*
X0272516Y0205838D01*
X0273838Y0204516D01*
X0275565Y0203800D01*
X0277435Y0203800D01*
X0279162Y0204516D01*
X0280484Y0205838D01*
X0281200Y0207565D01*
X0281200Y0215435D01*
X0280484Y0217162D01*
X0279162Y0218484D01*
X0278013Y0218961D01*
X0284987Y0218961D01*
X0283838Y0218484D01*
X0282516Y0217162D01*
X0281800Y0215435D01*
X0281800Y0207565D01*
X0282516Y0205838D01*
X0283838Y0204516D01*
X0285565Y0203800D01*
X0287435Y0203800D01*
X0289162Y0204516D01*
X0290484Y0205838D01*
X0291200Y0207565D01*
X0291200Y0215435D01*
X0290484Y0217162D01*
X0289162Y0218484D01*
X0288013Y0218961D01*
X0298000Y0218961D01*
X0298000Y0014000D01*
X0217918Y0014000D01*
X0219162Y0014516D01*
X0220484Y0015838D01*
X0221200Y0017565D01*
X0221200Y0025435D01*
X0220484Y0027162D01*
X0219162Y0028484D01*
X0217435Y0029200D01*
X0215565Y0029200D01*
X0213838Y0028484D01*
X0212516Y0027162D01*
X0211800Y0025435D01*
X0211800Y0017565D01*
X0212516Y0015838D01*
X0213838Y0014516D01*
X0215082Y0014000D01*
X0207918Y0014000D01*
X0209162Y0014516D01*
X0210484Y0015838D01*
X0211200Y0017565D01*
X0211200Y0025435D01*
X0210484Y0027162D01*
X0209162Y0028484D01*
X0207435Y0029200D01*
X0205565Y0029200D01*
X0203838Y0028484D01*
X0202516Y0027162D01*
X0201800Y0025435D01*
X0201800Y0017565D01*
X0202516Y0015838D01*
X0203838Y0014516D01*
X0205082Y0014000D01*
X0197918Y0014000D01*
X0199162Y0014516D01*
X0200484Y0015838D01*
X0201200Y0017565D01*
X0201200Y0025435D01*
X0200484Y0027162D01*
X0199162Y0028484D01*
X0197435Y0029200D01*
X0195565Y0029200D01*
X0193838Y0028484D01*
X0192516Y0027162D01*
X0191800Y0025435D01*
X0191800Y0017565D01*
X0192516Y0015838D01*
X0193838Y0014516D01*
X0195082Y0014000D01*
X0187918Y0014000D01*
X0189162Y0014516D01*
X0190484Y0015838D01*
X0191200Y0017565D01*
X0191200Y0025435D01*
X0190484Y0027162D01*
X0189162Y0028484D01*
X0187435Y0029200D01*
X0185565Y0029200D01*
X0183838Y0028484D01*
X0182516Y0027162D01*
X0181800Y0025435D01*
X0181800Y0017565D01*
X0182516Y0015838D01*
X0183838Y0014516D01*
X0185082Y0014000D01*
X0177918Y0014000D01*
X0179162Y0014516D01*
X0180484Y0015838D01*
X0181200Y0017565D01*
X0181200Y0025435D01*
X0180484Y0027162D01*
X0179162Y0028484D01*
X0177435Y0029200D01*
X0175565Y0029200D01*
X0173838Y0028484D01*
X0172516Y0027162D01*
X0171800Y0025435D01*
X0171800Y0017565D01*
X0172516Y0015838D01*
X0173838Y0014516D01*
X0175082Y0014000D01*
X0167918Y0014000D01*
X0169162Y0014516D01*
X0170484Y0015838D01*
X0171200Y0017565D01*
X0171200Y0025435D01*
X0170484Y0027162D01*
X0169162Y0028484D01*
X0167435Y0029200D01*
X0165565Y0029200D01*
X0163838Y0028484D01*
X0162516Y0027162D01*
X0161800Y0025435D01*
X0161800Y0017565D01*
X0162516Y0015838D01*
X0163838Y0014516D01*
X0165082Y0014000D01*
X0157918Y0014000D01*
X0159162Y0014516D01*
X0160484Y0015838D01*
X0161200Y0017565D01*
X0161200Y0025435D01*
X0160484Y0027162D01*
X0159162Y0028484D01*
X0157435Y0029200D01*
X0155565Y0029200D01*
X0153838Y0028484D01*
X0152516Y0027162D01*
X0151800Y0025435D01*
X0151800Y0017565D01*
X0152516Y0015838D01*
X0153838Y0014516D01*
X0155082Y0014000D01*
X0147918Y0014000D01*
X0149162Y0014516D01*
X0150484Y0015838D01*
X0151200Y0017565D01*
X0151200Y0025435D01*
X0150484Y0027162D01*
X0149162Y0028484D01*
X0147435Y0029200D01*
X0145565Y0029200D01*
X0143838Y0028484D01*
X0142516Y0027162D01*
X0141800Y0025435D01*
X0141800Y0017565D01*
X0142516Y0015838D01*
X0143838Y0014516D01*
X0145082Y0014000D01*
X0127918Y0014000D01*
X0129162Y0014516D01*
X0130484Y0015838D01*
X0131200Y0017565D01*
X0131200Y0025435D01*
X0130484Y0027162D01*
X0129162Y0028484D01*
X0127435Y0029200D01*
X0125565Y0029200D01*
X0123838Y0028484D01*
X0122516Y0027162D01*
X0121800Y0025435D01*
X0121800Y0017565D01*
X0122516Y0015838D01*
X0123838Y0014516D01*
X0125082Y0014000D01*
X0117918Y0014000D01*
X0119162Y0014516D01*
X0120484Y0015838D01*
X0121200Y0017565D01*
X0121200Y0025435D01*
X0120484Y0027162D01*
X0119162Y0028484D01*
X0117435Y0029200D01*
X0115565Y0029200D01*
X0113838Y0028484D01*
X0112516Y0027162D01*
X0111800Y0025435D01*
X0111800Y0017565D01*
X0112516Y0015838D01*
X0113838Y0014516D01*
X0115082Y0014000D01*
X0097918Y0014000D01*
X0099162Y0014516D01*
X0100484Y0015838D01*
X0101200Y0017565D01*
X0101200Y0025435D01*
X0100484Y0027162D01*
X0099162Y0028484D01*
X0097435Y0029200D01*
X0095565Y0029200D01*
X0093838Y0028484D01*
X0092516Y0027162D01*
X0091800Y0025435D01*
X0091800Y0017565D01*
X0092516Y0015838D01*
X0093838Y0014516D01*
X0095082Y0014000D01*
X0087918Y0014000D01*
X0089162Y0014516D01*
X0090484Y0015838D01*
X0091200Y0017565D01*
X0091200Y0025435D01*
X0090484Y0027162D01*
X0089162Y0028484D01*
X0087435Y0029200D01*
X0085565Y0029200D01*
X0083838Y0028484D01*
X0082516Y0027162D01*
X0081800Y0025435D01*
X0081800Y0017565D01*
X0082516Y0015838D01*
X0083838Y0014516D01*
X0085082Y0014000D01*
X0077918Y0014000D01*
X0079162Y0014516D01*
X0080484Y0015838D01*
X0081200Y0017565D01*
X0081200Y0025435D01*
X0080484Y0027162D01*
X0079162Y0028484D01*
X0077435Y0029200D01*
X0075565Y0029200D01*
X0073838Y0028484D01*
X0072516Y0027162D01*
X0071800Y0025435D01*
X0071800Y0017565D01*
X0072516Y0015838D01*
X0073838Y0014516D01*
X0075082Y0014000D01*
X0067918Y0014000D01*
X0069162Y0014516D01*
X0070484Y0015838D01*
X0071200Y0017565D01*
X0071200Y0025435D01*
X0070484Y0027162D01*
X0069162Y0028484D01*
X0067435Y0029200D01*
X0065565Y0029200D01*
X0063838Y0028484D01*
X0062516Y0027162D01*
X0061800Y0025435D01*
X0061800Y0017565D01*
X0062516Y0015838D01*
X0063838Y0014516D01*
X0065082Y0014000D01*
X0057918Y0014000D01*
X0059162Y0014516D01*
X0060484Y0015838D01*
X0061200Y0017565D01*
X0061200Y0025435D01*
X0060484Y0027162D01*
X0059162Y0028484D01*
X0057435Y0029200D01*
X0055565Y0029200D01*
X0053838Y0028484D01*
X0052516Y0027162D01*
X0051800Y0025435D01*
X0051800Y0017565D01*
X0052516Y0015838D01*
X0053838Y0014516D01*
X0055082Y0014000D01*
X0053886Y0014496D02*
X0009000Y0014496D01*
X0009000Y0015494D02*
X0052859Y0015494D01*
X0052244Y0016493D02*
X0009000Y0016493D01*
X0009000Y0017491D02*
X0051831Y0017491D01*
X0051800Y0018490D02*
X0009000Y0018490D01*
X0009000Y0019488D02*
X0051800Y0019488D01*
X0051800Y0020487D02*
X0009000Y0020487D01*
X0009000Y0021485D02*
X0051800Y0021485D01*
X0051800Y0022484D02*
X0009000Y0022484D01*
X0009000Y0023482D02*
X0051800Y0023482D01*
X0051800Y0024481D02*
X0009000Y0024481D01*
X0009000Y0025479D02*
X0051818Y0025479D01*
X0052232Y0026478D02*
X0009000Y0026478D01*
X0009000Y0027476D02*
X0052829Y0027476D01*
X0053828Y0028475D02*
X0009000Y0028475D01*
X0009000Y0029473D02*
X0298000Y0029473D01*
X0298000Y0028475D02*
X0219172Y0028475D01*
X0220171Y0027476D02*
X0298000Y0027476D01*
X0298000Y0026478D02*
X0220768Y0026478D01*
X0221182Y0025479D02*
X0298000Y0025479D01*
X0298000Y0024481D02*
X0221200Y0024481D01*
X0221200Y0023482D02*
X0298000Y0023482D01*
X0298000Y0022484D02*
X0221200Y0022484D01*
X0221200Y0021485D02*
X0298000Y0021485D01*
X0298000Y0020487D02*
X0221200Y0020487D01*
X0221200Y0019488D02*
X0298000Y0019488D01*
X0298000Y0018490D02*
X0221200Y0018490D01*
X0221169Y0017491D02*
X0298000Y0017491D01*
X0298000Y0016493D02*
X0220756Y0016493D01*
X0220141Y0015494D02*
X0298000Y0015494D01*
X0298000Y0014496D02*
X0219114Y0014496D01*
X0213886Y0014496D02*
X0209114Y0014496D01*
X0210141Y0015494D02*
X0212859Y0015494D01*
X0212244Y0016493D02*
X0210756Y0016493D01*
X0211169Y0017491D02*
X0211831Y0017491D01*
X0211800Y0018490D02*
X0211200Y0018490D01*
X0211200Y0019488D02*
X0211800Y0019488D01*
X0211800Y0020487D02*
X0211200Y0020487D01*
X0211200Y0021485D02*
X0211800Y0021485D01*
X0211800Y0022484D02*
X0211200Y0022484D01*
X0211200Y0023482D02*
X0211800Y0023482D01*
X0211800Y0024481D02*
X0211200Y0024481D01*
X0211182Y0025479D02*
X0211818Y0025479D01*
X0212232Y0026478D02*
X0210768Y0026478D01*
X0210171Y0027476D02*
X0212829Y0027476D01*
X0213828Y0028475D02*
X0209172Y0028475D01*
X0203828Y0028475D02*
X0199172Y0028475D01*
X0200171Y0027476D02*
X0202829Y0027476D01*
X0202232Y0026478D02*
X0200768Y0026478D01*
X0201182Y0025479D02*
X0201818Y0025479D01*
X0201800Y0024481D02*
X0201200Y0024481D01*
X0201200Y0023482D02*
X0201800Y0023482D01*
X0201800Y0022484D02*
X0201200Y0022484D01*
X0201200Y0021485D02*
X0201800Y0021485D01*
X0201800Y0020487D02*
X0201200Y0020487D01*
X0201200Y0019488D02*
X0201800Y0019488D01*
X0201800Y0018490D02*
X0201200Y0018490D01*
X0201169Y0017491D02*
X0201831Y0017491D01*
X0202244Y0016493D02*
X0200756Y0016493D01*
X0200141Y0015494D02*
X0202859Y0015494D01*
X0203886Y0014496D02*
X0199114Y0014496D01*
X0193886Y0014496D02*
X0189114Y0014496D01*
X0190141Y0015494D02*
X0192859Y0015494D01*
X0192244Y0016493D02*
X0190756Y0016493D01*
X0191169Y0017491D02*
X0191831Y0017491D01*
X0191800Y0018490D02*
X0191200Y0018490D01*
X0191200Y0019488D02*
X0191800Y0019488D01*
X0191800Y0020487D02*
X0191200Y0020487D01*
X0191200Y0021485D02*
X0191800Y0021485D01*
X0191800Y0022484D02*
X0191200Y0022484D01*
X0191200Y0023482D02*
X0191800Y0023482D01*
X0191800Y0024481D02*
X0191200Y0024481D01*
X0191182Y0025479D02*
X0191818Y0025479D01*
X0192232Y0026478D02*
X0190768Y0026478D01*
X0190171Y0027476D02*
X0192829Y0027476D01*
X0193828Y0028475D02*
X0189172Y0028475D01*
X0183828Y0028475D02*
X0179172Y0028475D01*
X0180171Y0027476D02*
X0182829Y0027476D01*
X0182232Y0026478D02*
X0180768Y0026478D01*
X0181182Y0025479D02*
X0181818Y0025479D01*
X0181800Y0024481D02*
X0181200Y0024481D01*
X0181200Y0023482D02*
X0181800Y0023482D01*
X0181800Y0022484D02*
X0181200Y0022484D01*
X0181200Y0021485D02*
X0181800Y0021485D01*
X0181800Y0020487D02*
X0181200Y0020487D01*
X0181200Y0019488D02*
X0181800Y0019488D01*
X0181800Y0018490D02*
X0181200Y0018490D01*
X0181169Y0017491D02*
X0181831Y0017491D01*
X0182244Y0016493D02*
X0180756Y0016493D01*
X0180141Y0015494D02*
X0182859Y0015494D01*
X0183886Y0014496D02*
X0179114Y0014496D01*
X0173886Y0014496D02*
X0169114Y0014496D01*
X0170141Y0015494D02*
X0172859Y0015494D01*
X0172244Y0016493D02*
X0170756Y0016493D01*
X0171169Y0017491D02*
X0171831Y0017491D01*
X0171800Y0018490D02*
X0171200Y0018490D01*
X0171200Y0019488D02*
X0171800Y0019488D01*
X0171800Y0020487D02*
X0171200Y0020487D01*
X0171200Y0021485D02*
X0171800Y0021485D01*
X0171800Y0022484D02*
X0171200Y0022484D01*
X0171200Y0023482D02*
X0171800Y0023482D01*
X0171800Y0024481D02*
X0171200Y0024481D01*
X0171182Y0025479D02*
X0171818Y0025479D01*
X0172232Y0026478D02*
X0170768Y0026478D01*
X0170171Y0027476D02*
X0172829Y0027476D01*
X0173828Y0028475D02*
X0169172Y0028475D01*
X0163828Y0028475D02*
X0159172Y0028475D01*
X0160171Y0027476D02*
X0162829Y0027476D01*
X0162232Y0026478D02*
X0160768Y0026478D01*
X0161182Y0025479D02*
X0161818Y0025479D01*
X0161800Y0024481D02*
X0161200Y0024481D01*
X0161200Y0023482D02*
X0161800Y0023482D01*
X0161800Y0022484D02*
X0161200Y0022484D01*
X0161200Y0021485D02*
X0161800Y0021485D01*
X0161800Y0020487D02*
X0161200Y0020487D01*
X0161200Y0019488D02*
X0161800Y0019488D01*
X0161800Y0018490D02*
X0161200Y0018490D01*
X0161169Y0017491D02*
X0161831Y0017491D01*
X0162244Y0016493D02*
X0160756Y0016493D01*
X0160141Y0015494D02*
X0162859Y0015494D01*
X0163886Y0014496D02*
X0159114Y0014496D01*
X0153886Y0014496D02*
X0149114Y0014496D01*
X0150141Y0015494D02*
X0152859Y0015494D01*
X0152244Y0016493D02*
X0150756Y0016493D01*
X0151169Y0017491D02*
X0151831Y0017491D01*
X0151800Y0018490D02*
X0151200Y0018490D01*
X0151200Y0019488D02*
X0151800Y0019488D01*
X0151800Y0020487D02*
X0151200Y0020487D01*
X0151200Y0021485D02*
X0151800Y0021485D01*
X0151800Y0022484D02*
X0151200Y0022484D01*
X0151200Y0023482D02*
X0151800Y0023482D01*
X0151800Y0024481D02*
X0151200Y0024481D01*
X0151182Y0025479D02*
X0151818Y0025479D01*
X0152232Y0026478D02*
X0150768Y0026478D01*
X0150171Y0027476D02*
X0152829Y0027476D01*
X0153828Y0028475D02*
X0149172Y0028475D01*
X0143828Y0028475D02*
X0129172Y0028475D01*
X0130171Y0027476D02*
X0142829Y0027476D01*
X0142232Y0026478D02*
X0130768Y0026478D01*
X0131182Y0025479D02*
X0141818Y0025479D01*
X0141800Y0024481D02*
X0131200Y0024481D01*
X0131200Y0023482D02*
X0141800Y0023482D01*
X0141800Y0022484D02*
X0131200Y0022484D01*
X0131200Y0021485D02*
X0141800Y0021485D01*
X0141800Y0020487D02*
X0131200Y0020487D01*
X0131200Y0019488D02*
X0141800Y0019488D01*
X0141800Y0018490D02*
X0131200Y0018490D01*
X0131169Y0017491D02*
X0141831Y0017491D01*
X0142244Y0016493D02*
X0130756Y0016493D01*
X0130141Y0015494D02*
X0142859Y0015494D01*
X0143886Y0014496D02*
X0129114Y0014496D01*
X0123886Y0014496D02*
X0119114Y0014496D01*
X0120141Y0015494D02*
X0122859Y0015494D01*
X0122244Y0016493D02*
X0120756Y0016493D01*
X0121169Y0017491D02*
X0121831Y0017491D01*
X0121800Y0018490D02*
X0121200Y0018490D01*
X0121200Y0019488D02*
X0121800Y0019488D01*
X0121800Y0020487D02*
X0121200Y0020487D01*
X0121200Y0021485D02*
X0121800Y0021485D01*
X0121800Y0022484D02*
X0121200Y0022484D01*
X0121200Y0023482D02*
X0121800Y0023482D01*
X0121800Y0024481D02*
X0121200Y0024481D01*
X0121182Y0025479D02*
X0121818Y0025479D01*
X0122232Y0026478D02*
X0120768Y0026478D01*
X0120171Y0027476D02*
X0122829Y0027476D01*
X0123828Y0028475D02*
X0119172Y0028475D01*
X0113828Y0028475D02*
X0108611Y0028475D01*
X0108859Y0028349D02*
X0108227Y0028670D01*
X0107554Y0028889D01*
X0107000Y0028977D01*
X0107000Y0022000D01*
X0111000Y0022000D01*
X0111000Y0024854D01*
X0110889Y0025554D01*
X0110670Y0026227D01*
X0110349Y0026859D01*
X0109932Y0027432D01*
X0109432Y0027932D01*
X0108859Y0028349D01*
X0109888Y0027476D02*
X0112829Y0027476D01*
X0112232Y0026478D02*
X0110543Y0026478D01*
X0110901Y0025479D02*
X0111818Y0025479D01*
X0111800Y0024481D02*
X0111000Y0024481D01*
X0111000Y0023482D02*
X0111800Y0023482D01*
X0111800Y0022484D02*
X0111000Y0022484D01*
X0111800Y0021485D02*
X0107000Y0021485D01*
X0107000Y0021000D02*
X0107000Y0022000D01*
X0106000Y0022000D01*
X0106000Y0028977D01*
X0105446Y0028889D01*
X0104773Y0028670D01*
X0104141Y0028349D01*
X0103568Y0027932D01*
X0103068Y0027432D01*
X0102651Y0026859D01*
X0102330Y0026227D01*
X0102111Y0025554D01*
X0102000Y0024854D01*
X0102000Y0022000D01*
X0106000Y0022000D01*
X0106000Y0021000D01*
X0107000Y0021000D01*
X0111000Y0021000D01*
X0111000Y0018146D01*
X0110889Y0017446D01*
X0110670Y0016773D01*
X0110349Y0016141D01*
X0109932Y0015568D01*
X0109432Y0015068D01*
X0108859Y0014651D01*
X0108227Y0014330D01*
X0107554Y0014111D01*
X0107000Y0014023D01*
X0107000Y0021000D01*
X0107000Y0020487D02*
X0106000Y0020487D01*
X0106000Y0021000D02*
X0106000Y0014023D01*
X0105446Y0014111D01*
X0104773Y0014330D01*
X0104141Y0014651D01*
X0103568Y0015068D01*
X0103068Y0015568D01*
X0102651Y0016141D01*
X0102330Y0016773D01*
X0102111Y0017446D01*
X0102000Y0018146D01*
X0102000Y0021000D01*
X0106000Y0021000D01*
X0106000Y0021485D02*
X0101200Y0021485D01*
X0101200Y0020487D02*
X0102000Y0020487D01*
X0102000Y0019488D02*
X0101200Y0019488D01*
X0101200Y0018490D02*
X0102000Y0018490D01*
X0102104Y0017491D02*
X0101169Y0017491D01*
X0100756Y0016493D02*
X0102472Y0016493D01*
X0103142Y0015494D02*
X0100141Y0015494D01*
X0099114Y0014496D02*
X0104447Y0014496D01*
X0106000Y0014496D02*
X0107000Y0014496D01*
X0107000Y0015494D02*
X0106000Y0015494D01*
X0106000Y0016493D02*
X0107000Y0016493D01*
X0107000Y0017491D02*
X0106000Y0017491D01*
X0106000Y0018490D02*
X0107000Y0018490D01*
X0107000Y0019488D02*
X0106000Y0019488D01*
X0106000Y0022484D02*
X0107000Y0022484D01*
X0107000Y0023482D02*
X0106000Y0023482D01*
X0106000Y0024481D02*
X0107000Y0024481D01*
X0107000Y0025479D02*
X0106000Y0025479D01*
X0106000Y0026478D02*
X0107000Y0026478D01*
X0107000Y0027476D02*
X0106000Y0027476D01*
X0106000Y0028475D02*
X0107000Y0028475D01*
X0104389Y0028475D02*
X0099172Y0028475D01*
X0100171Y0027476D02*
X0103112Y0027476D01*
X0102457Y0026478D02*
X0100768Y0026478D01*
X0101182Y0025479D02*
X0102099Y0025479D01*
X0102000Y0024481D02*
X0101200Y0024481D01*
X0101200Y0023482D02*
X0102000Y0023482D01*
X0102000Y0022484D02*
X0101200Y0022484D01*
X0091800Y0022484D02*
X0091200Y0022484D01*
X0091200Y0023482D02*
X0091800Y0023482D01*
X0091800Y0024481D02*
X0091200Y0024481D01*
X0091182Y0025479D02*
X0091818Y0025479D01*
X0092232Y0026478D02*
X0090768Y0026478D01*
X0090171Y0027476D02*
X0092829Y0027476D01*
X0093828Y0028475D02*
X0089172Y0028475D01*
X0083828Y0028475D02*
X0079172Y0028475D01*
X0080171Y0027476D02*
X0082829Y0027476D01*
X0082232Y0026478D02*
X0080768Y0026478D01*
X0081182Y0025479D02*
X0081818Y0025479D01*
X0081800Y0024481D02*
X0081200Y0024481D01*
X0081200Y0023482D02*
X0081800Y0023482D01*
X0081800Y0022484D02*
X0081200Y0022484D01*
X0081200Y0021485D02*
X0081800Y0021485D01*
X0081800Y0020487D02*
X0081200Y0020487D01*
X0081200Y0019488D02*
X0081800Y0019488D01*
X0081800Y0018490D02*
X0081200Y0018490D01*
X0081169Y0017491D02*
X0081831Y0017491D01*
X0082244Y0016493D02*
X0080756Y0016493D01*
X0080141Y0015494D02*
X0082859Y0015494D01*
X0083886Y0014496D02*
X0079114Y0014496D01*
X0073886Y0014496D02*
X0069114Y0014496D01*
X0070141Y0015494D02*
X0072859Y0015494D01*
X0072244Y0016493D02*
X0070756Y0016493D01*
X0071169Y0017491D02*
X0071831Y0017491D01*
X0071800Y0018490D02*
X0071200Y0018490D01*
X0071200Y0019488D02*
X0071800Y0019488D01*
X0071800Y0020487D02*
X0071200Y0020487D01*
X0071200Y0021485D02*
X0071800Y0021485D01*
X0071800Y0022484D02*
X0071200Y0022484D01*
X0071200Y0023482D02*
X0071800Y0023482D01*
X0071800Y0024481D02*
X0071200Y0024481D01*
X0071182Y0025479D02*
X0071818Y0025479D01*
X0072232Y0026478D02*
X0070768Y0026478D01*
X0070171Y0027476D02*
X0072829Y0027476D01*
X0073828Y0028475D02*
X0069172Y0028475D01*
X0063828Y0028475D02*
X0059172Y0028475D01*
X0060171Y0027476D02*
X0062829Y0027476D01*
X0062232Y0026478D02*
X0060768Y0026478D01*
X0061182Y0025479D02*
X0061818Y0025479D01*
X0061800Y0024481D02*
X0061200Y0024481D01*
X0061200Y0023482D02*
X0061800Y0023482D01*
X0061800Y0022484D02*
X0061200Y0022484D01*
X0061200Y0021485D02*
X0061800Y0021485D01*
X0061800Y0020487D02*
X0061200Y0020487D01*
X0061200Y0019488D02*
X0061800Y0019488D01*
X0061800Y0018490D02*
X0061200Y0018490D01*
X0061169Y0017491D02*
X0061831Y0017491D01*
X0062244Y0016493D02*
X0060756Y0016493D01*
X0060141Y0015494D02*
X0062859Y0015494D01*
X0063886Y0014496D02*
X0059114Y0014496D01*
X0041971Y0032076D02*
X0041233Y0031539D01*
X0040419Y0031125D01*
X0039551Y0030843D01*
X0038677Y0030704D01*
X0038677Y0036016D01*
X0038677Y0036984D01*
X0043988Y0036984D01*
X0043850Y0037858D01*
X0043568Y0038726D01*
X0043154Y0039540D01*
X0042617Y0040278D01*
X0041971Y0040924D01*
X0041233Y0041461D01*
X0040419Y0041875D01*
X0039551Y0042157D01*
X0038677Y0042296D01*
X0038677Y0036984D01*
X0037709Y0036984D01*
X0037709Y0042296D01*
X0036835Y0042157D01*
X0035966Y0041875D01*
X0035153Y0041461D01*
X0034414Y0040924D01*
X0033769Y0040278D01*
X0033232Y0039540D01*
X0032818Y0038726D01*
X0032536Y0037858D01*
X0032397Y0036984D01*
X0037709Y0036984D01*
X0037709Y0036016D01*
X0038677Y0036016D01*
X0043988Y0036016D01*
X0043850Y0035142D01*
X0043568Y0034274D01*
X0043154Y0033460D01*
X0042617Y0032722D01*
X0041971Y0032076D01*
X0042364Y0032469D02*
X0298000Y0032469D01*
X0298000Y0033467D02*
X0043157Y0033467D01*
X0043630Y0034466D02*
X0298000Y0034466D01*
X0298000Y0035464D02*
X0043901Y0035464D01*
X0043913Y0037461D02*
X0298000Y0037461D01*
X0298000Y0036463D02*
X0038677Y0036463D01*
X0037709Y0036463D02*
X0024898Y0036463D01*
X0024898Y0036016D02*
X0024898Y0036984D01*
X0030209Y0036984D01*
X0030071Y0037858D01*
X0029788Y0038726D01*
X0029374Y0039540D01*
X0028837Y0040278D01*
X0028192Y0040924D01*
X0027453Y0041461D01*
X0026640Y0041875D01*
X0025772Y0042157D01*
X0024898Y0042296D01*
X0024898Y0036984D01*
X0023929Y0036984D01*
X0023929Y0036016D01*
X0018618Y0036016D01*
X0018756Y0035142D01*
X0019038Y0034274D01*
X0019453Y0033460D01*
X0019989Y0032722D01*
X0020635Y0032076D01*
X0021374Y0031539D01*
X0022187Y0031125D01*
X0023055Y0030843D01*
X0023929Y0030704D01*
X0023929Y0036016D01*
X0024898Y0036016D01*
X0030209Y0036016D01*
X0030071Y0035142D01*
X0029788Y0034274D01*
X0029374Y0033460D01*
X0028837Y0032722D01*
X0028192Y0032076D01*
X0027453Y0031539D01*
X0026640Y0031125D01*
X0025772Y0030843D01*
X0024898Y0030704D01*
X0024898Y0036016D01*
X0024898Y0035464D02*
X0023929Y0035464D01*
X0023929Y0034466D02*
X0024898Y0034466D01*
X0024898Y0033467D02*
X0023929Y0033467D01*
X0023929Y0032469D02*
X0024898Y0032469D01*
X0024898Y0031470D02*
X0023929Y0031470D01*
X0021509Y0031470D02*
X0009000Y0031470D01*
X0009000Y0030472D02*
X0298000Y0030472D01*
X0298000Y0031470D02*
X0041097Y0031470D01*
X0038677Y0031470D02*
X0037709Y0031470D01*
X0037709Y0030704D02*
X0037709Y0036016D01*
X0032397Y0036016D01*
X0032536Y0035142D01*
X0032818Y0034274D01*
X0033232Y0033460D01*
X0033769Y0032722D01*
X0034414Y0032076D01*
X0035153Y0031539D01*
X0035966Y0031125D01*
X0036835Y0030843D01*
X0037709Y0030704D01*
X0037709Y0032469D02*
X0038677Y0032469D01*
X0038677Y0033467D02*
X0037709Y0033467D01*
X0037709Y0034466D02*
X0038677Y0034466D01*
X0038677Y0035464D02*
X0037709Y0035464D01*
X0037709Y0037461D02*
X0038677Y0037461D01*
X0038677Y0038460D02*
X0037709Y0038460D01*
X0037709Y0039458D02*
X0038677Y0039458D01*
X0038677Y0040457D02*
X0037709Y0040457D01*
X0037709Y0041455D02*
X0038677Y0041455D01*
X0041240Y0041455D02*
X0298000Y0041455D01*
X0298000Y0040457D02*
X0042438Y0040457D01*
X0043195Y0039458D02*
X0298000Y0039458D01*
X0298000Y0038460D02*
X0043655Y0038460D01*
X0035146Y0041455D02*
X0027460Y0041455D01*
X0028659Y0040457D02*
X0033947Y0040457D01*
X0033191Y0039458D02*
X0029416Y0039458D01*
X0029875Y0038460D02*
X0032731Y0038460D01*
X0032473Y0037461D02*
X0030133Y0037461D01*
X0030122Y0035464D02*
X0032485Y0035464D01*
X0032755Y0034466D02*
X0029851Y0034466D01*
X0029378Y0033467D02*
X0033229Y0033467D01*
X0034022Y0032469D02*
X0028585Y0032469D01*
X0027317Y0031470D02*
X0035289Y0031470D01*
X0024898Y0037461D02*
X0023929Y0037461D01*
X0023929Y0036984D02*
X0023929Y0042296D01*
X0023055Y0042157D01*
X0022187Y0041875D01*
X0021374Y0041461D01*
X0020635Y0040924D01*
X0019989Y0040278D01*
X0019453Y0039540D01*
X0019038Y0038726D01*
X0018756Y0037858D01*
X0018618Y0036984D01*
X0023929Y0036984D01*
X0023929Y0036463D02*
X0009000Y0036463D01*
X0009000Y0037461D02*
X0018693Y0037461D01*
X0018952Y0038460D02*
X0009000Y0038460D01*
X0009000Y0039458D02*
X0019411Y0039458D01*
X0020168Y0040457D02*
X0009000Y0040457D01*
X0009000Y0041455D02*
X0021366Y0041455D01*
X0023929Y0041455D02*
X0024898Y0041455D01*
X0024898Y0040457D02*
X0023929Y0040457D01*
X0023929Y0039458D02*
X0024898Y0039458D01*
X0024898Y0038460D02*
X0023929Y0038460D01*
X0018976Y0034466D02*
X0009000Y0034466D01*
X0009000Y0035464D02*
X0018705Y0035464D01*
X0019449Y0033467D02*
X0009000Y0033467D01*
X0009000Y0032469D02*
X0020242Y0032469D01*
X0009000Y0042454D02*
X0298000Y0042454D01*
X0298000Y0043452D02*
X0009000Y0043452D01*
X0009000Y0044451D02*
X0298000Y0044451D01*
X0298000Y0045449D02*
X0009000Y0045449D01*
X0009000Y0046448D02*
X0298000Y0046448D01*
X0298000Y0047446D02*
X0009000Y0047446D01*
X0009000Y0048445D02*
X0298000Y0048445D01*
X0298000Y0049443D02*
X0182820Y0049443D01*
X0182716Y0049400D02*
X0184222Y0050024D01*
X0185376Y0051178D01*
X0186000Y0052684D01*
X0186000Y0054316D01*
X0185376Y0055822D01*
X0184222Y0056976D01*
X0182716Y0057600D01*
X0176284Y0057600D01*
X0174778Y0056976D01*
X0173624Y0055822D01*
X0173000Y0054316D01*
X0173000Y0052684D01*
X0173624Y0051178D01*
X0174778Y0050024D01*
X0176284Y0049400D01*
X0182716Y0049400D01*
X0184640Y0050442D02*
X0298000Y0050442D01*
X0298000Y0051440D02*
X0185485Y0051440D01*
X0185898Y0052439D02*
X0298000Y0052439D01*
X0298000Y0053437D02*
X0186000Y0053437D01*
X0185950Y0054436D02*
X0298000Y0054436D01*
X0298000Y0055434D02*
X0185537Y0055434D01*
X0184765Y0056433D02*
X0298000Y0056433D01*
X0298000Y0057432D02*
X0183122Y0057432D01*
X0183038Y0059750D02*
X0183747Y0060044D01*
X0184386Y0060471D01*
X0184929Y0061014D01*
X0185356Y0061653D01*
X0185650Y0062362D01*
X0185800Y0063116D01*
X0185800Y0063200D01*
X0179800Y0063200D01*
X0179800Y0063800D01*
X0179200Y0063800D01*
X0179200Y0067400D01*
X0176716Y0067400D01*
X0175962Y0067250D01*
X0175253Y0066956D01*
X0174614Y0066529D01*
X0174071Y0065986D01*
X0173644Y0065347D01*
X0173350Y0064638D01*
X0173200Y0063884D01*
X0173200Y0063800D01*
X0179200Y0063800D01*
X0179200Y0063200D01*
X0179800Y0063200D01*
X0179800Y0059600D01*
X0182284Y0059600D01*
X0183038Y0059750D01*
X0184321Y0060427D02*
X0298000Y0060427D01*
X0298000Y0059429D02*
X0152784Y0059429D01*
X0152716Y0059400D02*
X0154222Y0060024D01*
X0155376Y0061178D01*
X0156000Y0062684D01*
X0156000Y0064316D01*
X0155376Y0065822D01*
X0154222Y0066976D01*
X0152716Y0067600D01*
X0146284Y0067600D01*
X0144778Y0066976D01*
X0143624Y0065822D01*
X0143000Y0064316D01*
X0143000Y0062684D01*
X0143624Y0061178D01*
X0144778Y0060024D01*
X0146284Y0059400D01*
X0152716Y0059400D01*
X0152716Y0057600D02*
X0146284Y0057600D01*
X0144778Y0056976D01*
X0143624Y0055822D01*
X0143000Y0054316D01*
X0143000Y0052684D01*
X0143624Y0051178D01*
X0144778Y0050024D01*
X0146284Y0049400D01*
X0152716Y0049400D01*
X0154222Y0050024D01*
X0155376Y0051178D01*
X0156000Y0052684D01*
X0156000Y0054316D01*
X0155376Y0055822D01*
X0154222Y0056976D01*
X0152716Y0057600D01*
X0153122Y0057432D02*
X0175878Y0057432D01*
X0174235Y0056433D02*
X0154765Y0056433D01*
X0155537Y0055434D02*
X0173463Y0055434D01*
X0173050Y0054436D02*
X0155950Y0054436D01*
X0156000Y0053437D02*
X0173000Y0053437D01*
X0173102Y0052439D02*
X0155898Y0052439D01*
X0155485Y0051440D02*
X0173515Y0051440D01*
X0174360Y0050442D02*
X0154640Y0050442D01*
X0152820Y0049443D02*
X0176180Y0049443D01*
X0176716Y0059600D02*
X0179200Y0059600D01*
X0179200Y0063200D01*
X0173200Y0063200D01*
X0173200Y0063116D01*
X0173350Y0062362D01*
X0173644Y0061653D01*
X0174071Y0061014D01*
X0174614Y0060471D01*
X0175253Y0060044D01*
X0175962Y0059750D01*
X0176716Y0059600D01*
X0174679Y0060427D02*
X0154625Y0060427D01*
X0155479Y0061426D02*
X0173796Y0061426D01*
X0173338Y0062424D02*
X0155892Y0062424D01*
X0156000Y0063423D02*
X0179200Y0063423D01*
X0179800Y0063423D02*
X0298000Y0063423D01*
X0298000Y0064421D02*
X0185693Y0064421D01*
X0185650Y0064638D02*
X0185356Y0065347D01*
X0184929Y0065986D01*
X0184386Y0066529D01*
X0183747Y0066956D01*
X0183038Y0067250D01*
X0182284Y0067400D01*
X0179800Y0067400D01*
X0179800Y0063800D01*
X0185800Y0063800D01*
X0185800Y0063884D01*
X0185650Y0064638D01*
X0185308Y0065420D02*
X0298000Y0065420D01*
X0298000Y0066418D02*
X0184497Y0066418D01*
X0183038Y0069750D02*
X0183747Y0070044D01*
X0184386Y0070471D01*
X0184929Y0071014D01*
X0185356Y0071653D01*
X0185650Y0072362D01*
X0185800Y0073116D01*
X0185800Y0073200D01*
X0179800Y0073200D01*
X0179800Y0073800D01*
X0179200Y0073800D01*
X0179200Y0077400D01*
X0176716Y0077400D01*
X0175962Y0077250D01*
X0175253Y0076956D01*
X0174614Y0076529D01*
X0174071Y0075986D01*
X0173644Y0075347D01*
X0173350Y0074638D01*
X0173200Y0073884D01*
X0173200Y0073800D01*
X0179200Y0073800D01*
X0179200Y0073200D01*
X0179800Y0073200D01*
X0179800Y0069600D01*
X0182284Y0069600D01*
X0183038Y0069750D01*
X0184299Y0070412D02*
X0298000Y0070412D01*
X0298000Y0069414D02*
X0152748Y0069414D01*
X0152716Y0069400D02*
X0154222Y0070024D01*
X0155376Y0071178D01*
X0156000Y0072684D01*
X0156000Y0074316D01*
X0155376Y0075822D01*
X0154222Y0076976D01*
X0152716Y0077600D01*
X0146284Y0077600D01*
X0144778Y0076976D01*
X0143624Y0075822D01*
X0143000Y0074316D01*
X0143000Y0072684D01*
X0143624Y0071178D01*
X0144778Y0070024D01*
X0146284Y0069400D01*
X0152716Y0069400D01*
X0153158Y0067417D02*
X0298000Y0067417D01*
X0298000Y0068415D02*
X0009000Y0068415D01*
X0009000Y0067417D02*
X0072364Y0067417D01*
X0073307Y0067807D02*
X0071101Y0066894D01*
X0069413Y0065206D01*
X0068500Y0063001D01*
X0068500Y0060614D01*
X0069413Y0058408D01*
X0071101Y0056721D01*
X0073307Y0055807D01*
X0075693Y0055807D01*
X0077899Y0056721D01*
X0079587Y0058408D01*
X0080500Y0060614D01*
X0080500Y0063001D01*
X0079587Y0065206D01*
X0077899Y0066894D01*
X0075693Y0067807D01*
X0073307Y0067807D01*
X0073307Y0069587D02*
X0071101Y0070500D01*
X0069413Y0072188D01*
X0068500Y0074393D01*
X0068500Y0076780D01*
X0069413Y0078985D01*
X0071101Y0080673D01*
X0073307Y0081587D01*
X0075693Y0081587D01*
X0077899Y0080673D01*
X0079587Y0078985D01*
X0080500Y0076780D01*
X0080500Y0074393D01*
X0079587Y0072188D01*
X0077899Y0070500D01*
X0075693Y0069587D01*
X0073307Y0069587D01*
X0071313Y0070412D02*
X0009000Y0070412D01*
X0009000Y0069414D02*
X0146251Y0069414D01*
X0145842Y0067417D02*
X0076636Y0067417D01*
X0078374Y0066418D02*
X0144220Y0066418D01*
X0143457Y0065420D02*
X0079373Y0065420D01*
X0079912Y0064421D02*
X0143044Y0064421D01*
X0143000Y0063423D02*
X0080325Y0063423D01*
X0080500Y0062424D02*
X0143108Y0062424D01*
X0143521Y0061426D02*
X0080500Y0061426D01*
X0080423Y0060427D02*
X0144375Y0060427D01*
X0146216Y0059429D02*
X0080009Y0059429D01*
X0079596Y0058430D02*
X0298000Y0058430D01*
X0298000Y0061426D02*
X0185204Y0061426D01*
X0185662Y0062424D02*
X0298000Y0062424D01*
X0298000Y0071411D02*
X0185194Y0071411D01*
X0185659Y0072409D02*
X0298000Y0072409D01*
X0298000Y0073408D02*
X0179800Y0073408D01*
X0179800Y0073800D02*
X0185800Y0073800D01*
X0185800Y0073884D01*
X0185650Y0074638D01*
X0185356Y0075347D01*
X0184929Y0075986D01*
X0184386Y0076529D01*
X0183747Y0076956D01*
X0183038Y0077250D01*
X0182284Y0077400D01*
X0179800Y0077400D01*
X0179800Y0073800D01*
X0179800Y0074406D02*
X0179200Y0074406D01*
X0179200Y0073408D02*
X0156000Y0073408D01*
X0155962Y0074406D02*
X0173304Y0074406D01*
X0173682Y0075405D02*
X0155549Y0075405D01*
X0154795Y0076403D02*
X0174488Y0076403D01*
X0173200Y0073200D02*
X0173200Y0073116D01*
X0173350Y0072362D01*
X0173644Y0071653D01*
X0174071Y0071014D01*
X0174614Y0070471D01*
X0175253Y0070044D01*
X0175962Y0069750D01*
X0176716Y0069600D01*
X0179200Y0069600D01*
X0179200Y0073200D01*
X0173200Y0073200D01*
X0173341Y0072409D02*
X0155886Y0072409D01*
X0155472Y0071411D02*
X0173806Y0071411D01*
X0174701Y0070412D02*
X0154610Y0070412D01*
X0154780Y0066418D02*
X0174503Y0066418D01*
X0173692Y0065420D02*
X0155543Y0065420D01*
X0155956Y0064421D02*
X0173307Y0064421D01*
X0179200Y0064421D02*
X0179800Y0064421D01*
X0179800Y0065420D02*
X0179200Y0065420D01*
X0179200Y0066418D02*
X0179800Y0066418D01*
X0179800Y0070412D02*
X0179200Y0070412D01*
X0179200Y0071411D02*
X0179800Y0071411D01*
X0179800Y0072409D02*
X0179200Y0072409D01*
X0179200Y0075405D02*
X0179800Y0075405D01*
X0179800Y0076403D02*
X0179200Y0076403D01*
X0176284Y0079400D02*
X0174778Y0080024D01*
X0173624Y0081178D01*
X0173000Y0082684D01*
X0173000Y0084316D01*
X0173624Y0085822D01*
X0174778Y0086976D01*
X0176284Y0087600D01*
X0182716Y0087600D01*
X0184222Y0086976D01*
X0185376Y0085822D01*
X0186000Y0084316D01*
X0186000Y0082684D01*
X0185376Y0081178D01*
X0184222Y0080024D01*
X0182716Y0079400D01*
X0176284Y0079400D01*
X0174404Y0080397D02*
X0154276Y0080397D01*
X0154386Y0080471D02*
X0154929Y0081014D01*
X0155356Y0081653D01*
X0155650Y0082362D01*
X0155800Y0083116D01*
X0155800Y0083200D01*
X0149800Y0083200D01*
X0149800Y0083800D01*
X0149200Y0083800D01*
X0149200Y0087400D01*
X0146716Y0087400D01*
X0145962Y0087250D01*
X0145253Y0086956D01*
X0144614Y0086529D01*
X0144071Y0085986D01*
X0143644Y0085347D01*
X0143350Y0084638D01*
X0143200Y0083884D01*
X0143200Y0083800D01*
X0149200Y0083800D01*
X0149200Y0083200D01*
X0149800Y0083200D01*
X0149800Y0079600D01*
X0152284Y0079600D01*
X0153038Y0079750D01*
X0153747Y0080044D01*
X0154386Y0080471D01*
X0155184Y0081396D02*
X0173534Y0081396D01*
X0173120Y0082394D02*
X0155656Y0082394D01*
X0155800Y0083800D02*
X0155800Y0083884D01*
X0155650Y0084638D01*
X0155356Y0085347D01*
X0154929Y0085986D01*
X0154386Y0086529D01*
X0153747Y0086956D01*
X0153038Y0087250D01*
X0152284Y0087400D01*
X0149800Y0087400D01*
X0149800Y0083800D01*
X0155800Y0083800D01*
X0155699Y0084391D02*
X0173031Y0084391D01*
X0173000Y0083393D02*
X0149800Y0083393D01*
X0149200Y0083393D02*
X0009000Y0083393D01*
X0009000Y0084391D02*
X0143301Y0084391D01*
X0143672Y0085390D02*
X0009000Y0085390D01*
X0009000Y0086388D02*
X0144473Y0086388D01*
X0146650Y0087387D02*
X0009000Y0087387D01*
X0009000Y0088385D02*
X0298000Y0088385D01*
X0298000Y0087387D02*
X0183230Y0087387D01*
X0184810Y0086388D02*
X0298000Y0086388D01*
X0298000Y0085390D02*
X0185555Y0085390D01*
X0185969Y0084391D02*
X0298000Y0084391D01*
X0298000Y0083393D02*
X0186000Y0083393D01*
X0185880Y0082394D02*
X0298000Y0082394D01*
X0298000Y0081396D02*
X0185466Y0081396D01*
X0184596Y0080397D02*
X0298000Y0080397D01*
X0298000Y0079399D02*
X0079173Y0079399D01*
X0079829Y0078400D02*
X0298000Y0078400D01*
X0298000Y0077402D02*
X0153194Y0077402D01*
X0149200Y0079600D02*
X0149200Y0083200D01*
X0143200Y0083200D01*
X0143200Y0083116D01*
X0143350Y0082362D01*
X0143644Y0081653D01*
X0144071Y0081014D01*
X0144614Y0080471D01*
X0145253Y0080044D01*
X0145962Y0079750D01*
X0146716Y0079600D01*
X0149200Y0079600D01*
X0149200Y0080397D02*
X0149800Y0080397D01*
X0149800Y0081396D02*
X0149200Y0081396D01*
X0149200Y0082394D02*
X0149800Y0082394D01*
X0149800Y0084391D02*
X0149200Y0084391D01*
X0149200Y0085390D02*
X0149800Y0085390D01*
X0149800Y0086388D02*
X0149200Y0086388D01*
X0149200Y0087387D02*
X0149800Y0087387D01*
X0152350Y0087387D02*
X0175770Y0087387D01*
X0174190Y0086388D02*
X0154527Y0086388D01*
X0155328Y0085390D02*
X0173445Y0085390D01*
X0184512Y0076403D02*
X0298000Y0076403D01*
X0298000Y0075405D02*
X0185318Y0075405D01*
X0185696Y0074406D02*
X0298000Y0074406D01*
X0298000Y0089384D02*
X0009000Y0089384D01*
X0009000Y0090382D02*
X0298000Y0090382D01*
X0298000Y0091381D02*
X0009000Y0091381D01*
X0009000Y0092379D02*
X0298000Y0092379D01*
X0298000Y0093378D02*
X0009000Y0093378D01*
X0009000Y0094376D02*
X0298000Y0094376D01*
X0298000Y0095375D02*
X0009000Y0095375D01*
X0009000Y0096373D02*
X0298000Y0096373D01*
X0298000Y0097372D02*
X0009000Y0097372D01*
X0009000Y0098370D02*
X0298000Y0098370D01*
X0298000Y0099369D02*
X0009000Y0099369D01*
X0009000Y0100368D02*
X0298000Y0100368D01*
X0298000Y0101366D02*
X0009000Y0101366D01*
X0009000Y0102365D02*
X0298000Y0102365D01*
X0298000Y0103363D02*
X0184561Y0103363D01*
X0184222Y0103024D02*
X0185376Y0104178D01*
X0186000Y0105684D01*
X0186000Y0107316D01*
X0185376Y0108822D01*
X0184222Y0109976D01*
X0182716Y0110600D01*
X0176284Y0110600D01*
X0174778Y0109976D01*
X0173624Y0108822D01*
X0173000Y0107316D01*
X0173000Y0105684D01*
X0173624Y0104178D01*
X0174778Y0103024D01*
X0176284Y0102400D01*
X0182716Y0102400D01*
X0184222Y0103024D01*
X0185452Y0104362D02*
X0298000Y0104362D01*
X0298000Y0105360D02*
X0185866Y0105360D01*
X0186000Y0106359D02*
X0298000Y0106359D01*
X0298000Y0107357D02*
X0185983Y0107357D01*
X0185569Y0108356D02*
X0298000Y0108356D01*
X0298000Y0109354D02*
X0184844Y0109354D01*
X0183313Y0110353D02*
X0298000Y0110353D01*
X0298000Y0111351D02*
X0079529Y0111351D01*
X0079587Y0111408D02*
X0080500Y0113614D01*
X0080500Y0116001D01*
X0079587Y0118206D01*
X0077899Y0119894D01*
X0075693Y0120807D01*
X0073307Y0120807D01*
X0071101Y0119894D01*
X0069413Y0118206D01*
X0068500Y0116001D01*
X0068500Y0113614D01*
X0069413Y0111408D01*
X0071101Y0109721D01*
X0073307Y0108807D01*
X0075693Y0108807D01*
X0077899Y0109721D01*
X0079587Y0111408D01*
X0079976Y0112350D02*
X0298000Y0112350D01*
X0298000Y0113348D02*
X0184546Y0113348D01*
X0184222Y0113024D02*
X0185376Y0114178D01*
X0186000Y0115684D01*
X0186000Y0117316D01*
X0185376Y0118822D01*
X0184222Y0119976D01*
X0182716Y0120600D01*
X0176284Y0120600D01*
X0174778Y0119976D01*
X0173624Y0118822D01*
X0173000Y0117316D01*
X0173000Y0115684D01*
X0173624Y0114178D01*
X0174778Y0113024D01*
X0176284Y0112400D01*
X0182716Y0112400D01*
X0184222Y0113024D01*
X0185446Y0114347D02*
X0298000Y0114347D01*
X0298000Y0115345D02*
X0185859Y0115345D01*
X0186000Y0116344D02*
X0298000Y0116344D01*
X0298000Y0117342D02*
X0185989Y0117342D01*
X0185575Y0118341D02*
X0298000Y0118341D01*
X0298000Y0119339D02*
X0184859Y0119339D01*
X0183349Y0120338D02*
X0298000Y0120338D01*
X0298000Y0121336D02*
X0009000Y0121336D01*
X0009000Y0120338D02*
X0072173Y0120338D01*
X0070547Y0119339D02*
X0009000Y0119339D01*
X0009000Y0118341D02*
X0069548Y0118341D01*
X0069056Y0117342D02*
X0009000Y0117342D01*
X0009000Y0116344D02*
X0068642Y0116344D01*
X0068500Y0115345D02*
X0009000Y0115345D01*
X0009000Y0114347D02*
X0068500Y0114347D01*
X0068610Y0113348D02*
X0009000Y0113348D01*
X0009000Y0112350D02*
X0069024Y0112350D01*
X0069471Y0111351D02*
X0009000Y0111351D01*
X0009000Y0110353D02*
X0070469Y0110353D01*
X0071986Y0109354D02*
X0009000Y0109354D01*
X0009000Y0108356D02*
X0143431Y0108356D01*
X0143624Y0108822D02*
X0143000Y0107316D01*
X0143000Y0105684D01*
X0143624Y0104178D01*
X0144778Y0103024D01*
X0146284Y0102400D01*
X0152716Y0102400D01*
X0154222Y0103024D01*
X0155376Y0104178D01*
X0156000Y0105684D01*
X0156000Y0107316D01*
X0155376Y0108822D01*
X0154222Y0109976D01*
X0152716Y0110600D01*
X0146284Y0110600D01*
X0144778Y0109976D01*
X0143624Y0108822D01*
X0144156Y0109354D02*
X0077014Y0109354D01*
X0078531Y0110353D02*
X0145687Y0110353D01*
X0146284Y0112400D02*
X0144778Y0113024D01*
X0143624Y0114178D01*
X0143000Y0115684D01*
X0143000Y0117316D01*
X0143624Y0118822D01*
X0144778Y0119976D01*
X0146284Y0120600D01*
X0152716Y0120600D01*
X0154222Y0119976D01*
X0155376Y0118822D01*
X0156000Y0117316D01*
X0156000Y0115684D01*
X0155376Y0114178D01*
X0154222Y0113024D01*
X0152716Y0112400D01*
X0146284Y0112400D01*
X0144454Y0113348D02*
X0080390Y0113348D01*
X0080500Y0114347D02*
X0143554Y0114347D01*
X0143141Y0115345D02*
X0080500Y0115345D01*
X0080358Y0116344D02*
X0143000Y0116344D01*
X0143011Y0117342D02*
X0079944Y0117342D01*
X0079452Y0118341D02*
X0143425Y0118341D01*
X0144141Y0119339D02*
X0078453Y0119339D01*
X0076827Y0120338D02*
X0145651Y0120338D01*
X0146284Y0122400D02*
X0144778Y0123024D01*
X0143624Y0124178D01*
X0143000Y0125684D01*
X0143000Y0127316D01*
X0143624Y0128822D01*
X0144778Y0129976D01*
X0146284Y0130600D01*
X0152716Y0130600D01*
X0154222Y0129976D01*
X0155376Y0128822D01*
X0156000Y0127316D01*
X0156000Y0125684D01*
X0155376Y0124178D01*
X0154222Y0123024D01*
X0152716Y0122400D01*
X0146284Y0122400D01*
X0144468Y0123333D02*
X0077496Y0123333D01*
X0077899Y0123500D02*
X0079587Y0125188D01*
X0080500Y0127393D01*
X0080500Y0129780D01*
X0079587Y0131985D01*
X0077899Y0133673D01*
X0075693Y0134587D01*
X0073307Y0134587D01*
X0071101Y0133673D01*
X0069413Y0131985D01*
X0068500Y0129780D01*
X0068500Y0127393D01*
X0069413Y0125188D01*
X0071101Y0123500D01*
X0073307Y0122587D01*
X0075693Y0122587D01*
X0077899Y0123500D01*
X0078730Y0124332D02*
X0143560Y0124332D01*
X0143147Y0125330D02*
X0079646Y0125330D01*
X0080059Y0126329D02*
X0143000Y0126329D01*
X0143005Y0127327D02*
X0080473Y0127327D01*
X0080500Y0128326D02*
X0143418Y0128326D01*
X0144126Y0129324D02*
X0080500Y0129324D01*
X0080275Y0130323D02*
X0145615Y0130323D01*
X0145962Y0132750D02*
X0146716Y0132600D01*
X0149200Y0132600D01*
X0149200Y0136200D01*
X0149800Y0136200D01*
X0149800Y0136800D01*
X0149200Y0136800D01*
X0149200Y0140400D01*
X0146716Y0140400D01*
X0145962Y0140250D01*
X0145253Y0139956D01*
X0144614Y0139529D01*
X0144071Y0138986D01*
X0143644Y0138347D01*
X0143350Y0137638D01*
X0143200Y0136884D01*
X0143200Y0136800D01*
X0149200Y0136800D01*
X0149200Y0136200D01*
X0143200Y0136200D01*
X0143200Y0136116D01*
X0143350Y0135362D01*
X0143644Y0134653D01*
X0144071Y0134014D01*
X0144614Y0133471D01*
X0145253Y0133044D01*
X0145962Y0132750D01*
X0144842Y0133318D02*
X0078253Y0133318D01*
X0079252Y0132320D02*
X0298000Y0132320D01*
X0298000Y0133318D02*
X0184517Y0133318D01*
X0184222Y0133024D02*
X0185376Y0134178D01*
X0186000Y0135684D01*
X0186000Y0137316D01*
X0185376Y0138822D01*
X0184222Y0139976D01*
X0182716Y0140600D01*
X0176284Y0140600D01*
X0174778Y0139976D01*
X0173624Y0138822D01*
X0173000Y0137316D01*
X0173000Y0135684D01*
X0173624Y0134178D01*
X0174778Y0133024D01*
X0176284Y0132400D01*
X0182716Y0132400D01*
X0184222Y0133024D01*
X0185434Y0134317D02*
X0298000Y0134317D01*
X0298000Y0135315D02*
X0185847Y0135315D01*
X0186000Y0136314D02*
X0298000Y0136314D01*
X0298000Y0137312D02*
X0186000Y0137312D01*
X0185588Y0138311D02*
X0298000Y0138311D01*
X0298000Y0139309D02*
X0184889Y0139309D01*
X0183421Y0140308D02*
X0298000Y0140308D01*
X0298000Y0141306D02*
X0009000Y0141306D01*
X0009000Y0140308D02*
X0146253Y0140308D01*
X0144394Y0139309D02*
X0009000Y0139309D01*
X0009000Y0138311D02*
X0143629Y0138311D01*
X0143285Y0137312D02*
X0009000Y0137312D01*
X0009000Y0136314D02*
X0149200Y0136314D01*
X0149800Y0136314D02*
X0173000Y0136314D01*
X0173000Y0137312D02*
X0155715Y0137312D01*
X0155650Y0137638D02*
X0155356Y0138347D01*
X0154929Y0138986D01*
X0154386Y0139529D01*
X0153747Y0139956D01*
X0153038Y0140250D01*
X0152284Y0140400D01*
X0149800Y0140400D01*
X0149800Y0136800D01*
X0155800Y0136800D01*
X0155800Y0136884D01*
X0155650Y0137638D01*
X0155371Y0138311D02*
X0173412Y0138311D01*
X0174111Y0139309D02*
X0154606Y0139309D01*
X0152747Y0140308D02*
X0175579Y0140308D01*
X0173153Y0135315D02*
X0155631Y0135315D01*
X0155650Y0135362D02*
X0155800Y0136116D01*
X0155800Y0136200D01*
X0149800Y0136200D01*
X0149800Y0132600D01*
X0152284Y0132600D01*
X0153038Y0132750D01*
X0153747Y0133044D01*
X0154386Y0133471D01*
X0154929Y0134014D01*
X0155356Y0134653D01*
X0155650Y0135362D01*
X0155132Y0134317D02*
X0173566Y0134317D01*
X0174483Y0133318D02*
X0154158Y0133318D01*
X0153385Y0130323D02*
X0175615Y0130323D01*
X0176284Y0130600D02*
X0174778Y0129976D01*
X0173624Y0128822D01*
X0173000Y0127316D01*
X0173000Y0125684D01*
X0173624Y0124178D01*
X0174778Y0123024D01*
X0176284Y0122400D01*
X0182716Y0122400D01*
X0184222Y0123024D01*
X0185376Y0124178D01*
X0186000Y0125684D01*
X0186000Y0127316D01*
X0185376Y0128822D01*
X0184222Y0129976D01*
X0182716Y0130600D01*
X0176284Y0130600D01*
X0174126Y0129324D02*
X0154874Y0129324D01*
X0155582Y0128326D02*
X0173418Y0128326D01*
X0173005Y0127327D02*
X0155995Y0127327D01*
X0156000Y0126329D02*
X0173000Y0126329D01*
X0173147Y0125330D02*
X0155853Y0125330D01*
X0155440Y0124332D02*
X0173560Y0124332D01*
X0174468Y0123333D02*
X0154532Y0123333D01*
X0153349Y0120338D02*
X0175651Y0120338D01*
X0174141Y0119339D02*
X0154859Y0119339D01*
X0155575Y0118341D02*
X0173425Y0118341D01*
X0173011Y0117342D02*
X0155989Y0117342D01*
X0156000Y0116344D02*
X0173000Y0116344D01*
X0173141Y0115345D02*
X0155859Y0115345D01*
X0155446Y0114347D02*
X0173554Y0114347D01*
X0174454Y0113348D02*
X0154546Y0113348D01*
X0153313Y0110353D02*
X0175687Y0110353D01*
X0174156Y0109354D02*
X0154844Y0109354D01*
X0155569Y0108356D02*
X0173431Y0108356D01*
X0173017Y0107357D02*
X0155983Y0107357D01*
X0156000Y0106359D02*
X0173000Y0106359D01*
X0173134Y0105360D02*
X0155866Y0105360D01*
X0155452Y0104362D02*
X0173548Y0104362D01*
X0174439Y0103363D02*
X0154561Y0103363D01*
X0144439Y0103363D02*
X0009000Y0103363D01*
X0009000Y0104362D02*
X0143548Y0104362D01*
X0143134Y0105360D02*
X0009000Y0105360D01*
X0009000Y0106359D02*
X0143000Y0106359D01*
X0143017Y0107357D02*
X0009000Y0107357D01*
X0009000Y0122335D02*
X0298000Y0122335D01*
X0298000Y0123333D02*
X0184532Y0123333D01*
X0185440Y0124332D02*
X0298000Y0124332D01*
X0298000Y0125330D02*
X0185853Y0125330D01*
X0186000Y0126329D02*
X0298000Y0126329D01*
X0298000Y0127327D02*
X0185995Y0127327D01*
X0185582Y0128326D02*
X0298000Y0128326D01*
X0298000Y0129324D02*
X0184874Y0129324D01*
X0183385Y0130323D02*
X0298000Y0130323D01*
X0298000Y0131321D02*
X0079862Y0131321D01*
X0076345Y0134317D02*
X0143868Y0134317D01*
X0143369Y0135315D02*
X0009000Y0135315D01*
X0009000Y0134317D02*
X0072655Y0134317D01*
X0070746Y0133318D02*
X0009000Y0133318D01*
X0009000Y0132320D02*
X0069748Y0132320D01*
X0069138Y0131321D02*
X0009000Y0131321D01*
X0009000Y0130323D02*
X0068725Y0130323D01*
X0068500Y0129324D02*
X0009000Y0129324D01*
X0009000Y0128326D02*
X0068500Y0128326D01*
X0068527Y0127327D02*
X0009000Y0127327D01*
X0009000Y0126329D02*
X0068941Y0126329D01*
X0069354Y0125330D02*
X0009000Y0125330D01*
X0009000Y0124332D02*
X0070270Y0124332D01*
X0071504Y0123333D02*
X0009000Y0123333D01*
X0009000Y0142305D02*
X0298000Y0142305D01*
X0298000Y0143303D02*
X0009000Y0143303D01*
X0009000Y0144302D02*
X0298000Y0144302D01*
X0298000Y0145301D02*
X0009000Y0145301D01*
X0009000Y0146299D02*
X0298000Y0146299D01*
X0298000Y0147298D02*
X0009000Y0147298D01*
X0009000Y0148296D02*
X0298000Y0148296D01*
X0298000Y0149295D02*
X0009000Y0149295D01*
X0009000Y0150293D02*
X0298000Y0150293D01*
X0298000Y0151292D02*
X0009000Y0151292D01*
X0009000Y0152290D02*
X0298000Y0152290D01*
X0298000Y0153289D02*
X0245655Y0153289D01*
X0245681Y0153315D02*
X0245681Y0158685D01*
X0244685Y0159681D01*
X0242354Y0159681D01*
X0238416Y0163619D01*
X0237497Y0164000D01*
X0210181Y0164000D01*
X0210181Y0164185D01*
X0209185Y0165181D01*
X0203815Y0165181D01*
X0202819Y0164185D01*
X0202819Y0158815D01*
X0203815Y0157819D01*
X0209185Y0157819D01*
X0210181Y0158815D01*
X0210181Y0159000D01*
X0235964Y0159000D01*
X0238319Y0156646D01*
X0238319Y0153315D01*
X0239315Y0152319D01*
X0244685Y0152319D01*
X0245681Y0153315D01*
X0245681Y0154287D02*
X0298000Y0154287D01*
X0298000Y0155286D02*
X0245681Y0155286D01*
X0245681Y0156284D02*
X0298000Y0156284D01*
X0298000Y0157283D02*
X0245681Y0157283D01*
X0245681Y0158281D02*
X0298000Y0158281D01*
X0298000Y0159280D02*
X0245087Y0159280D01*
X0241757Y0160278D02*
X0298000Y0160278D01*
X0298000Y0161277D02*
X0240759Y0161277D01*
X0239760Y0162275D02*
X0298000Y0162275D01*
X0298000Y0163274D02*
X0238762Y0163274D01*
X0236683Y0158281D02*
X0209648Y0158281D01*
X0203352Y0158281D02*
X0185419Y0158281D01*
X0185376Y0158178D02*
X0186000Y0159684D01*
X0186000Y0161316D01*
X0185376Y0162822D01*
X0184222Y0163976D01*
X0182716Y0164600D01*
X0176284Y0164600D01*
X0174778Y0163976D01*
X0173624Y0162822D01*
X0173000Y0161316D01*
X0173000Y0159684D01*
X0173624Y0158178D01*
X0174778Y0157024D01*
X0176284Y0156400D01*
X0182716Y0156400D01*
X0184222Y0157024D01*
X0185376Y0158178D01*
X0185832Y0159280D02*
X0202819Y0159280D01*
X0202819Y0160278D02*
X0186000Y0160278D01*
X0186000Y0161277D02*
X0202819Y0161277D01*
X0202819Y0162275D02*
X0185602Y0162275D01*
X0184925Y0163274D02*
X0202819Y0163274D01*
X0202906Y0164272D02*
X0183507Y0164272D01*
X0182716Y0166400D02*
X0184222Y0167024D01*
X0185376Y0168178D01*
X0186000Y0169684D01*
X0186000Y0171316D01*
X0185376Y0172822D01*
X0184222Y0173976D01*
X0182716Y0174600D01*
X0176284Y0174600D01*
X0174778Y0173976D01*
X0173624Y0172822D01*
X0173000Y0171316D01*
X0173000Y0169684D01*
X0173624Y0168178D01*
X0174778Y0167024D01*
X0176284Y0166400D01*
X0182716Y0166400D01*
X0184466Y0167268D02*
X0298000Y0167268D01*
X0298000Y0168266D02*
X0185413Y0168266D01*
X0185826Y0169265D02*
X0298000Y0169265D01*
X0298000Y0170263D02*
X0186000Y0170263D01*
X0186000Y0171262D02*
X0298000Y0171262D01*
X0298000Y0172260D02*
X0185609Y0172260D01*
X0184939Y0173259D02*
X0298000Y0173259D01*
X0298000Y0174257D02*
X0183543Y0174257D01*
X0182716Y0176400D02*
X0184222Y0177024D01*
X0185376Y0178178D01*
X0186000Y0179684D01*
X0186000Y0181316D01*
X0185376Y0182822D01*
X0184222Y0183976D01*
X0182716Y0184600D01*
X0176284Y0184600D01*
X0174778Y0183976D01*
X0173624Y0182822D01*
X0173000Y0181316D01*
X0173000Y0179684D01*
X0173624Y0178178D01*
X0174778Y0177024D01*
X0176284Y0176400D01*
X0182716Y0176400D01*
X0184451Y0177253D02*
X0298000Y0177253D01*
X0298000Y0178251D02*
X0185406Y0178251D01*
X0185820Y0179250D02*
X0298000Y0179250D01*
X0298000Y0180248D02*
X0186000Y0180248D01*
X0186000Y0181247D02*
X0298000Y0181247D01*
X0298000Y0182245D02*
X0185615Y0182245D01*
X0184954Y0183244D02*
X0298000Y0183244D01*
X0298000Y0184242D02*
X0183579Y0184242D01*
X0182716Y0186400D02*
X0184222Y0187024D01*
X0185376Y0188178D01*
X0186000Y0189684D01*
X0186000Y0191316D01*
X0185376Y0192822D01*
X0184222Y0193976D01*
X0182716Y0194600D01*
X0176284Y0194600D01*
X0174778Y0193976D01*
X0173624Y0192822D01*
X0173000Y0191316D01*
X0173000Y0189684D01*
X0173624Y0188178D01*
X0174778Y0187024D01*
X0176284Y0186400D01*
X0182716Y0186400D01*
X0184436Y0187238D02*
X0298000Y0187238D01*
X0298000Y0188237D02*
X0185400Y0188237D01*
X0185814Y0189235D02*
X0298000Y0189235D01*
X0298000Y0190234D02*
X0186000Y0190234D01*
X0186000Y0191232D02*
X0298000Y0191232D01*
X0298000Y0192231D02*
X0185621Y0192231D01*
X0184969Y0193229D02*
X0298000Y0193229D01*
X0298000Y0194228D02*
X0183615Y0194228D01*
X0175385Y0194228D02*
X0153092Y0194228D01*
X0153038Y0194250D02*
X0152284Y0194400D01*
X0149800Y0194400D01*
X0149800Y0190800D01*
X0149200Y0190800D01*
X0149200Y0194400D01*
X0146716Y0194400D01*
X0145962Y0194250D01*
X0145253Y0193956D01*
X0144614Y0193529D01*
X0144071Y0192986D01*
X0143644Y0192347D01*
X0143350Y0191638D01*
X0143200Y0190884D01*
X0143200Y0190800D01*
X0149200Y0190800D01*
X0149200Y0190200D01*
X0149800Y0190200D01*
X0149800Y0190800D01*
X0155800Y0190800D01*
X0155800Y0190884D01*
X0155650Y0191638D01*
X0155356Y0192347D01*
X0154929Y0192986D01*
X0154386Y0193529D01*
X0153747Y0193956D01*
X0153038Y0194250D01*
X0154686Y0193229D02*
X0174031Y0193229D01*
X0173379Y0192231D02*
X0155405Y0192231D01*
X0155731Y0191232D02*
X0173000Y0191232D01*
X0173000Y0190234D02*
X0149800Y0190234D01*
X0149800Y0190200D02*
X0155800Y0190200D01*
X0155800Y0190116D01*
X0155650Y0189362D01*
X0155356Y0188653D01*
X0154929Y0188014D01*
X0154386Y0187471D01*
X0153747Y0187044D01*
X0153038Y0186750D01*
X0152284Y0186600D01*
X0149800Y0186600D01*
X0149800Y0190200D01*
X0149200Y0190200D02*
X0149200Y0186600D01*
X0146716Y0186600D01*
X0145962Y0186750D01*
X0145253Y0187044D01*
X0144614Y0187471D01*
X0144071Y0188014D01*
X0143644Y0188653D01*
X0143350Y0189362D01*
X0143200Y0190116D01*
X0143200Y0190200D01*
X0149200Y0190200D01*
X0149200Y0190234D02*
X0009000Y0190234D01*
X0009000Y0191232D02*
X0143269Y0191232D01*
X0143595Y0192231D02*
X0009000Y0192231D01*
X0009000Y0193229D02*
X0144314Y0193229D01*
X0145908Y0194228D02*
X0009000Y0194228D01*
X0009000Y0195226D02*
X0298000Y0195226D01*
X0298000Y0196225D02*
X0009000Y0196225D01*
X0009000Y0197223D02*
X0298000Y0197223D01*
X0298000Y0198222D02*
X0009000Y0198222D01*
X0009000Y0199220D02*
X0298000Y0199220D01*
X0298000Y0200219D02*
X0009000Y0200219D01*
X0009000Y0201217D02*
X0298000Y0201217D01*
X0298000Y0202216D02*
X0009000Y0202216D01*
X0009000Y0203214D02*
X0298000Y0203214D01*
X0298000Y0204213D02*
X0288431Y0204213D01*
X0289858Y0205211D02*
X0298000Y0205211D01*
X0298000Y0206210D02*
X0290639Y0206210D01*
X0291052Y0207208D02*
X0298000Y0207208D01*
X0298000Y0208207D02*
X0291200Y0208207D01*
X0291200Y0209205D02*
X0298000Y0209205D01*
X0298000Y0210204D02*
X0291200Y0210204D01*
X0291200Y0211202D02*
X0298000Y0211202D01*
X0298000Y0212201D02*
X0291200Y0212201D01*
X0291200Y0213199D02*
X0298000Y0213199D01*
X0298000Y0214198D02*
X0291200Y0214198D01*
X0291200Y0215196D02*
X0298000Y0215196D01*
X0298000Y0216195D02*
X0290885Y0216195D01*
X0290453Y0217193D02*
X0298000Y0217193D01*
X0298000Y0218192D02*
X0289455Y0218192D01*
X0283545Y0218192D02*
X0279455Y0218192D01*
X0280453Y0217193D02*
X0282547Y0217193D01*
X0282115Y0216195D02*
X0280885Y0216195D01*
X0281200Y0215196D02*
X0281800Y0215196D01*
X0281800Y0214198D02*
X0281200Y0214198D01*
X0281200Y0213199D02*
X0281800Y0213199D01*
X0281800Y0212201D02*
X0281200Y0212201D01*
X0281200Y0211202D02*
X0281800Y0211202D01*
X0281800Y0210204D02*
X0281200Y0210204D01*
X0281200Y0209205D02*
X0281800Y0209205D01*
X0281800Y0208207D02*
X0281200Y0208207D01*
X0281052Y0207208D02*
X0281948Y0207208D01*
X0282361Y0206210D02*
X0280639Y0206210D01*
X0279858Y0205211D02*
X0283142Y0205211D01*
X0284569Y0204213D02*
X0278431Y0204213D01*
X0274569Y0204213D02*
X0268431Y0204213D01*
X0269858Y0205211D02*
X0273142Y0205211D01*
X0272361Y0206210D02*
X0270639Y0206210D01*
X0271052Y0207208D02*
X0271948Y0207208D01*
X0271800Y0208207D02*
X0271200Y0208207D01*
X0271200Y0209205D02*
X0271800Y0209205D01*
X0271800Y0210204D02*
X0271200Y0210204D01*
X0271200Y0211202D02*
X0271800Y0211202D01*
X0271800Y0212201D02*
X0271200Y0212201D01*
X0271200Y0213199D02*
X0271800Y0213199D01*
X0271800Y0214198D02*
X0271200Y0214198D01*
X0271200Y0215196D02*
X0271800Y0215196D01*
X0272115Y0216195D02*
X0270885Y0216195D01*
X0270453Y0217193D02*
X0272547Y0217193D01*
X0273545Y0218192D02*
X0269455Y0218192D01*
X0263545Y0218192D02*
X0259455Y0218192D01*
X0260453Y0217193D02*
X0262547Y0217193D01*
X0262115Y0216195D02*
X0260885Y0216195D01*
X0261200Y0215196D02*
X0261800Y0215196D01*
X0261800Y0214198D02*
X0261200Y0214198D01*
X0261200Y0213199D02*
X0261800Y0213199D01*
X0261800Y0212201D02*
X0261200Y0212201D01*
X0261200Y0211202D02*
X0261800Y0211202D01*
X0261800Y0210204D02*
X0261200Y0210204D01*
X0261200Y0209205D02*
X0261800Y0209205D01*
X0261800Y0208207D02*
X0261200Y0208207D01*
X0261052Y0207208D02*
X0261948Y0207208D01*
X0262361Y0206210D02*
X0260639Y0206210D01*
X0259858Y0205211D02*
X0263142Y0205211D01*
X0264569Y0204213D02*
X0258431Y0204213D01*
X0254569Y0204213D02*
X0248431Y0204213D01*
X0249858Y0205211D02*
X0253142Y0205211D01*
X0252361Y0206210D02*
X0250639Y0206210D01*
X0251052Y0207208D02*
X0251948Y0207208D01*
X0251800Y0208207D02*
X0251200Y0208207D01*
X0251200Y0209205D02*
X0251800Y0209205D01*
X0251800Y0210204D02*
X0251200Y0210204D01*
X0251200Y0211202D02*
X0251800Y0211202D01*
X0251800Y0212201D02*
X0251200Y0212201D01*
X0251200Y0213199D02*
X0251800Y0213199D01*
X0251800Y0214198D02*
X0251200Y0214198D01*
X0251200Y0215196D02*
X0251800Y0215196D01*
X0252115Y0216195D02*
X0250885Y0216195D01*
X0250453Y0217193D02*
X0252547Y0217193D01*
X0253545Y0218192D02*
X0249455Y0218192D01*
X0243545Y0218192D02*
X0239455Y0218192D01*
X0240453Y0217193D02*
X0242547Y0217193D01*
X0242115Y0216195D02*
X0240885Y0216195D01*
X0241200Y0215196D02*
X0241800Y0215196D01*
X0241800Y0214198D02*
X0241200Y0214198D01*
X0241200Y0213199D02*
X0241800Y0213199D01*
X0241800Y0212201D02*
X0241200Y0212201D01*
X0241200Y0211202D02*
X0241800Y0211202D01*
X0241800Y0210204D02*
X0241200Y0210204D01*
X0241200Y0209205D02*
X0241800Y0209205D01*
X0241800Y0208207D02*
X0241200Y0208207D01*
X0241052Y0207208D02*
X0241948Y0207208D01*
X0242361Y0206210D02*
X0240639Y0206210D01*
X0239858Y0205211D02*
X0243142Y0205211D01*
X0244569Y0204213D02*
X0238431Y0204213D01*
X0234569Y0204213D02*
X0228431Y0204213D01*
X0229858Y0205211D02*
X0233142Y0205211D01*
X0232361Y0206210D02*
X0230639Y0206210D01*
X0231052Y0207208D02*
X0231948Y0207208D01*
X0231800Y0208207D02*
X0231200Y0208207D01*
X0231200Y0209205D02*
X0231800Y0209205D01*
X0231800Y0210204D02*
X0231200Y0210204D01*
X0231200Y0211202D02*
X0231800Y0211202D01*
X0231800Y0212201D02*
X0231200Y0212201D01*
X0231200Y0213199D02*
X0231800Y0213199D01*
X0231800Y0214198D02*
X0231200Y0214198D01*
X0231200Y0215196D02*
X0231800Y0215196D01*
X0232115Y0216195D02*
X0230885Y0216195D01*
X0230453Y0217193D02*
X0232547Y0217193D01*
X0233545Y0218192D02*
X0229455Y0218192D01*
X0223545Y0218192D02*
X0219455Y0218192D01*
X0220453Y0217193D02*
X0222547Y0217193D01*
X0222115Y0216195D02*
X0220885Y0216195D01*
X0221200Y0215196D02*
X0221800Y0215196D01*
X0221800Y0214198D02*
X0221200Y0214198D01*
X0221200Y0213199D02*
X0221800Y0213199D01*
X0221800Y0212201D02*
X0221200Y0212201D01*
X0221200Y0211202D02*
X0221800Y0211202D01*
X0221800Y0210204D02*
X0221200Y0210204D01*
X0221200Y0209205D02*
X0221800Y0209205D01*
X0221800Y0208207D02*
X0221200Y0208207D01*
X0221052Y0207208D02*
X0221948Y0207208D01*
X0222361Y0206210D02*
X0220639Y0206210D01*
X0219858Y0205211D02*
X0223142Y0205211D01*
X0224569Y0204213D02*
X0218431Y0204213D01*
X0214569Y0204213D02*
X0198431Y0204213D01*
X0199858Y0205211D02*
X0213142Y0205211D01*
X0212361Y0206210D02*
X0200639Y0206210D01*
X0201052Y0207208D02*
X0211948Y0207208D01*
X0211800Y0208207D02*
X0201200Y0208207D01*
X0201200Y0209205D02*
X0211800Y0209205D01*
X0211800Y0210204D02*
X0201200Y0210204D01*
X0201200Y0211202D02*
X0211800Y0211202D01*
X0211800Y0212201D02*
X0201200Y0212201D01*
X0201200Y0213199D02*
X0211800Y0213199D01*
X0211800Y0214198D02*
X0201200Y0214198D01*
X0201200Y0215196D02*
X0211800Y0215196D01*
X0212115Y0216195D02*
X0200885Y0216195D01*
X0200453Y0217193D02*
X0212547Y0217193D01*
X0213545Y0218192D02*
X0199455Y0218192D01*
X0193545Y0218192D02*
X0189455Y0218192D01*
X0190453Y0217193D02*
X0192547Y0217193D01*
X0192115Y0216195D02*
X0190885Y0216195D01*
X0191200Y0215196D02*
X0191800Y0215196D01*
X0191800Y0214198D02*
X0191200Y0214198D01*
X0191200Y0213199D02*
X0191800Y0213199D01*
X0191800Y0212201D02*
X0191200Y0212201D01*
X0191200Y0211202D02*
X0191800Y0211202D01*
X0191800Y0210204D02*
X0191200Y0210204D01*
X0191200Y0209205D02*
X0191800Y0209205D01*
X0191800Y0208207D02*
X0191200Y0208207D01*
X0191052Y0207208D02*
X0191948Y0207208D01*
X0192361Y0206210D02*
X0190639Y0206210D01*
X0189858Y0205211D02*
X0193142Y0205211D01*
X0194569Y0204213D02*
X0188431Y0204213D01*
X0184569Y0204213D02*
X0178431Y0204213D01*
X0179858Y0205211D02*
X0183142Y0205211D01*
X0182361Y0206210D02*
X0180639Y0206210D01*
X0181052Y0207208D02*
X0181948Y0207208D01*
X0181800Y0208207D02*
X0181200Y0208207D01*
X0181200Y0209205D02*
X0181800Y0209205D01*
X0181800Y0210204D02*
X0181200Y0210204D01*
X0181200Y0211202D02*
X0181800Y0211202D01*
X0181800Y0212201D02*
X0181200Y0212201D01*
X0181200Y0213199D02*
X0181800Y0213199D01*
X0181800Y0214198D02*
X0181200Y0214198D01*
X0181200Y0215196D02*
X0181800Y0215196D01*
X0182115Y0216195D02*
X0180885Y0216195D01*
X0180453Y0217193D02*
X0182547Y0217193D01*
X0183545Y0218192D02*
X0179455Y0218192D01*
X0173545Y0218192D02*
X0169455Y0218192D01*
X0170453Y0217193D02*
X0172547Y0217193D01*
X0172115Y0216195D02*
X0170885Y0216195D01*
X0171200Y0215196D02*
X0171800Y0215196D01*
X0171800Y0214198D02*
X0171200Y0214198D01*
X0171200Y0213199D02*
X0171800Y0213199D01*
X0171800Y0212201D02*
X0171200Y0212201D01*
X0171200Y0211202D02*
X0171800Y0211202D01*
X0171800Y0210204D02*
X0171200Y0210204D01*
X0171200Y0209205D02*
X0171800Y0209205D01*
X0171800Y0208207D02*
X0171200Y0208207D01*
X0171052Y0207208D02*
X0171948Y0207208D01*
X0172361Y0206210D02*
X0170639Y0206210D01*
X0169858Y0205211D02*
X0173142Y0205211D01*
X0174569Y0204213D02*
X0168431Y0204213D01*
X0164569Y0204213D02*
X0158431Y0204213D01*
X0159858Y0205211D02*
X0163142Y0205211D01*
X0162361Y0206210D02*
X0160639Y0206210D01*
X0161052Y0207208D02*
X0161948Y0207208D01*
X0161800Y0208207D02*
X0161200Y0208207D01*
X0161200Y0209205D02*
X0161800Y0209205D01*
X0161800Y0210204D02*
X0161200Y0210204D01*
X0161200Y0211202D02*
X0161800Y0211202D01*
X0161800Y0212201D02*
X0161200Y0212201D01*
X0161200Y0213199D02*
X0161800Y0213199D01*
X0161800Y0214198D02*
X0161200Y0214198D01*
X0161200Y0215196D02*
X0161800Y0215196D01*
X0162115Y0216195D02*
X0160885Y0216195D01*
X0160453Y0217193D02*
X0162547Y0217193D01*
X0163545Y0218192D02*
X0159455Y0218192D01*
X0153545Y0218192D02*
X0149455Y0218192D01*
X0150453Y0217193D02*
X0152547Y0217193D01*
X0152115Y0216195D02*
X0150885Y0216195D01*
X0151200Y0215196D02*
X0151800Y0215196D01*
X0151800Y0214198D02*
X0151200Y0214198D01*
X0151200Y0213199D02*
X0151800Y0213199D01*
X0151800Y0212201D02*
X0151200Y0212201D01*
X0151200Y0211202D02*
X0151800Y0211202D01*
X0151800Y0210204D02*
X0151200Y0210204D01*
X0151200Y0209205D02*
X0151800Y0209205D01*
X0151800Y0208207D02*
X0151200Y0208207D01*
X0151052Y0207208D02*
X0151948Y0207208D01*
X0152361Y0206210D02*
X0150639Y0206210D01*
X0149858Y0205211D02*
X0153142Y0205211D01*
X0154569Y0204213D02*
X0148431Y0204213D01*
X0144569Y0204213D02*
X0138431Y0204213D01*
X0139858Y0205211D02*
X0143142Y0205211D01*
X0142361Y0206210D02*
X0140639Y0206210D01*
X0141052Y0207208D02*
X0141948Y0207208D01*
X0141800Y0208207D02*
X0141200Y0208207D01*
X0141200Y0209205D02*
X0141800Y0209205D01*
X0141800Y0210204D02*
X0141200Y0210204D01*
X0141200Y0211202D02*
X0141800Y0211202D01*
X0141800Y0212201D02*
X0141200Y0212201D01*
X0141200Y0213199D02*
X0141800Y0213199D01*
X0141800Y0214198D02*
X0141200Y0214198D01*
X0141200Y0215196D02*
X0141800Y0215196D01*
X0142115Y0216195D02*
X0140885Y0216195D01*
X0140453Y0217193D02*
X0142547Y0217193D01*
X0143545Y0218192D02*
X0139455Y0218192D01*
X0133545Y0218192D02*
X0129455Y0218192D01*
X0130453Y0217193D02*
X0132547Y0217193D01*
X0132115Y0216195D02*
X0130885Y0216195D01*
X0131200Y0215196D02*
X0131800Y0215196D01*
X0131800Y0214198D02*
X0131200Y0214198D01*
X0131200Y0213199D02*
X0131800Y0213199D01*
X0131800Y0212201D02*
X0131200Y0212201D01*
X0131200Y0211202D02*
X0131800Y0211202D01*
X0131800Y0210204D02*
X0131200Y0210204D01*
X0131200Y0209205D02*
X0131800Y0209205D01*
X0131800Y0208207D02*
X0131200Y0208207D01*
X0131052Y0207208D02*
X0131948Y0207208D01*
X0132361Y0206210D02*
X0130639Y0206210D01*
X0129858Y0205211D02*
X0133142Y0205211D01*
X0134569Y0204213D02*
X0128431Y0204213D01*
X0124569Y0204213D02*
X0009000Y0204213D01*
X0009000Y0205211D02*
X0123142Y0205211D01*
X0122361Y0206210D02*
X0009000Y0206210D01*
X0009000Y0207208D02*
X0121948Y0207208D01*
X0121800Y0208207D02*
X0009000Y0208207D01*
X0009000Y0209205D02*
X0121800Y0209205D01*
X0121800Y0210204D02*
X0009000Y0210204D01*
X0009000Y0211202D02*
X0121800Y0211202D01*
X0121800Y0212201D02*
X0009000Y0212201D01*
X0009000Y0213199D02*
X0121800Y0213199D01*
X0121800Y0214198D02*
X0009000Y0214198D01*
X0009000Y0215196D02*
X0121800Y0215196D01*
X0122115Y0216195D02*
X0009000Y0216195D01*
X0009000Y0217193D02*
X0122547Y0217193D01*
X0123545Y0218192D02*
X0009000Y0218192D01*
X0009000Y0189235D02*
X0143403Y0189235D01*
X0143922Y0188237D02*
X0009000Y0188237D01*
X0009000Y0187238D02*
X0069465Y0187238D01*
X0070307Y0187587D02*
X0068101Y0186673D01*
X0066413Y0184985D01*
X0065500Y0182780D01*
X0065500Y0180393D01*
X0066413Y0178188D01*
X0068101Y0176500D01*
X0070307Y0175587D01*
X0072693Y0175587D01*
X0074899Y0176500D01*
X0076587Y0178188D01*
X0077500Y0180393D01*
X0077500Y0182780D01*
X0076587Y0184985D01*
X0074899Y0186673D01*
X0072693Y0187587D01*
X0070307Y0187587D01*
X0067668Y0186239D02*
X0009000Y0186239D01*
X0009000Y0185241D02*
X0066669Y0185241D01*
X0066106Y0184242D02*
X0009000Y0184242D01*
X0009000Y0183244D02*
X0065692Y0183244D01*
X0065500Y0182245D02*
X0009000Y0182245D01*
X0009000Y0181247D02*
X0065500Y0181247D01*
X0065560Y0180248D02*
X0009000Y0180248D01*
X0009000Y0179250D02*
X0065974Y0179250D01*
X0066387Y0178251D02*
X0009000Y0178251D01*
X0009000Y0177253D02*
X0067348Y0177253D01*
X0068694Y0176254D02*
X0009000Y0176254D01*
X0009000Y0175256D02*
X0298000Y0175256D01*
X0298000Y0176254D02*
X0074306Y0176254D01*
X0075652Y0177253D02*
X0144549Y0177253D01*
X0144778Y0177024D02*
X0146284Y0176400D01*
X0152716Y0176400D01*
X0154222Y0177024D01*
X0155376Y0178178D01*
X0156000Y0179684D01*
X0156000Y0181316D01*
X0155376Y0182822D01*
X0154222Y0183976D01*
X0152716Y0184600D01*
X0146284Y0184600D01*
X0144778Y0183976D01*
X0143624Y0182822D01*
X0143000Y0181316D01*
X0143000Y0179684D01*
X0143624Y0178178D01*
X0144778Y0177024D01*
X0143594Y0178251D02*
X0076613Y0178251D01*
X0077026Y0179250D02*
X0143180Y0179250D01*
X0143000Y0180248D02*
X0077440Y0180248D01*
X0077500Y0181247D02*
X0143000Y0181247D01*
X0143385Y0182245D02*
X0077500Y0182245D01*
X0077308Y0183244D02*
X0144046Y0183244D01*
X0145421Y0184242D02*
X0076894Y0184242D01*
X0076331Y0185241D02*
X0298000Y0185241D01*
X0298000Y0186239D02*
X0075332Y0186239D01*
X0073535Y0187238D02*
X0144962Y0187238D01*
X0149200Y0187238D02*
X0149800Y0187238D01*
X0149800Y0188237D02*
X0149200Y0188237D01*
X0149200Y0189235D02*
X0149800Y0189235D01*
X0149800Y0191232D02*
X0149200Y0191232D01*
X0149200Y0192231D02*
X0149800Y0192231D01*
X0149800Y0193229D02*
X0149200Y0193229D01*
X0149200Y0194228D02*
X0149800Y0194228D01*
X0155597Y0189235D02*
X0173186Y0189235D01*
X0173600Y0188237D02*
X0155078Y0188237D01*
X0154038Y0187238D02*
X0174564Y0187238D01*
X0175421Y0184242D02*
X0153579Y0184242D01*
X0154954Y0183244D02*
X0174046Y0183244D01*
X0173385Y0182245D02*
X0155615Y0182245D01*
X0156000Y0181247D02*
X0173000Y0181247D01*
X0173000Y0180248D02*
X0156000Y0180248D01*
X0155820Y0179250D02*
X0173180Y0179250D01*
X0173594Y0178251D02*
X0155406Y0178251D01*
X0154451Y0177253D02*
X0174549Y0177253D01*
X0175457Y0174257D02*
X0153543Y0174257D01*
X0154222Y0173976D02*
X0152716Y0174600D01*
X0146284Y0174600D01*
X0144778Y0173976D01*
X0143624Y0172822D01*
X0143000Y0171316D01*
X0143000Y0169684D01*
X0143624Y0168178D01*
X0144778Y0167024D01*
X0146284Y0166400D01*
X0152716Y0166400D01*
X0154222Y0167024D01*
X0155376Y0168178D01*
X0156000Y0169684D01*
X0156000Y0171316D01*
X0155376Y0172822D01*
X0154222Y0173976D01*
X0154939Y0173259D02*
X0174061Y0173259D01*
X0173391Y0172260D02*
X0155609Y0172260D01*
X0156000Y0171262D02*
X0173000Y0171262D01*
X0173000Y0170263D02*
X0156000Y0170263D01*
X0155826Y0169265D02*
X0173174Y0169265D01*
X0173587Y0168266D02*
X0155413Y0168266D01*
X0154466Y0167268D02*
X0174534Y0167268D01*
X0175493Y0164272D02*
X0153507Y0164272D01*
X0154222Y0163976D02*
X0152716Y0164600D01*
X0146284Y0164600D01*
X0144778Y0163976D01*
X0143624Y0162822D01*
X0143000Y0161316D01*
X0143000Y0159684D01*
X0143624Y0158178D01*
X0144778Y0157024D01*
X0146284Y0156400D01*
X0152716Y0156400D01*
X0154222Y0157024D01*
X0155376Y0158178D01*
X0156000Y0159684D01*
X0156000Y0161316D01*
X0155376Y0162822D01*
X0154222Y0163976D01*
X0154925Y0163274D02*
X0174075Y0163274D01*
X0173398Y0162275D02*
X0155602Y0162275D01*
X0156000Y0161277D02*
X0173000Y0161277D01*
X0173000Y0160278D02*
X0156000Y0160278D01*
X0155832Y0159280D02*
X0173168Y0159280D01*
X0173581Y0158281D02*
X0155419Y0158281D01*
X0154481Y0157283D02*
X0174519Y0157283D01*
X0184481Y0157283D02*
X0237682Y0157283D01*
X0238319Y0156284D02*
X0009000Y0156284D01*
X0009000Y0155286D02*
X0238319Y0155286D01*
X0238319Y0154287D02*
X0009000Y0154287D01*
X0009000Y0153289D02*
X0238345Y0153289D01*
X0210094Y0164272D02*
X0298000Y0164272D01*
X0298000Y0165271D02*
X0076944Y0165271D01*
X0076587Y0164408D02*
X0077500Y0166614D01*
X0077500Y0169001D01*
X0076587Y0171206D01*
X0074899Y0172894D01*
X0072693Y0173807D01*
X0070307Y0173807D01*
X0068101Y0172894D01*
X0066413Y0171206D01*
X0065500Y0169001D01*
X0065500Y0166614D01*
X0066413Y0164408D01*
X0068101Y0162721D01*
X0070307Y0161807D01*
X0072693Y0161807D01*
X0074899Y0162721D01*
X0076587Y0164408D01*
X0076450Y0164272D02*
X0145493Y0164272D01*
X0144075Y0163274D02*
X0075452Y0163274D01*
X0073824Y0162275D02*
X0143398Y0162275D01*
X0143000Y0161277D02*
X0009000Y0161277D01*
X0009000Y0162275D02*
X0069176Y0162275D01*
X0067548Y0163274D02*
X0009000Y0163274D01*
X0009000Y0164272D02*
X0066550Y0164272D01*
X0066056Y0165271D02*
X0009000Y0165271D01*
X0009000Y0166269D02*
X0065643Y0166269D01*
X0065500Y0167268D02*
X0009000Y0167268D01*
X0009000Y0168266D02*
X0065500Y0168266D01*
X0065609Y0169265D02*
X0009000Y0169265D01*
X0009000Y0170263D02*
X0066023Y0170263D01*
X0066469Y0171262D02*
X0009000Y0171262D01*
X0009000Y0172260D02*
X0067468Y0172260D01*
X0068983Y0173259D02*
X0009000Y0173259D01*
X0009000Y0174257D02*
X0145457Y0174257D01*
X0144061Y0173259D02*
X0074017Y0173259D01*
X0075532Y0172260D02*
X0143391Y0172260D01*
X0143000Y0171262D02*
X0076531Y0171262D01*
X0076977Y0170263D02*
X0143000Y0170263D01*
X0143174Y0169265D02*
X0077391Y0169265D01*
X0077500Y0168266D02*
X0143587Y0168266D01*
X0144534Y0167268D02*
X0077500Y0167268D01*
X0077357Y0166269D02*
X0298000Y0166269D01*
X0179800Y0062424D02*
X0179200Y0062424D01*
X0179200Y0061426D02*
X0179800Y0061426D01*
X0179800Y0060427D02*
X0179200Y0060427D01*
X0145878Y0057432D02*
X0078610Y0057432D01*
X0077205Y0056433D02*
X0144235Y0056433D01*
X0143463Y0055434D02*
X0009000Y0055434D01*
X0009000Y0054436D02*
X0143050Y0054436D01*
X0143000Y0053437D02*
X0009000Y0053437D01*
X0009000Y0052439D02*
X0143102Y0052439D01*
X0143515Y0051440D02*
X0009000Y0051440D01*
X0009000Y0050442D02*
X0144360Y0050442D01*
X0146180Y0049443D02*
X0009000Y0049443D01*
X0009000Y0056433D02*
X0071795Y0056433D01*
X0070390Y0057432D02*
X0009000Y0057432D01*
X0009000Y0058430D02*
X0069404Y0058430D01*
X0068991Y0059429D02*
X0009000Y0059429D01*
X0009000Y0060427D02*
X0068577Y0060427D01*
X0068500Y0061426D02*
X0009000Y0061426D01*
X0009000Y0062424D02*
X0068500Y0062424D01*
X0068675Y0063423D02*
X0009000Y0063423D01*
X0009000Y0064421D02*
X0069088Y0064421D01*
X0069627Y0065420D02*
X0009000Y0065420D01*
X0009000Y0066418D02*
X0070626Y0066418D01*
X0070191Y0071411D02*
X0009000Y0071411D01*
X0009000Y0072409D02*
X0069322Y0072409D01*
X0068908Y0073408D02*
X0009000Y0073408D01*
X0009000Y0074406D02*
X0068500Y0074406D01*
X0068500Y0075405D02*
X0009000Y0075405D01*
X0009000Y0076403D02*
X0068500Y0076403D01*
X0068758Y0077402D02*
X0009000Y0077402D01*
X0009000Y0078400D02*
X0069171Y0078400D01*
X0069827Y0079399D02*
X0009000Y0079399D01*
X0009000Y0080397D02*
X0070825Y0080397D01*
X0072846Y0081396D02*
X0009000Y0081396D01*
X0009000Y0082394D02*
X0143344Y0082394D01*
X0143815Y0081396D02*
X0076154Y0081396D01*
X0078175Y0080397D02*
X0144724Y0080397D01*
X0145806Y0077402D02*
X0080242Y0077402D01*
X0080500Y0076403D02*
X0144205Y0076403D01*
X0143451Y0075405D02*
X0080500Y0075405D01*
X0080500Y0074406D02*
X0143038Y0074406D01*
X0143000Y0073408D02*
X0080092Y0073408D01*
X0079678Y0072409D02*
X0143114Y0072409D01*
X0143528Y0071411D02*
X0078809Y0071411D01*
X0077687Y0070412D02*
X0144390Y0070412D01*
X0091800Y0021485D02*
X0091200Y0021485D01*
X0091200Y0020487D02*
X0091800Y0020487D01*
X0091800Y0019488D02*
X0091200Y0019488D01*
X0091200Y0018490D02*
X0091800Y0018490D01*
X0091831Y0017491D02*
X0091169Y0017491D01*
X0090756Y0016493D02*
X0092244Y0016493D01*
X0092859Y0015494D02*
X0090141Y0015494D01*
X0089114Y0014496D02*
X0093886Y0014496D01*
X0108553Y0014496D02*
X0113886Y0014496D01*
X0112859Y0015494D02*
X0109858Y0015494D01*
X0110528Y0016493D02*
X0112244Y0016493D01*
X0111831Y0017491D02*
X0110896Y0017491D01*
X0111000Y0018490D02*
X0111800Y0018490D01*
X0111800Y0019488D02*
X0111000Y0019488D01*
X0111000Y0020487D02*
X0111800Y0020487D01*
X0149200Y0133318D02*
X0149800Y0133318D01*
X0149800Y0134317D02*
X0149200Y0134317D01*
X0149200Y0135315D02*
X0149800Y0135315D01*
X0149800Y0137312D02*
X0149200Y0137312D01*
X0149200Y0138311D02*
X0149800Y0138311D01*
X0149800Y0139309D02*
X0149200Y0139309D01*
X0149200Y0140308D02*
X0149800Y0140308D01*
X0144519Y0157283D02*
X0009000Y0157283D01*
X0009000Y0158281D02*
X0143581Y0158281D01*
X0143168Y0159280D02*
X0009000Y0159280D01*
X0009000Y0160278D02*
X0143000Y0160278D01*
D16*
X0206500Y0161500D02*
X0237000Y0161500D01*
X0242500Y0156000D01*
X0242000Y0156000D01*
M02*
