G75*
%MOIN*%
%OFA0B0*%
%FSLAX25Y25*%
%IPPOS*%
%LPD*%
%AMOC8*
5,1,8,0,0,1.08239X$1,22.5*
%
%ADD10C,0.00512*%
%ADD11C,0.00600*%
%ADD12C,0.06400*%
%ADD13C,0.05600*%
%ADD14C,0.08600*%
%ADD15C,0.03200*%
%ADD16C,0.01000*%
%ADD17R,0.04362X0.04362*%
D10*
X0001256Y0245823D02*
X0001256Y0258500D01*
X0001512Y0253500D02*
X0011492Y0252476D01*
X0011492Y0252243D02*
X0001512Y0253500D01*
X0011492Y0254524D01*
X0011492Y0254757D02*
X0011492Y0252243D01*
X0011492Y0252988D02*
X0001512Y0253500D01*
X0011492Y0254012D01*
X0011492Y0254757D02*
X0001512Y0253500D01*
X0296000Y0253500D01*
X0286020Y0252476D01*
X0286020Y0252243D02*
X0296000Y0253500D01*
X0286020Y0254524D01*
X0286020Y0254757D02*
X0286020Y0252243D01*
X0286020Y0252988D02*
X0296000Y0253500D01*
X0286020Y0254012D01*
X0286020Y0254757D02*
X0296000Y0253500D01*
X0296256Y0258500D02*
X0296256Y0245823D01*
D11*
X0158172Y0256062D02*
X0153902Y0260332D01*
X0153902Y0261400D01*
X0154970Y0262467D01*
X0157105Y0262467D01*
X0158172Y0261400D01*
X0158172Y0256062D02*
X0153902Y0256062D01*
X0151727Y0256062D02*
X0150659Y0256062D01*
X0150659Y0257129D01*
X0151727Y0257129D01*
X0151727Y0256062D01*
X0148504Y0257129D02*
X0147437Y0256062D01*
X0145301Y0256062D01*
X0144234Y0257129D01*
X0144234Y0261400D01*
X0145301Y0262467D01*
X0147437Y0262467D01*
X0148504Y0261400D01*
X0148504Y0260332D01*
X0147437Y0259265D01*
X0144234Y0259265D01*
X0142059Y0259265D02*
X0139924Y0260332D01*
X0138856Y0260332D01*
X0137788Y0259265D01*
X0137788Y0257129D01*
X0138856Y0256062D01*
X0140991Y0256062D01*
X0142059Y0257129D01*
X0142059Y0259265D02*
X0142059Y0262467D01*
X0137788Y0262467D01*
D12*
X0141256Y0211700D02*
X0141256Y0205300D01*
X0151256Y0205300D02*
X0151256Y0211700D01*
X0161256Y0211700D02*
X0161256Y0205300D01*
X0171256Y0205300D02*
X0171256Y0211700D01*
X0181256Y0211700D02*
X0181256Y0205300D01*
X0191256Y0205300D02*
X0191256Y0211700D01*
X0201256Y0211700D02*
X0201256Y0205300D01*
X0221256Y0205300D02*
X0221256Y0211700D01*
X0231256Y0211700D02*
X0231256Y0205300D01*
X0241256Y0205300D02*
X0241256Y0211700D01*
X0251256Y0211700D02*
X0251256Y0205300D01*
X0261256Y0205300D02*
X0261256Y0211700D01*
X0271256Y0211700D02*
X0271256Y0205300D01*
X0281256Y0205300D02*
X0281256Y0211700D01*
X0291256Y0211700D02*
X0291256Y0205300D01*
X0131256Y0205300D02*
X0131256Y0211700D01*
X0131256Y0021700D02*
X0131256Y0015300D01*
X0121256Y0015300D02*
X0121256Y0021700D01*
X0111256Y0021700D02*
X0111256Y0015300D01*
X0101256Y0015300D02*
X0101256Y0021700D01*
X0091256Y0021700D02*
X0091256Y0015300D01*
X0081256Y0015300D02*
X0081256Y0021700D01*
X0071256Y0021700D02*
X0071256Y0015300D01*
X0061256Y0015300D02*
X0061256Y0021700D01*
X0151256Y0021700D02*
X0151256Y0015300D01*
X0161256Y0015300D02*
X0161256Y0021700D01*
X0171256Y0021700D02*
X0171256Y0015300D01*
X0181256Y0015300D02*
X0181256Y0021700D01*
X0191256Y0021700D02*
X0191256Y0015300D01*
X0201256Y0015300D02*
X0201256Y0021700D01*
X0211256Y0021700D02*
X0211256Y0015300D01*
X0221256Y0015300D02*
X0221256Y0021700D01*
D13*
X0226456Y0050500D02*
X0232056Y0050500D01*
X0232056Y0060500D02*
X0226456Y0060500D01*
X0226456Y0070500D02*
X0232056Y0070500D01*
X0232056Y0080500D02*
X0226456Y0080500D01*
X0226456Y0103500D02*
X0232056Y0103500D01*
X0232056Y0113500D02*
X0226456Y0113500D01*
X0226456Y0123500D02*
X0232056Y0123500D01*
X0232056Y0133500D02*
X0226456Y0133500D01*
X0226456Y0157500D02*
X0232056Y0157500D01*
X0232056Y0167500D02*
X0226456Y0167500D01*
X0226456Y0177500D02*
X0232056Y0177500D01*
X0232056Y0187500D02*
X0226456Y0187500D01*
X0256456Y0187500D02*
X0262056Y0187500D01*
X0262056Y0177500D02*
X0256456Y0177500D01*
X0256456Y0167500D02*
X0262056Y0167500D01*
X0262056Y0157500D02*
X0256456Y0157500D01*
X0256456Y0133500D02*
X0262056Y0133500D01*
X0262056Y0123500D02*
X0256456Y0123500D01*
X0256456Y0113500D02*
X0262056Y0113500D01*
X0262056Y0103500D02*
X0256456Y0103500D01*
X0256456Y0080500D02*
X0262056Y0080500D01*
X0262056Y0070500D02*
X0256456Y0070500D01*
X0256456Y0060500D02*
X0262056Y0060500D01*
X0262056Y0050500D02*
X0256456Y0050500D01*
D14*
X0174256Y0058807D03*
X0174256Y0072587D03*
X0174256Y0111807D03*
X0174256Y0125587D03*
X0171256Y0164807D03*
X0171256Y0178587D03*
X0042949Y0033500D03*
X0029169Y0033500D03*
D15*
X0101256Y0018500D02*
X0101256Y0017500D01*
D16*
X0012956Y0010200D02*
X0012956Y0216761D01*
X0303257Y0216761D01*
X0303257Y0010200D01*
X0012956Y0010200D01*
X0012956Y0010497D02*
X0060047Y0010497D01*
X0060281Y0010400D02*
X0062231Y0010400D01*
X0064032Y0011146D01*
X0065410Y0012524D01*
X0066156Y0014325D01*
X0066156Y0022675D01*
X0065410Y0024476D01*
X0064032Y0025854D01*
X0062231Y0026600D01*
X0060281Y0026600D01*
X0058480Y0025854D01*
X0057102Y0024476D01*
X0056356Y0022675D01*
X0056356Y0014325D01*
X0057102Y0012524D01*
X0058480Y0011146D01*
X0060281Y0010400D01*
X0062465Y0010497D02*
X0070047Y0010497D01*
X0070281Y0010400D02*
X0072231Y0010400D01*
X0074032Y0011146D01*
X0075410Y0012524D01*
X0076156Y0014325D01*
X0076156Y0022675D01*
X0075410Y0024476D01*
X0074032Y0025854D01*
X0072231Y0026600D01*
X0070281Y0026600D01*
X0068480Y0025854D01*
X0067102Y0024476D01*
X0066356Y0022675D01*
X0066356Y0014325D01*
X0067102Y0012524D01*
X0068480Y0011146D01*
X0070281Y0010400D01*
X0072465Y0010497D02*
X0080047Y0010497D01*
X0080281Y0010400D02*
X0082231Y0010400D01*
X0084032Y0011146D01*
X0085410Y0012524D01*
X0086156Y0014325D01*
X0086156Y0022675D01*
X0085410Y0024476D01*
X0084032Y0025854D01*
X0082231Y0026600D01*
X0080281Y0026600D01*
X0078480Y0025854D01*
X0077102Y0024476D01*
X0076356Y0022675D01*
X0076356Y0014325D01*
X0077102Y0012524D01*
X0078480Y0011146D01*
X0080281Y0010400D01*
X0082465Y0010497D02*
X0090047Y0010497D01*
X0090281Y0010400D02*
X0092231Y0010400D01*
X0094032Y0011146D01*
X0095410Y0012524D01*
X0096156Y0014325D01*
X0096156Y0022675D01*
X0095410Y0024476D01*
X0094032Y0025854D01*
X0092231Y0026600D01*
X0090281Y0026600D01*
X0088480Y0025854D01*
X0087102Y0024476D01*
X0086356Y0022675D01*
X0086356Y0014325D01*
X0087102Y0012524D01*
X0088480Y0011146D01*
X0090281Y0010400D01*
X0092465Y0010497D02*
X0100047Y0010497D01*
X0100281Y0010400D02*
X0102231Y0010400D01*
X0104032Y0011146D01*
X0105410Y0012524D01*
X0106156Y0014325D01*
X0106156Y0022675D01*
X0105410Y0024476D01*
X0104032Y0025854D01*
X0102231Y0026600D01*
X0100281Y0026600D01*
X0098480Y0025854D01*
X0097102Y0024476D01*
X0096356Y0022675D01*
X0096356Y0014325D01*
X0097102Y0012524D01*
X0098480Y0011146D01*
X0100281Y0010400D01*
X0102465Y0010497D02*
X0120047Y0010497D01*
X0120281Y0010400D02*
X0122231Y0010400D01*
X0124032Y0011146D01*
X0125410Y0012524D01*
X0126156Y0014325D01*
X0126156Y0022675D01*
X0125410Y0024476D01*
X0124032Y0025854D01*
X0122231Y0026600D01*
X0120281Y0026600D01*
X0118480Y0025854D01*
X0117102Y0024476D01*
X0116356Y0022675D01*
X0116356Y0014325D01*
X0117102Y0012524D01*
X0118480Y0011146D01*
X0120281Y0010400D01*
X0122465Y0010497D02*
X0130047Y0010497D01*
X0130281Y0010400D02*
X0132231Y0010400D01*
X0134032Y0011146D01*
X0135410Y0012524D01*
X0136156Y0014325D01*
X0136156Y0022675D01*
X0135410Y0024476D01*
X0134032Y0025854D01*
X0132231Y0026600D01*
X0130281Y0026600D01*
X0128480Y0025854D01*
X0127102Y0024476D01*
X0126356Y0022675D01*
X0126356Y0014325D01*
X0127102Y0012524D01*
X0128480Y0011146D01*
X0130281Y0010400D01*
X0132465Y0010497D02*
X0150047Y0010497D01*
X0150281Y0010400D02*
X0152231Y0010400D01*
X0154032Y0011146D01*
X0155410Y0012524D01*
X0156156Y0014325D01*
X0156156Y0022675D01*
X0155410Y0024476D01*
X0154032Y0025854D01*
X0152231Y0026600D01*
X0150281Y0026600D01*
X0148480Y0025854D01*
X0147102Y0024476D01*
X0146356Y0022675D01*
X0146356Y0014325D01*
X0147102Y0012524D01*
X0148480Y0011146D01*
X0150281Y0010400D01*
X0152465Y0010497D02*
X0160047Y0010497D01*
X0160281Y0010400D02*
X0162231Y0010400D01*
X0164032Y0011146D01*
X0165410Y0012524D01*
X0166156Y0014325D01*
X0166156Y0022675D01*
X0165410Y0024476D01*
X0164032Y0025854D01*
X0162231Y0026600D01*
X0160281Y0026600D01*
X0158480Y0025854D01*
X0157102Y0024476D01*
X0156356Y0022675D01*
X0156356Y0014325D01*
X0157102Y0012524D01*
X0158480Y0011146D01*
X0160281Y0010400D01*
X0162465Y0010497D02*
X0170047Y0010497D01*
X0170281Y0010400D02*
X0172231Y0010400D01*
X0174032Y0011146D01*
X0175410Y0012524D01*
X0176156Y0014325D01*
X0176156Y0022675D01*
X0175410Y0024476D01*
X0174032Y0025854D01*
X0172231Y0026600D01*
X0170281Y0026600D01*
X0168480Y0025854D01*
X0167102Y0024476D01*
X0166356Y0022675D01*
X0166356Y0014325D01*
X0167102Y0012524D01*
X0168480Y0011146D01*
X0170281Y0010400D01*
X0172465Y0010497D02*
X0180047Y0010497D01*
X0180281Y0010400D02*
X0182231Y0010400D01*
X0184032Y0011146D01*
X0185410Y0012524D01*
X0186156Y0014325D01*
X0186156Y0022675D01*
X0185410Y0024476D01*
X0184032Y0025854D01*
X0182231Y0026600D01*
X0180281Y0026600D01*
X0178480Y0025854D01*
X0177102Y0024476D01*
X0176356Y0022675D01*
X0176356Y0014325D01*
X0177102Y0012524D01*
X0178480Y0011146D01*
X0180281Y0010400D01*
X0182465Y0010497D02*
X0190047Y0010497D01*
X0190281Y0010400D02*
X0192231Y0010400D01*
X0194032Y0011146D01*
X0195410Y0012524D01*
X0196156Y0014325D01*
X0196156Y0022675D01*
X0195410Y0024476D01*
X0194032Y0025854D01*
X0192231Y0026600D01*
X0190281Y0026600D01*
X0188480Y0025854D01*
X0187102Y0024476D01*
X0186356Y0022675D01*
X0186356Y0014325D01*
X0187102Y0012524D01*
X0188480Y0011146D01*
X0190281Y0010400D01*
X0192465Y0010497D02*
X0200047Y0010497D01*
X0200281Y0010400D02*
X0202231Y0010400D01*
X0204032Y0011146D01*
X0205410Y0012524D01*
X0206156Y0014325D01*
X0206156Y0022675D01*
X0205410Y0024476D01*
X0204032Y0025854D01*
X0202231Y0026600D01*
X0200281Y0026600D01*
X0198480Y0025854D01*
X0197102Y0024476D01*
X0196356Y0022675D01*
X0196356Y0014325D01*
X0197102Y0012524D01*
X0198480Y0011146D01*
X0200281Y0010400D01*
X0202465Y0010497D02*
X0210047Y0010497D01*
X0210281Y0010400D02*
X0208480Y0011146D01*
X0207102Y0012524D01*
X0206356Y0014325D01*
X0206356Y0022675D01*
X0207102Y0024476D01*
X0208480Y0025854D01*
X0210281Y0026600D01*
X0212231Y0026600D01*
X0214032Y0025854D01*
X0215410Y0024476D01*
X0216156Y0022675D01*
X0216156Y0014325D01*
X0215410Y0012524D01*
X0214032Y0011146D01*
X0212231Y0010400D01*
X0210281Y0010400D01*
X0212465Y0010497D02*
X0220047Y0010497D01*
X0220281Y0010400D02*
X0222231Y0010400D01*
X0224032Y0011146D01*
X0225410Y0012524D01*
X0226156Y0014325D01*
X0226156Y0022675D01*
X0225410Y0024476D01*
X0224032Y0025854D01*
X0222231Y0026600D01*
X0220281Y0026600D01*
X0218480Y0025854D01*
X0217102Y0024476D01*
X0216356Y0022675D01*
X0216356Y0014325D01*
X0217102Y0012524D01*
X0218480Y0011146D01*
X0220281Y0010400D01*
X0222465Y0010497D02*
X0303257Y0010497D01*
X0303257Y0011496D02*
X0224381Y0011496D01*
X0225380Y0012494D02*
X0303257Y0012494D01*
X0303257Y0013493D02*
X0225811Y0013493D01*
X0226156Y0014491D02*
X0303257Y0014491D01*
X0303257Y0015490D02*
X0226156Y0015490D01*
X0226156Y0016488D02*
X0303257Y0016488D01*
X0303257Y0017487D02*
X0226156Y0017487D01*
X0226156Y0018485D02*
X0303257Y0018485D01*
X0303257Y0019484D02*
X0226156Y0019484D01*
X0226156Y0020482D02*
X0303257Y0020482D01*
X0303257Y0021481D02*
X0226156Y0021481D01*
X0226156Y0022479D02*
X0303257Y0022479D01*
X0303257Y0023478D02*
X0225823Y0023478D01*
X0225409Y0024476D02*
X0303257Y0024476D01*
X0303257Y0025475D02*
X0224411Y0025475D01*
X0222537Y0026473D02*
X0303257Y0026473D01*
X0303257Y0027472D02*
X0012956Y0027472D01*
X0012956Y0028470D02*
X0026265Y0028470D01*
X0026129Y0028539D02*
X0026943Y0028125D01*
X0027811Y0027843D01*
X0028685Y0027704D01*
X0028685Y0033016D01*
X0023374Y0033016D01*
X0023512Y0032142D01*
X0023794Y0031274D01*
X0024209Y0030460D01*
X0024745Y0029722D01*
X0025391Y0029076D01*
X0026129Y0028539D01*
X0024998Y0029469D02*
X0012956Y0029469D01*
X0012956Y0030467D02*
X0024205Y0030467D01*
X0023732Y0031466D02*
X0012956Y0031466D01*
X0012956Y0032464D02*
X0023461Y0032464D01*
X0023374Y0033984D02*
X0028685Y0033984D01*
X0028685Y0033016D01*
X0029654Y0033016D01*
X0029654Y0033984D01*
X0034965Y0033984D01*
X0034826Y0034858D01*
X0034544Y0035726D01*
X0034130Y0036540D01*
X0033593Y0037278D01*
X0032948Y0037924D01*
X0032209Y0038461D01*
X0031396Y0038875D01*
X0030527Y0039157D01*
X0029654Y0039296D01*
X0029654Y0033984D01*
X0028685Y0033984D01*
X0028685Y0039296D01*
X0027811Y0039157D01*
X0026943Y0038875D01*
X0026129Y0038461D01*
X0025391Y0037924D01*
X0024745Y0037278D01*
X0024209Y0036540D01*
X0023794Y0035726D01*
X0023512Y0034858D01*
X0023374Y0033984D01*
X0023449Y0034461D02*
X0012956Y0034461D01*
X0012956Y0033463D02*
X0028685Y0033463D01*
X0029654Y0033463D02*
X0042464Y0033463D01*
X0042464Y0033016D02*
X0037153Y0033016D01*
X0037292Y0032142D01*
X0037574Y0031274D01*
X0037988Y0030460D01*
X0038525Y0029722D01*
X0039170Y0029076D01*
X0039909Y0028539D01*
X0040722Y0028125D01*
X0041591Y0027843D01*
X0042465Y0027704D01*
X0042465Y0033016D01*
X0043433Y0033016D01*
X0043433Y0033984D01*
X0048744Y0033984D01*
X0048606Y0034858D01*
X0048324Y0035726D01*
X0047909Y0036540D01*
X0047373Y0037278D01*
X0046727Y0037924D01*
X0045989Y0038461D01*
X0045175Y0038875D01*
X0044307Y0039157D01*
X0043433Y0039296D01*
X0043433Y0033984D01*
X0042465Y0033984D01*
X0042465Y0039296D01*
X0041591Y0039157D01*
X0040722Y0038875D01*
X0039909Y0038461D01*
X0039170Y0037924D01*
X0038525Y0037278D01*
X0037988Y0036540D01*
X0037574Y0035726D01*
X0037292Y0034858D01*
X0037153Y0033984D01*
X0042464Y0033984D01*
X0042464Y0033016D01*
X0042465Y0032464D02*
X0043433Y0032464D01*
X0043433Y0033016D02*
X0043433Y0027704D01*
X0044307Y0027843D01*
X0045175Y0028125D01*
X0045989Y0028539D01*
X0046727Y0029076D01*
X0047373Y0029722D01*
X0047909Y0030460D01*
X0048324Y0031274D01*
X0048606Y0032142D01*
X0048744Y0033016D01*
X0043433Y0033016D01*
X0043433Y0033463D02*
X0303257Y0033463D01*
X0303257Y0034461D02*
X0048669Y0034461D01*
X0048411Y0035460D02*
X0303257Y0035460D01*
X0303257Y0036458D02*
X0047951Y0036458D01*
X0047194Y0037457D02*
X0303257Y0037457D01*
X0303257Y0038455D02*
X0045996Y0038455D01*
X0043433Y0038455D02*
X0042465Y0038455D01*
X0042465Y0037457D02*
X0043433Y0037457D01*
X0043433Y0036458D02*
X0042465Y0036458D01*
X0042465Y0035460D02*
X0043433Y0035460D01*
X0043433Y0034461D02*
X0042465Y0034461D01*
X0042465Y0031466D02*
X0043433Y0031466D01*
X0043433Y0030467D02*
X0042465Y0030467D01*
X0042465Y0029469D02*
X0043433Y0029469D01*
X0043433Y0028470D02*
X0042465Y0028470D01*
X0040045Y0028470D02*
X0032073Y0028470D01*
X0032209Y0028539D02*
X0032948Y0029076D01*
X0033593Y0029722D01*
X0034130Y0030460D01*
X0034544Y0031274D01*
X0034826Y0032142D01*
X0034965Y0033016D01*
X0029654Y0033016D01*
X0029654Y0027704D01*
X0030527Y0027843D01*
X0031396Y0028125D01*
X0032209Y0028539D01*
X0033340Y0029469D02*
X0038778Y0029469D01*
X0037985Y0030467D02*
X0034134Y0030467D01*
X0034607Y0031466D02*
X0037511Y0031466D01*
X0037241Y0032464D02*
X0034878Y0032464D01*
X0034889Y0034461D02*
X0037229Y0034461D01*
X0037487Y0035460D02*
X0034631Y0035460D01*
X0034171Y0036458D02*
X0037947Y0036458D01*
X0038703Y0037457D02*
X0033415Y0037457D01*
X0032216Y0038455D02*
X0039902Y0038455D01*
X0029654Y0038455D02*
X0028685Y0038455D01*
X0028685Y0037457D02*
X0029654Y0037457D01*
X0029654Y0036458D02*
X0028685Y0036458D01*
X0028685Y0035460D02*
X0029654Y0035460D01*
X0029654Y0034461D02*
X0028685Y0034461D01*
X0028685Y0032464D02*
X0029654Y0032464D01*
X0029654Y0031466D02*
X0028685Y0031466D01*
X0028685Y0030467D02*
X0029654Y0030467D01*
X0029654Y0029469D02*
X0028685Y0029469D01*
X0028685Y0028470D02*
X0029654Y0028470D01*
X0023708Y0035460D02*
X0012956Y0035460D01*
X0012956Y0036458D02*
X0024167Y0036458D01*
X0024924Y0037457D02*
X0012956Y0037457D01*
X0012956Y0038455D02*
X0026122Y0038455D01*
X0012956Y0039454D02*
X0303257Y0039454D01*
X0303257Y0040452D02*
X0012956Y0040452D01*
X0012956Y0041451D02*
X0303257Y0041451D01*
X0303257Y0042449D02*
X0012956Y0042449D01*
X0012956Y0043448D02*
X0303257Y0043448D01*
X0303257Y0044446D02*
X0012956Y0044446D01*
X0012956Y0045445D02*
X0303257Y0045445D01*
X0303257Y0046443D02*
X0264022Y0046443D01*
X0264605Y0046685D02*
X0265871Y0047951D01*
X0266556Y0049605D01*
X0266556Y0051395D01*
X0265871Y0053049D01*
X0264605Y0054315D01*
X0262951Y0055000D01*
X0255561Y0055000D01*
X0253907Y0054315D01*
X0252641Y0053049D01*
X0251956Y0051395D01*
X0251956Y0049605D01*
X0252641Y0047951D01*
X0253907Y0046685D01*
X0255561Y0046000D01*
X0262951Y0046000D01*
X0264605Y0046685D01*
X0265362Y0047442D02*
X0303257Y0047442D01*
X0303257Y0048440D02*
X0266074Y0048440D01*
X0266487Y0049439D02*
X0303257Y0049439D01*
X0303257Y0050437D02*
X0266556Y0050437D01*
X0266539Y0051436D02*
X0303257Y0051436D01*
X0303257Y0052434D02*
X0266125Y0052434D01*
X0265487Y0053433D02*
X0303257Y0053433D01*
X0303257Y0054432D02*
X0264323Y0054432D01*
X0263707Y0056515D02*
X0263063Y0056306D01*
X0262394Y0056200D01*
X0259556Y0056200D01*
X0259556Y0060200D01*
X0259556Y0060800D01*
X0266356Y0060800D01*
X0266356Y0060838D01*
X0266250Y0061507D01*
X0266041Y0062151D01*
X0265734Y0062754D01*
X0265336Y0063301D01*
X0264857Y0063780D01*
X0264310Y0064178D01*
X0263707Y0064485D01*
X0263063Y0064694D01*
X0262394Y0064800D01*
X0259556Y0064800D01*
X0259556Y0060800D01*
X0258956Y0060800D01*
X0258956Y0064800D01*
X0256117Y0064800D01*
X0255449Y0064694D01*
X0254805Y0064485D01*
X0254202Y0064178D01*
X0253655Y0063780D01*
X0253176Y0063301D01*
X0252778Y0062754D01*
X0252471Y0062151D01*
X0252262Y0061507D01*
X0252156Y0060838D01*
X0252156Y0060800D01*
X0258956Y0060800D01*
X0258956Y0060200D01*
X0259556Y0060200D01*
X0266356Y0060200D01*
X0266356Y0060162D01*
X0266250Y0059493D01*
X0266041Y0058849D01*
X0265734Y0058246D01*
X0265336Y0057699D01*
X0264857Y0057220D01*
X0264310Y0056822D01*
X0263707Y0056515D01*
X0263440Y0056429D02*
X0303257Y0056429D01*
X0303257Y0057427D02*
X0265064Y0057427D01*
X0265825Y0058426D02*
X0303257Y0058426D01*
X0303257Y0059424D02*
X0266228Y0059424D01*
X0266264Y0061421D02*
X0303257Y0061421D01*
X0303257Y0060423D02*
X0259556Y0060423D01*
X0258956Y0060423D02*
X0236556Y0060423D01*
X0236556Y0059605D02*
X0236556Y0061395D01*
X0235871Y0063049D01*
X0234605Y0064315D01*
X0232951Y0065000D01*
X0225561Y0065000D01*
X0223907Y0064315D01*
X0222641Y0063049D01*
X0221956Y0061395D01*
X0221956Y0059605D01*
X0222641Y0057951D01*
X0223907Y0056685D01*
X0225561Y0056000D01*
X0232951Y0056000D01*
X0234605Y0056685D01*
X0235871Y0057951D01*
X0236556Y0059605D01*
X0236481Y0059424D02*
X0252284Y0059424D01*
X0252262Y0059493D02*
X0252471Y0058849D01*
X0252778Y0058246D01*
X0253176Y0057699D01*
X0253655Y0057220D01*
X0254202Y0056822D01*
X0254805Y0056515D01*
X0255449Y0056306D01*
X0256117Y0056200D01*
X0258956Y0056200D01*
X0258956Y0060200D01*
X0252156Y0060200D01*
X0252156Y0060162D01*
X0252262Y0059493D01*
X0252687Y0058426D02*
X0236067Y0058426D01*
X0235347Y0057427D02*
X0253448Y0057427D01*
X0255071Y0056429D02*
X0233986Y0056429D01*
X0232951Y0055000D02*
X0225561Y0055000D01*
X0223907Y0054315D01*
X0222641Y0053049D01*
X0221956Y0051395D01*
X0221956Y0049605D01*
X0222641Y0047951D01*
X0223907Y0046685D01*
X0225561Y0046000D01*
X0232951Y0046000D01*
X0234605Y0046685D01*
X0235871Y0047951D01*
X0236556Y0049605D01*
X0236556Y0051395D01*
X0235871Y0053049D01*
X0234605Y0054315D01*
X0232951Y0055000D01*
X0234323Y0054432D02*
X0254188Y0054432D01*
X0253025Y0053433D02*
X0235487Y0053433D01*
X0236125Y0052434D02*
X0252386Y0052434D01*
X0251973Y0051436D02*
X0236539Y0051436D01*
X0236556Y0050437D02*
X0251956Y0050437D01*
X0252025Y0049439D02*
X0236487Y0049439D01*
X0236074Y0048440D02*
X0252438Y0048440D01*
X0253150Y0047442D02*
X0235362Y0047442D01*
X0234022Y0046443D02*
X0254490Y0046443D01*
X0258956Y0056429D02*
X0259556Y0056429D01*
X0259556Y0057427D02*
X0258956Y0057427D01*
X0258956Y0058426D02*
X0259556Y0058426D01*
X0259556Y0059424D02*
X0258956Y0059424D01*
X0258956Y0061421D02*
X0259556Y0061421D01*
X0259556Y0062420D02*
X0258956Y0062420D01*
X0258956Y0063418D02*
X0259556Y0063418D01*
X0259556Y0064417D02*
X0258956Y0064417D01*
X0258956Y0066200D02*
X0258956Y0070200D01*
X0259556Y0070200D01*
X0259556Y0070800D01*
X0266356Y0070800D01*
X0266356Y0070838D01*
X0266250Y0071507D01*
X0266041Y0072151D01*
X0265734Y0072754D01*
X0265336Y0073301D01*
X0264857Y0073780D01*
X0264310Y0074178D01*
X0263707Y0074485D01*
X0263063Y0074694D01*
X0262394Y0074800D01*
X0259556Y0074800D01*
X0259556Y0070800D01*
X0258956Y0070800D01*
X0258956Y0074800D01*
X0256117Y0074800D01*
X0255449Y0074694D01*
X0254805Y0074485D01*
X0254202Y0074178D01*
X0253655Y0073780D01*
X0253176Y0073301D01*
X0252778Y0072754D01*
X0252471Y0072151D01*
X0252262Y0071507D01*
X0252156Y0070838D01*
X0252156Y0070800D01*
X0258956Y0070800D01*
X0258956Y0070200D01*
X0252156Y0070200D01*
X0252156Y0070162D01*
X0252262Y0069493D01*
X0252471Y0068849D01*
X0252778Y0068246D01*
X0253176Y0067699D01*
X0253655Y0067220D01*
X0254202Y0066822D01*
X0254805Y0066515D01*
X0255449Y0066306D01*
X0256117Y0066200D01*
X0258956Y0066200D01*
X0258956Y0066414D02*
X0259556Y0066414D01*
X0259556Y0066200D02*
X0262394Y0066200D01*
X0263063Y0066306D01*
X0263707Y0066515D01*
X0264310Y0066822D01*
X0264857Y0067220D01*
X0265336Y0067699D01*
X0265734Y0068246D01*
X0266041Y0068849D01*
X0266250Y0069493D01*
X0266356Y0070162D01*
X0266356Y0070200D01*
X0259556Y0070200D01*
X0259556Y0066200D01*
X0259556Y0067412D02*
X0258956Y0067412D01*
X0258956Y0068411D02*
X0259556Y0068411D01*
X0259556Y0069409D02*
X0258956Y0069409D01*
X0258956Y0070408D02*
X0236556Y0070408D01*
X0236556Y0069605D02*
X0236556Y0071395D01*
X0235871Y0073049D01*
X0234605Y0074315D01*
X0232951Y0075000D01*
X0225561Y0075000D01*
X0223907Y0074315D01*
X0222641Y0073049D01*
X0221956Y0071395D01*
X0221956Y0069605D01*
X0222641Y0067951D01*
X0223907Y0066685D01*
X0225561Y0066000D01*
X0232951Y0066000D01*
X0234605Y0066685D01*
X0235871Y0067951D01*
X0236556Y0069605D01*
X0236475Y0069409D02*
X0252289Y0069409D01*
X0252694Y0068411D02*
X0236061Y0068411D01*
X0235332Y0067412D02*
X0253463Y0067412D01*
X0255117Y0066414D02*
X0233950Y0066414D01*
X0234359Y0064417D02*
X0254671Y0064417D01*
X0253293Y0063418D02*
X0235502Y0063418D01*
X0236132Y0062420D02*
X0252608Y0062420D01*
X0252248Y0061421D02*
X0236545Y0061421D01*
X0236551Y0071406D02*
X0252246Y0071406D01*
X0252600Y0072405D02*
X0236138Y0072405D01*
X0235517Y0073403D02*
X0253278Y0073403D01*
X0254642Y0074402D02*
X0234395Y0074402D01*
X0233707Y0076515D02*
X0234310Y0076822D01*
X0234857Y0077220D01*
X0235336Y0077699D01*
X0235734Y0078246D01*
X0236041Y0078849D01*
X0236250Y0079493D01*
X0236356Y0080162D01*
X0236356Y0080200D01*
X0229556Y0080200D01*
X0229556Y0080800D01*
X0236356Y0080800D01*
X0236356Y0080838D01*
X0236250Y0081507D01*
X0236041Y0082151D01*
X0235734Y0082754D01*
X0235336Y0083301D01*
X0234857Y0083780D01*
X0234310Y0084178D01*
X0233707Y0084485D01*
X0233063Y0084694D01*
X0232394Y0084800D01*
X0229556Y0084800D01*
X0229556Y0080800D01*
X0228956Y0080800D01*
X0228956Y0084800D01*
X0226117Y0084800D01*
X0225449Y0084694D01*
X0224805Y0084485D01*
X0224202Y0084178D01*
X0223655Y0083780D01*
X0223176Y0083301D01*
X0222778Y0082754D01*
X0222471Y0082151D01*
X0222262Y0081507D01*
X0222156Y0080838D01*
X0222156Y0080800D01*
X0228956Y0080800D01*
X0228956Y0080200D01*
X0229556Y0080200D01*
X0229556Y0076200D01*
X0232394Y0076200D01*
X0233063Y0076306D01*
X0233707Y0076515D01*
X0233349Y0076399D02*
X0255163Y0076399D01*
X0255449Y0076306D02*
X0256117Y0076200D01*
X0258956Y0076200D01*
X0258956Y0080200D01*
X0259556Y0080200D01*
X0259556Y0080800D01*
X0266356Y0080800D01*
X0266356Y0080838D01*
X0266250Y0081507D01*
X0266041Y0082151D01*
X0265734Y0082754D01*
X0265336Y0083301D01*
X0264857Y0083780D01*
X0264310Y0084178D01*
X0263707Y0084485D01*
X0263063Y0084694D01*
X0262394Y0084800D01*
X0259556Y0084800D01*
X0259556Y0080800D01*
X0258956Y0080800D01*
X0258956Y0084800D01*
X0256117Y0084800D01*
X0255449Y0084694D01*
X0254805Y0084485D01*
X0254202Y0084178D01*
X0253655Y0083780D01*
X0253176Y0083301D01*
X0252778Y0082754D01*
X0252471Y0082151D01*
X0252262Y0081507D01*
X0252156Y0080838D01*
X0252156Y0080800D01*
X0258956Y0080800D01*
X0258956Y0080200D01*
X0252156Y0080200D01*
X0252156Y0080162D01*
X0252262Y0079493D01*
X0252471Y0078849D01*
X0252778Y0078246D01*
X0253176Y0077699D01*
X0253655Y0077220D01*
X0254202Y0076822D01*
X0254805Y0076515D01*
X0255449Y0076306D01*
X0253477Y0077397D02*
X0235034Y0077397D01*
X0235810Y0078396D02*
X0252702Y0078396D01*
X0252294Y0079394D02*
X0236218Y0079394D01*
X0236268Y0081391D02*
X0252243Y0081391D01*
X0252593Y0082390D02*
X0235919Y0082390D01*
X0235249Y0083388D02*
X0253263Y0083388D01*
X0254613Y0084387D02*
X0233899Y0084387D01*
X0229556Y0084387D02*
X0228956Y0084387D01*
X0228956Y0083388D02*
X0229556Y0083388D01*
X0229556Y0082390D02*
X0228956Y0082390D01*
X0228956Y0081391D02*
X0229556Y0081391D01*
X0229556Y0080393D02*
X0258956Y0080393D01*
X0259556Y0080393D02*
X0303257Y0080393D01*
X0303257Y0081391D02*
X0266268Y0081391D01*
X0265919Y0082390D02*
X0303257Y0082390D01*
X0303257Y0083388D02*
X0265249Y0083388D01*
X0263899Y0084387D02*
X0303257Y0084387D01*
X0303257Y0085385D02*
X0012956Y0085385D01*
X0012956Y0084387D02*
X0224613Y0084387D01*
X0223263Y0083388D02*
X0012956Y0083388D01*
X0012956Y0082390D02*
X0222593Y0082390D01*
X0222243Y0081391D02*
X0012956Y0081391D01*
X0012956Y0080393D02*
X0228956Y0080393D01*
X0228956Y0080200D02*
X0222156Y0080200D01*
X0222156Y0080162D01*
X0222262Y0079493D01*
X0222471Y0078849D01*
X0222778Y0078246D01*
X0223176Y0077699D01*
X0223655Y0077220D01*
X0224202Y0076822D01*
X0224805Y0076515D01*
X0225449Y0076306D01*
X0226117Y0076200D01*
X0228956Y0076200D01*
X0228956Y0080200D01*
X0228956Y0079394D02*
X0229556Y0079394D01*
X0229556Y0078396D02*
X0228956Y0078396D01*
X0228956Y0077397D02*
X0229556Y0077397D01*
X0229556Y0076399D02*
X0228956Y0076399D01*
X0225163Y0076399D02*
X0178929Y0076399D01*
X0179342Y0075985D02*
X0177655Y0077673D01*
X0175449Y0078587D01*
X0173062Y0078587D01*
X0170857Y0077673D01*
X0169169Y0075985D01*
X0168256Y0073780D01*
X0168256Y0071393D01*
X0169169Y0069188D01*
X0170857Y0067500D01*
X0173062Y0066587D01*
X0175449Y0066587D01*
X0177655Y0067500D01*
X0179342Y0069188D01*
X0180256Y0071393D01*
X0180256Y0073780D01*
X0179342Y0075985D01*
X0179585Y0075400D02*
X0303257Y0075400D01*
X0303257Y0074402D02*
X0263870Y0074402D01*
X0265234Y0073403D02*
X0303257Y0073403D01*
X0303257Y0072405D02*
X0265911Y0072405D01*
X0266266Y0071406D02*
X0303257Y0071406D01*
X0303257Y0070408D02*
X0259556Y0070408D01*
X0259556Y0071406D02*
X0258956Y0071406D01*
X0258956Y0072405D02*
X0259556Y0072405D01*
X0259556Y0073403D02*
X0258956Y0073403D01*
X0258956Y0074402D02*
X0259556Y0074402D01*
X0259556Y0076200D02*
X0262394Y0076200D01*
X0263063Y0076306D01*
X0263707Y0076515D01*
X0264310Y0076822D01*
X0264857Y0077220D01*
X0265336Y0077699D01*
X0265734Y0078246D01*
X0266041Y0078849D01*
X0266250Y0079493D01*
X0266356Y0080162D01*
X0266356Y0080200D01*
X0259556Y0080200D01*
X0259556Y0076200D01*
X0259556Y0076399D02*
X0258956Y0076399D01*
X0258956Y0077397D02*
X0259556Y0077397D01*
X0259556Y0078396D02*
X0258956Y0078396D01*
X0258956Y0079394D02*
X0259556Y0079394D01*
X0259556Y0081391D02*
X0258956Y0081391D01*
X0258956Y0082390D02*
X0259556Y0082390D01*
X0259556Y0083388D02*
X0258956Y0083388D01*
X0258956Y0084387D02*
X0259556Y0084387D01*
X0266218Y0079394D02*
X0303257Y0079394D01*
X0303257Y0078396D02*
X0265810Y0078396D01*
X0265034Y0077397D02*
X0303257Y0077397D01*
X0303257Y0076399D02*
X0263349Y0076399D01*
X0266223Y0069409D02*
X0303257Y0069409D01*
X0303257Y0068411D02*
X0265817Y0068411D01*
X0265049Y0067412D02*
X0303257Y0067412D01*
X0303257Y0066414D02*
X0263395Y0066414D01*
X0263841Y0064417D02*
X0303257Y0064417D01*
X0303257Y0065415D02*
X0012956Y0065415D01*
X0012956Y0064417D02*
X0172120Y0064417D01*
X0173062Y0064807D02*
X0170857Y0063894D01*
X0169169Y0062206D01*
X0168256Y0060001D01*
X0168256Y0057614D01*
X0169169Y0055408D01*
X0170857Y0053721D01*
X0173062Y0052807D01*
X0175449Y0052807D01*
X0177655Y0053721D01*
X0179342Y0055408D01*
X0180256Y0057614D01*
X0180256Y0060001D01*
X0179342Y0062206D01*
X0177655Y0063894D01*
X0175449Y0064807D01*
X0173062Y0064807D01*
X0170382Y0063418D02*
X0012956Y0063418D01*
X0012956Y0062420D02*
X0169383Y0062420D01*
X0168844Y0061421D02*
X0012956Y0061421D01*
X0012956Y0060423D02*
X0168431Y0060423D01*
X0168256Y0059424D02*
X0012956Y0059424D01*
X0012956Y0058426D02*
X0168256Y0058426D01*
X0168333Y0057427D02*
X0012956Y0057427D01*
X0012956Y0056429D02*
X0168747Y0056429D01*
X0169160Y0055430D02*
X0012956Y0055430D01*
X0012956Y0054432D02*
X0170146Y0054432D01*
X0171551Y0053433D02*
X0012956Y0053433D01*
X0012956Y0052434D02*
X0222386Y0052434D01*
X0221973Y0051436D02*
X0012956Y0051436D01*
X0012956Y0050437D02*
X0221956Y0050437D01*
X0222025Y0049439D02*
X0012956Y0049439D01*
X0012956Y0048440D02*
X0222438Y0048440D01*
X0223150Y0047442D02*
X0012956Y0047442D01*
X0012956Y0046443D02*
X0224490Y0046443D01*
X0223025Y0053433D02*
X0176960Y0053433D01*
X0178366Y0054432D02*
X0224188Y0054432D01*
X0224526Y0056429D02*
X0179765Y0056429D01*
X0180179Y0057427D02*
X0223165Y0057427D01*
X0222444Y0058426D02*
X0180256Y0058426D01*
X0180256Y0059424D02*
X0222031Y0059424D01*
X0221956Y0060423D02*
X0180081Y0060423D01*
X0179667Y0061421D02*
X0221967Y0061421D01*
X0222380Y0062420D02*
X0179129Y0062420D01*
X0178130Y0063418D02*
X0223010Y0063418D01*
X0224152Y0064417D02*
X0176392Y0064417D01*
X0177442Y0067412D02*
X0223180Y0067412D01*
X0222451Y0068411D02*
X0178565Y0068411D01*
X0179434Y0069409D02*
X0222037Y0069409D01*
X0221956Y0070408D02*
X0179848Y0070408D01*
X0180256Y0071406D02*
X0221961Y0071406D01*
X0222374Y0072405D02*
X0180256Y0072405D01*
X0180256Y0073403D02*
X0222995Y0073403D01*
X0224116Y0074402D02*
X0179998Y0074402D01*
X0177930Y0077397D02*
X0223477Y0077397D01*
X0222702Y0078396D02*
X0175910Y0078396D01*
X0172602Y0078396D02*
X0012956Y0078396D01*
X0012956Y0079394D02*
X0222294Y0079394D01*
X0224562Y0066414D02*
X0012956Y0066414D01*
X0012956Y0067412D02*
X0171069Y0067412D01*
X0169947Y0068411D02*
X0012956Y0068411D01*
X0012956Y0069409D02*
X0169078Y0069409D01*
X0168664Y0070408D02*
X0012956Y0070408D01*
X0012956Y0071406D02*
X0168256Y0071406D01*
X0168256Y0072405D02*
X0012956Y0072405D01*
X0012956Y0073403D02*
X0168256Y0073403D01*
X0168513Y0074402D02*
X0012956Y0074402D01*
X0012956Y0075400D02*
X0168927Y0075400D01*
X0169583Y0076399D02*
X0012956Y0076399D01*
X0012956Y0077397D02*
X0170581Y0077397D01*
X0179351Y0055430D02*
X0303257Y0055430D01*
X0303257Y0062420D02*
X0265904Y0062420D01*
X0265219Y0063418D02*
X0303257Y0063418D01*
X0303257Y0086384D02*
X0012956Y0086384D01*
X0012956Y0087382D02*
X0303257Y0087382D01*
X0303257Y0088381D02*
X0012956Y0088381D01*
X0012956Y0089379D02*
X0303257Y0089379D01*
X0303257Y0090378D02*
X0012956Y0090378D01*
X0012956Y0091376D02*
X0303257Y0091376D01*
X0303257Y0092375D02*
X0012956Y0092375D01*
X0012956Y0093373D02*
X0303257Y0093373D01*
X0303257Y0094372D02*
X0012956Y0094372D01*
X0012956Y0095370D02*
X0303257Y0095370D01*
X0303257Y0096369D02*
X0012956Y0096369D01*
X0012956Y0097368D02*
X0303257Y0097368D01*
X0303257Y0098366D02*
X0012956Y0098366D01*
X0012956Y0099365D02*
X0224681Y0099365D01*
X0223907Y0099685D02*
X0225561Y0099000D01*
X0232951Y0099000D01*
X0234605Y0099685D01*
X0235871Y0100951D01*
X0236556Y0102605D01*
X0236556Y0104395D01*
X0235871Y0106049D01*
X0234605Y0107315D01*
X0232951Y0108000D01*
X0225561Y0108000D01*
X0223907Y0107315D01*
X0222641Y0106049D01*
X0221956Y0104395D01*
X0221956Y0102605D01*
X0222641Y0100951D01*
X0223907Y0099685D01*
X0223229Y0100363D02*
X0012956Y0100363D01*
X0012956Y0101362D02*
X0222471Y0101362D01*
X0222057Y0102360D02*
X0012956Y0102360D01*
X0012956Y0103359D02*
X0221956Y0103359D01*
X0221956Y0104357D02*
X0012956Y0104357D01*
X0012956Y0105356D02*
X0222354Y0105356D01*
X0222946Y0106354D02*
X0176770Y0106354D01*
X0177655Y0106721D02*
X0179342Y0108408D01*
X0180256Y0110614D01*
X0180256Y0113001D01*
X0179342Y0115206D01*
X0177655Y0116894D01*
X0175449Y0117807D01*
X0173062Y0117807D01*
X0170857Y0116894D01*
X0169169Y0115206D01*
X0168256Y0113001D01*
X0168256Y0110614D01*
X0169169Y0108408D01*
X0170857Y0106721D01*
X0173062Y0105807D01*
X0175449Y0105807D01*
X0177655Y0106721D01*
X0178287Y0107353D02*
X0223998Y0107353D01*
X0224717Y0109350D02*
X0179732Y0109350D01*
X0180146Y0110348D02*
X0223244Y0110348D01*
X0222641Y0110951D02*
X0223907Y0109685D01*
X0225561Y0109000D01*
X0232951Y0109000D01*
X0234605Y0109685D01*
X0235871Y0110951D01*
X0236556Y0112605D01*
X0236556Y0114395D01*
X0235871Y0116049D01*
X0234605Y0117315D01*
X0232951Y0118000D01*
X0225561Y0118000D01*
X0223907Y0117315D01*
X0222641Y0116049D01*
X0221956Y0114395D01*
X0221956Y0112605D01*
X0222641Y0110951D01*
X0222477Y0111347D02*
X0180256Y0111347D01*
X0180256Y0112345D02*
X0222063Y0112345D01*
X0221956Y0113344D02*
X0180114Y0113344D01*
X0179700Y0114342D02*
X0221956Y0114342D01*
X0222348Y0115341D02*
X0179208Y0115341D01*
X0178209Y0116339D02*
X0222931Y0116339D01*
X0223962Y0117338D02*
X0176582Y0117338D01*
X0175449Y0119587D02*
X0177655Y0120500D01*
X0179342Y0122188D01*
X0180256Y0124393D01*
X0180256Y0126780D01*
X0179342Y0128985D01*
X0177655Y0130673D01*
X0175449Y0131587D01*
X0173062Y0131587D01*
X0170857Y0130673D01*
X0169169Y0128985D01*
X0168256Y0126780D01*
X0168256Y0124393D01*
X0169169Y0122188D01*
X0170857Y0120500D01*
X0173062Y0119587D01*
X0175449Y0119587D01*
X0177252Y0120333D02*
X0223259Y0120333D01*
X0222641Y0120951D02*
X0221956Y0122605D01*
X0221956Y0124395D01*
X0222641Y0126049D01*
X0223907Y0127315D01*
X0225561Y0128000D01*
X0232951Y0128000D01*
X0234605Y0127315D01*
X0235871Y0126049D01*
X0236556Y0124395D01*
X0236556Y0122605D01*
X0235871Y0120951D01*
X0234605Y0119685D01*
X0232951Y0119000D01*
X0225561Y0119000D01*
X0223907Y0119685D01*
X0222641Y0120951D01*
X0222483Y0121332D02*
X0178486Y0121332D01*
X0179401Y0122330D02*
X0222070Y0122330D01*
X0221956Y0123329D02*
X0179815Y0123329D01*
X0180229Y0124327D02*
X0221956Y0124327D01*
X0222341Y0125326D02*
X0180256Y0125326D01*
X0180256Y0126324D02*
X0222916Y0126324D01*
X0223926Y0127323D02*
X0180031Y0127323D01*
X0179617Y0128321D02*
X0303257Y0128321D01*
X0303257Y0127323D02*
X0264586Y0127323D01*
X0264605Y0127315D02*
X0262951Y0128000D01*
X0255561Y0128000D01*
X0253907Y0127315D01*
X0252641Y0126049D01*
X0251956Y0124395D01*
X0251956Y0122605D01*
X0252641Y0120951D01*
X0253907Y0119685D01*
X0255561Y0119000D01*
X0262951Y0119000D01*
X0264605Y0119685D01*
X0265871Y0120951D01*
X0266556Y0122605D01*
X0266556Y0124395D01*
X0265871Y0126049D01*
X0264605Y0127315D01*
X0265596Y0126324D02*
X0303257Y0126324D01*
X0303257Y0125326D02*
X0266170Y0125326D01*
X0266556Y0124327D02*
X0303257Y0124327D01*
X0303257Y0123329D02*
X0266556Y0123329D01*
X0266442Y0122330D02*
X0303257Y0122330D01*
X0303257Y0121332D02*
X0266029Y0121332D01*
X0265253Y0120333D02*
X0303257Y0120333D01*
X0303257Y0119335D02*
X0263759Y0119335D01*
X0262951Y0118000D02*
X0264605Y0117315D01*
X0265871Y0116049D01*
X0266556Y0114395D01*
X0266556Y0112605D01*
X0265871Y0110951D01*
X0264605Y0109685D01*
X0262951Y0109000D01*
X0255561Y0109000D01*
X0253907Y0109685D01*
X0252641Y0110951D01*
X0251956Y0112605D01*
X0251956Y0114395D01*
X0252641Y0116049D01*
X0253907Y0117315D01*
X0255561Y0118000D01*
X0262951Y0118000D01*
X0264550Y0117338D02*
X0303257Y0117338D01*
X0303257Y0118336D02*
X0012956Y0118336D01*
X0012956Y0117338D02*
X0171929Y0117338D01*
X0170303Y0116339D02*
X0012956Y0116339D01*
X0012956Y0115341D02*
X0169304Y0115341D01*
X0168812Y0114342D02*
X0012956Y0114342D01*
X0012956Y0113344D02*
X0168398Y0113344D01*
X0168256Y0112345D02*
X0012956Y0112345D01*
X0012956Y0111347D02*
X0168256Y0111347D01*
X0168366Y0110348D02*
X0012956Y0110348D01*
X0012956Y0109350D02*
X0168779Y0109350D01*
X0169227Y0108351D02*
X0012956Y0108351D01*
X0012956Y0107353D02*
X0170225Y0107353D01*
X0171742Y0106354D02*
X0012956Y0106354D01*
X0012956Y0119335D02*
X0224753Y0119335D01*
X0233759Y0119335D02*
X0254753Y0119335D01*
X0253259Y0120333D02*
X0235253Y0120333D01*
X0236029Y0121332D02*
X0252483Y0121332D01*
X0252070Y0122330D02*
X0236442Y0122330D01*
X0236556Y0123329D02*
X0251956Y0123329D01*
X0251956Y0124327D02*
X0236556Y0124327D01*
X0236170Y0125326D02*
X0252341Y0125326D01*
X0252916Y0126324D02*
X0235596Y0126324D01*
X0234586Y0127323D02*
X0253926Y0127323D01*
X0254789Y0129320D02*
X0233106Y0129320D01*
X0233063Y0129306D02*
X0233707Y0129515D01*
X0234310Y0129822D01*
X0234857Y0130220D01*
X0235336Y0130699D01*
X0235734Y0131246D01*
X0236041Y0131849D01*
X0236250Y0132493D01*
X0236356Y0133162D01*
X0236356Y0133200D01*
X0229556Y0133200D01*
X0229556Y0133800D01*
X0236356Y0133800D01*
X0236356Y0133838D01*
X0236250Y0134507D01*
X0236041Y0135151D01*
X0235734Y0135754D01*
X0235336Y0136301D01*
X0234857Y0136780D01*
X0234310Y0137178D01*
X0233707Y0137485D01*
X0233063Y0137694D01*
X0232394Y0137800D01*
X0229556Y0137800D01*
X0229556Y0133800D01*
X0228956Y0133800D01*
X0228956Y0137800D01*
X0226117Y0137800D01*
X0225449Y0137694D01*
X0224805Y0137485D01*
X0224202Y0137178D01*
X0223655Y0136780D01*
X0223176Y0136301D01*
X0222778Y0135754D01*
X0222471Y0135151D01*
X0222262Y0134507D01*
X0222156Y0133838D01*
X0222156Y0133800D01*
X0228956Y0133800D01*
X0228956Y0133200D01*
X0229556Y0133200D01*
X0229556Y0129200D01*
X0232394Y0129200D01*
X0233063Y0129306D01*
X0234955Y0130318D02*
X0253274Y0130318D01*
X0253907Y0129685D02*
X0255561Y0129000D01*
X0262951Y0129000D01*
X0264605Y0129685D01*
X0265871Y0130951D01*
X0266556Y0132605D01*
X0266556Y0134395D01*
X0265871Y0136049D01*
X0264605Y0137315D01*
X0262951Y0138000D01*
X0255561Y0138000D01*
X0253907Y0137315D01*
X0252641Y0136049D01*
X0251956Y0134395D01*
X0251956Y0132605D01*
X0252641Y0130951D01*
X0253907Y0129685D01*
X0252489Y0131317D02*
X0235770Y0131317D01*
X0236192Y0132315D02*
X0252076Y0132315D01*
X0251956Y0133314D02*
X0229556Y0133314D01*
X0228956Y0133314D02*
X0012956Y0133314D01*
X0012956Y0134312D02*
X0222231Y0134312D01*
X0222553Y0135311D02*
X0012956Y0135311D01*
X0012956Y0136309D02*
X0223184Y0136309D01*
X0224458Y0137308D02*
X0012956Y0137308D01*
X0012956Y0138306D02*
X0303257Y0138306D01*
X0303257Y0137308D02*
X0264612Y0137308D01*
X0265610Y0136309D02*
X0303257Y0136309D01*
X0303257Y0135311D02*
X0266177Y0135311D01*
X0266556Y0134312D02*
X0303257Y0134312D01*
X0303257Y0133314D02*
X0266556Y0133314D01*
X0266436Y0132315D02*
X0303257Y0132315D01*
X0303257Y0131317D02*
X0266022Y0131317D01*
X0265238Y0130318D02*
X0303257Y0130318D01*
X0303257Y0129320D02*
X0263723Y0129320D01*
X0253900Y0137308D02*
X0234054Y0137308D01*
X0235328Y0136309D02*
X0252901Y0136309D01*
X0252335Y0135311D02*
X0235959Y0135311D01*
X0236281Y0134312D02*
X0251956Y0134312D01*
X0253962Y0117338D02*
X0234550Y0117338D01*
X0235581Y0116339D02*
X0252931Y0116339D01*
X0252348Y0115341D02*
X0236164Y0115341D01*
X0236556Y0114342D02*
X0251956Y0114342D01*
X0251956Y0113344D02*
X0236556Y0113344D01*
X0236448Y0112345D02*
X0252063Y0112345D01*
X0252477Y0111347D02*
X0236035Y0111347D01*
X0235268Y0110348D02*
X0253244Y0110348D01*
X0254717Y0109350D02*
X0233795Y0109350D01*
X0234514Y0107353D02*
X0254546Y0107353D01*
X0254805Y0107485D02*
X0254202Y0107178D01*
X0253655Y0106780D01*
X0253176Y0106301D01*
X0252778Y0105754D01*
X0252471Y0105151D01*
X0252262Y0104507D01*
X0252156Y0103838D01*
X0252156Y0103800D01*
X0258956Y0103800D01*
X0258956Y0107800D01*
X0256117Y0107800D01*
X0255449Y0107694D01*
X0254805Y0107485D01*
X0253229Y0106354D02*
X0235566Y0106354D01*
X0236158Y0105356D02*
X0252575Y0105356D01*
X0252238Y0104357D02*
X0236556Y0104357D01*
X0236556Y0103359D02*
X0258956Y0103359D01*
X0258956Y0103200D02*
X0252156Y0103200D01*
X0252156Y0103162D01*
X0252262Y0102493D01*
X0252471Y0101849D01*
X0252778Y0101246D01*
X0253176Y0100699D01*
X0253655Y0100220D01*
X0254202Y0099822D01*
X0254805Y0099515D01*
X0255449Y0099306D01*
X0256117Y0099200D01*
X0258956Y0099200D01*
X0258956Y0103200D01*
X0259556Y0103200D01*
X0259556Y0103800D01*
X0266356Y0103800D01*
X0266356Y0103838D01*
X0266250Y0104507D01*
X0266041Y0105151D01*
X0265734Y0105754D01*
X0265336Y0106301D01*
X0264857Y0106780D01*
X0264310Y0107178D01*
X0263707Y0107485D01*
X0263063Y0107694D01*
X0262394Y0107800D01*
X0259556Y0107800D01*
X0259556Y0103800D01*
X0258956Y0103800D01*
X0258956Y0103200D01*
X0259556Y0103200D02*
X0259556Y0099200D01*
X0262394Y0099200D01*
X0263063Y0099306D01*
X0263707Y0099515D01*
X0264310Y0099822D01*
X0264857Y0100220D01*
X0265336Y0100699D01*
X0265734Y0101246D01*
X0266041Y0101849D01*
X0266250Y0102493D01*
X0266356Y0103162D01*
X0266356Y0103200D01*
X0259556Y0103200D01*
X0259556Y0103359D02*
X0303257Y0103359D01*
X0303257Y0104357D02*
X0266274Y0104357D01*
X0265936Y0105356D02*
X0303257Y0105356D01*
X0303257Y0106354D02*
X0265283Y0106354D01*
X0263966Y0107353D02*
X0303257Y0107353D01*
X0303257Y0108351D02*
X0179285Y0108351D01*
X0171260Y0120333D02*
X0012956Y0120333D01*
X0012956Y0121332D02*
X0170025Y0121332D01*
X0169110Y0122330D02*
X0012956Y0122330D01*
X0012956Y0123329D02*
X0168697Y0123329D01*
X0168283Y0124327D02*
X0012956Y0124327D01*
X0012956Y0125326D02*
X0168256Y0125326D01*
X0168256Y0126324D02*
X0012956Y0126324D01*
X0012956Y0127323D02*
X0168481Y0127323D01*
X0168894Y0128321D02*
X0012956Y0128321D01*
X0012956Y0129320D02*
X0169504Y0129320D01*
X0170502Y0130318D02*
X0012956Y0130318D01*
X0012956Y0131317D02*
X0172411Y0131317D01*
X0176101Y0131317D02*
X0222742Y0131317D01*
X0222778Y0131246D02*
X0222471Y0131849D01*
X0222262Y0132493D01*
X0222156Y0133162D01*
X0222156Y0133200D01*
X0228956Y0133200D01*
X0228956Y0129200D01*
X0226117Y0129200D01*
X0225449Y0129306D01*
X0224805Y0129515D01*
X0224202Y0129822D01*
X0223655Y0130220D01*
X0223176Y0130699D01*
X0222778Y0131246D01*
X0222320Y0132315D02*
X0012956Y0132315D01*
X0012956Y0139305D02*
X0303257Y0139305D01*
X0303257Y0140303D02*
X0012956Y0140303D01*
X0012956Y0141302D02*
X0303257Y0141302D01*
X0303257Y0142301D02*
X0012956Y0142301D01*
X0012956Y0143299D02*
X0303257Y0143299D01*
X0303257Y0144298D02*
X0012956Y0144298D01*
X0012956Y0145296D02*
X0303257Y0145296D01*
X0303257Y0146295D02*
X0012956Y0146295D01*
X0012956Y0147293D02*
X0303257Y0147293D01*
X0303257Y0148292D02*
X0012956Y0148292D01*
X0012956Y0149290D02*
X0303257Y0149290D01*
X0303257Y0150289D02*
X0012956Y0150289D01*
X0012956Y0151287D02*
X0303257Y0151287D01*
X0303257Y0152286D02*
X0012956Y0152286D01*
X0012956Y0153284D02*
X0224875Y0153284D01*
X0225561Y0153000D02*
X0223907Y0153685D01*
X0222641Y0154951D01*
X0221956Y0156605D01*
X0221956Y0158395D01*
X0222641Y0160049D01*
X0223907Y0161315D01*
X0225561Y0162000D01*
X0232951Y0162000D01*
X0234605Y0161315D01*
X0235871Y0160049D01*
X0236556Y0158395D01*
X0236556Y0156605D01*
X0235871Y0154951D01*
X0234605Y0153685D01*
X0232951Y0153000D01*
X0225561Y0153000D01*
X0223309Y0154283D02*
X0012956Y0154283D01*
X0012956Y0155281D02*
X0222504Y0155281D01*
X0222091Y0156280D02*
X0012956Y0156280D01*
X0012956Y0157278D02*
X0221956Y0157278D01*
X0221956Y0158277D02*
X0012956Y0158277D01*
X0012956Y0159275D02*
X0168932Y0159275D01*
X0167857Y0159721D02*
X0166169Y0161408D01*
X0165256Y0163614D01*
X0165256Y0166001D01*
X0166169Y0168206D01*
X0167857Y0169894D01*
X0170062Y0170807D01*
X0172449Y0170807D01*
X0174655Y0169894D01*
X0176342Y0168206D01*
X0177256Y0166001D01*
X0177256Y0163614D01*
X0176342Y0161408D01*
X0174655Y0159721D01*
X0172449Y0158807D01*
X0170062Y0158807D01*
X0167857Y0159721D01*
X0167304Y0160274D02*
X0012956Y0160274D01*
X0012956Y0161272D02*
X0166305Y0161272D01*
X0165812Y0162271D02*
X0012956Y0162271D01*
X0012956Y0163269D02*
X0165399Y0163269D01*
X0165256Y0164268D02*
X0012956Y0164268D01*
X0012956Y0165266D02*
X0165256Y0165266D01*
X0165365Y0166265D02*
X0012956Y0166265D01*
X0012956Y0167263D02*
X0165779Y0167263D01*
X0166225Y0168262D02*
X0012956Y0168262D01*
X0012956Y0169260D02*
X0167224Y0169260D01*
X0168739Y0170259D02*
X0012956Y0170259D01*
X0012956Y0171257D02*
X0223849Y0171257D01*
X0223907Y0171315D02*
X0222641Y0170049D01*
X0221956Y0168395D01*
X0221956Y0166605D01*
X0222641Y0164951D01*
X0223907Y0163685D01*
X0225561Y0163000D01*
X0232951Y0163000D01*
X0234605Y0163685D01*
X0235871Y0164951D01*
X0236556Y0166605D01*
X0236556Y0168395D01*
X0235871Y0170049D01*
X0234605Y0171315D01*
X0232951Y0172000D01*
X0225561Y0172000D01*
X0223907Y0171315D01*
X0222851Y0170259D02*
X0173773Y0170259D01*
X0175288Y0169260D02*
X0222314Y0169260D01*
X0221956Y0168262D02*
X0176286Y0168262D01*
X0176733Y0167263D02*
X0221956Y0167263D01*
X0222097Y0166265D02*
X0177146Y0166265D01*
X0177256Y0165266D02*
X0222510Y0165266D01*
X0223324Y0164268D02*
X0177256Y0164268D01*
X0177113Y0163269D02*
X0224911Y0163269D01*
X0223864Y0161272D02*
X0176206Y0161272D01*
X0176700Y0162271D02*
X0303257Y0162271D01*
X0303257Y0163269D02*
X0263601Y0163269D01*
X0262951Y0163000D02*
X0264605Y0163685D01*
X0265871Y0164951D01*
X0266556Y0166605D01*
X0266556Y0168395D01*
X0265871Y0170049D01*
X0264605Y0171315D01*
X0262951Y0172000D01*
X0255561Y0172000D01*
X0253907Y0171315D01*
X0252641Y0170049D01*
X0251956Y0168395D01*
X0251956Y0166605D01*
X0252641Y0164951D01*
X0253907Y0163685D01*
X0255561Y0163000D01*
X0262951Y0163000D01*
X0262951Y0162000D02*
X0255561Y0162000D01*
X0253907Y0161315D01*
X0252641Y0160049D01*
X0251956Y0158395D01*
X0251956Y0156605D01*
X0252641Y0154951D01*
X0253907Y0153685D01*
X0255561Y0153000D01*
X0262951Y0153000D01*
X0264605Y0153685D01*
X0265871Y0154951D01*
X0266556Y0156605D01*
X0266556Y0158395D01*
X0265871Y0160049D01*
X0264605Y0161315D01*
X0262951Y0162000D01*
X0264648Y0161272D02*
X0303257Y0161272D01*
X0303257Y0160274D02*
X0265646Y0160274D01*
X0266191Y0159275D02*
X0303257Y0159275D01*
X0303257Y0158277D02*
X0266556Y0158277D01*
X0266556Y0157278D02*
X0303257Y0157278D01*
X0303257Y0156280D02*
X0266421Y0156280D01*
X0266008Y0155281D02*
X0303257Y0155281D01*
X0303257Y0154283D02*
X0265203Y0154283D01*
X0263637Y0153284D02*
X0303257Y0153284D01*
X0303257Y0164268D02*
X0265188Y0164268D01*
X0266001Y0165266D02*
X0303257Y0165266D01*
X0303257Y0166265D02*
X0266415Y0166265D01*
X0266556Y0167263D02*
X0303257Y0167263D01*
X0303257Y0168262D02*
X0266556Y0168262D01*
X0266198Y0169260D02*
X0303257Y0169260D01*
X0303257Y0170259D02*
X0265661Y0170259D01*
X0264663Y0171257D02*
X0303257Y0171257D01*
X0303257Y0172256D02*
X0012956Y0172256D01*
X0012956Y0173254D02*
X0168450Y0173254D01*
X0167857Y0173500D02*
X0170062Y0172587D01*
X0172449Y0172587D01*
X0174655Y0173500D01*
X0176342Y0175188D01*
X0177256Y0177393D01*
X0177256Y0179780D01*
X0176342Y0181985D01*
X0174655Y0183673D01*
X0172449Y0184587D01*
X0170062Y0184587D01*
X0167857Y0183673D01*
X0166169Y0181985D01*
X0165256Y0179780D01*
X0165256Y0177393D01*
X0166169Y0175188D01*
X0167857Y0173500D01*
X0167104Y0174253D02*
X0012956Y0174253D01*
X0012956Y0175251D02*
X0166143Y0175251D01*
X0165729Y0176250D02*
X0012956Y0176250D01*
X0012956Y0177248D02*
X0165316Y0177248D01*
X0165256Y0178247D02*
X0012956Y0178247D01*
X0012956Y0179245D02*
X0165256Y0179245D01*
X0165448Y0180244D02*
X0012956Y0180244D01*
X0012956Y0181242D02*
X0165862Y0181242D01*
X0166425Y0182241D02*
X0012956Y0182241D01*
X0012956Y0183239D02*
X0167423Y0183239D01*
X0169221Y0184238D02*
X0012956Y0184238D01*
X0012956Y0185237D02*
X0222785Y0185237D01*
X0222778Y0185246D02*
X0223176Y0184699D01*
X0223655Y0184220D01*
X0224202Y0183822D01*
X0224805Y0183515D01*
X0225449Y0183306D01*
X0226117Y0183200D01*
X0228956Y0183200D01*
X0228956Y0187200D01*
X0229556Y0187200D01*
X0229556Y0187800D01*
X0236356Y0187800D01*
X0236356Y0187838D01*
X0236250Y0188507D01*
X0236041Y0189151D01*
X0235734Y0189754D01*
X0235336Y0190301D01*
X0234857Y0190780D01*
X0234310Y0191178D01*
X0233707Y0191485D01*
X0233063Y0191694D01*
X0232394Y0191800D01*
X0229556Y0191800D01*
X0229556Y0187800D01*
X0228956Y0187800D01*
X0228956Y0191800D01*
X0226117Y0191800D01*
X0225449Y0191694D01*
X0224805Y0191485D01*
X0224202Y0191178D01*
X0223655Y0190780D01*
X0223176Y0190301D01*
X0222778Y0189754D01*
X0222471Y0189151D01*
X0222262Y0188507D01*
X0222156Y0187838D01*
X0222156Y0187800D01*
X0228956Y0187800D01*
X0228956Y0187200D01*
X0222156Y0187200D01*
X0222156Y0187162D01*
X0222262Y0186493D01*
X0222471Y0185849D01*
X0222778Y0185246D01*
X0222346Y0186235D02*
X0012956Y0186235D01*
X0012956Y0187234D02*
X0228956Y0187234D01*
X0229556Y0187234D02*
X0251956Y0187234D01*
X0251956Y0186605D02*
X0252641Y0184951D01*
X0253907Y0183685D01*
X0255561Y0183000D01*
X0262951Y0183000D01*
X0264605Y0183685D01*
X0265871Y0184951D01*
X0266556Y0186605D01*
X0266556Y0188395D01*
X0265871Y0190049D01*
X0264605Y0191315D01*
X0262951Y0192000D01*
X0255561Y0192000D01*
X0253907Y0191315D01*
X0252641Y0190049D01*
X0251956Y0188395D01*
X0251956Y0186605D01*
X0252109Y0186235D02*
X0236166Y0186235D01*
X0236250Y0186493D02*
X0236041Y0185849D01*
X0235734Y0185246D01*
X0235336Y0184699D01*
X0234857Y0184220D01*
X0234310Y0183822D01*
X0233707Y0183515D01*
X0233063Y0183306D01*
X0232394Y0183200D01*
X0229556Y0183200D01*
X0229556Y0187200D01*
X0236356Y0187200D01*
X0236356Y0187162D01*
X0236250Y0186493D01*
X0235726Y0185237D02*
X0252523Y0185237D01*
X0253354Y0184238D02*
X0234875Y0184238D01*
X0232644Y0183239D02*
X0254983Y0183239D01*
X0255561Y0182000D02*
X0253907Y0181315D01*
X0252641Y0180049D01*
X0251956Y0178395D01*
X0251956Y0176605D01*
X0252641Y0174951D01*
X0253907Y0173685D01*
X0255561Y0173000D01*
X0262951Y0173000D01*
X0264605Y0173685D01*
X0265871Y0174951D01*
X0266556Y0176605D01*
X0266556Y0178395D01*
X0265871Y0180049D01*
X0264605Y0181315D01*
X0262951Y0182000D01*
X0255561Y0182000D01*
X0253834Y0181242D02*
X0234677Y0181242D01*
X0234605Y0181315D02*
X0232951Y0182000D01*
X0225561Y0182000D01*
X0223907Y0181315D01*
X0222641Y0180049D01*
X0221956Y0178395D01*
X0221956Y0176605D01*
X0222641Y0174951D01*
X0223907Y0173685D01*
X0225561Y0173000D01*
X0232951Y0173000D01*
X0234605Y0173685D01*
X0235871Y0174951D01*
X0236556Y0176605D01*
X0236556Y0178395D01*
X0235871Y0180049D01*
X0234605Y0181315D01*
X0235676Y0180244D02*
X0252836Y0180244D01*
X0252308Y0179245D02*
X0236204Y0179245D01*
X0236556Y0178247D02*
X0251956Y0178247D01*
X0251956Y0177248D02*
X0236556Y0177248D01*
X0236409Y0176250D02*
X0252103Y0176250D01*
X0252517Y0175251D02*
X0235995Y0175251D01*
X0235173Y0174253D02*
X0253339Y0174253D01*
X0254947Y0173254D02*
X0233565Y0173254D01*
X0234663Y0171257D02*
X0253849Y0171257D01*
X0252851Y0170259D02*
X0235661Y0170259D01*
X0236198Y0169260D02*
X0252314Y0169260D01*
X0251956Y0168262D02*
X0236556Y0168262D01*
X0236556Y0167263D02*
X0251956Y0167263D01*
X0252097Y0166265D02*
X0236415Y0166265D01*
X0236001Y0165266D02*
X0252510Y0165266D01*
X0253324Y0164268D02*
X0235188Y0164268D01*
X0233601Y0163269D02*
X0254911Y0163269D01*
X0253864Y0161272D02*
X0234648Y0161272D01*
X0235646Y0160274D02*
X0252866Y0160274D01*
X0252320Y0159275D02*
X0236191Y0159275D01*
X0236556Y0158277D02*
X0251956Y0158277D01*
X0251956Y0157278D02*
X0236556Y0157278D01*
X0236421Y0156280D02*
X0252091Y0156280D01*
X0252504Y0155281D02*
X0236008Y0155281D01*
X0235203Y0154283D02*
X0253309Y0154283D01*
X0254875Y0153284D02*
X0233637Y0153284D01*
X0222866Y0160274D02*
X0175208Y0160274D01*
X0173580Y0159275D02*
X0222320Y0159275D01*
X0224947Y0173254D02*
X0174061Y0173254D01*
X0175407Y0174253D02*
X0223339Y0174253D01*
X0222517Y0175251D02*
X0176369Y0175251D01*
X0176782Y0176250D02*
X0222103Y0176250D01*
X0221956Y0177248D02*
X0177196Y0177248D01*
X0177256Y0178247D02*
X0221956Y0178247D01*
X0222308Y0179245D02*
X0177256Y0179245D01*
X0177064Y0180244D02*
X0222836Y0180244D01*
X0223834Y0181242D02*
X0176650Y0181242D01*
X0176087Y0182241D02*
X0303257Y0182241D01*
X0303257Y0183239D02*
X0263529Y0183239D01*
X0265158Y0184238D02*
X0303257Y0184238D01*
X0303257Y0185237D02*
X0265989Y0185237D01*
X0266403Y0186235D02*
X0303257Y0186235D01*
X0303257Y0187234D02*
X0266556Y0187234D01*
X0266556Y0188232D02*
X0303257Y0188232D01*
X0303257Y0189231D02*
X0266210Y0189231D01*
X0265691Y0190229D02*
X0303257Y0190229D01*
X0303257Y0191228D02*
X0264692Y0191228D01*
X0264677Y0181242D02*
X0303257Y0181242D01*
X0303257Y0180244D02*
X0265676Y0180244D01*
X0266204Y0179245D02*
X0303257Y0179245D01*
X0303257Y0178247D02*
X0266556Y0178247D01*
X0266556Y0177248D02*
X0303257Y0177248D01*
X0303257Y0176250D02*
X0266409Y0176250D01*
X0265995Y0175251D02*
X0303257Y0175251D01*
X0303257Y0174253D02*
X0265173Y0174253D01*
X0263565Y0173254D02*
X0303257Y0173254D01*
X0303257Y0192226D02*
X0012956Y0192226D01*
X0012956Y0191228D02*
X0224300Y0191228D01*
X0223124Y0190229D02*
X0012956Y0190229D01*
X0012956Y0189231D02*
X0222512Y0189231D01*
X0222218Y0188232D02*
X0012956Y0188232D01*
X0012956Y0193225D02*
X0303257Y0193225D01*
X0303257Y0194223D02*
X0012956Y0194223D01*
X0012956Y0195222D02*
X0303257Y0195222D01*
X0303257Y0196220D02*
X0012956Y0196220D01*
X0012956Y0197219D02*
X0303257Y0197219D01*
X0303257Y0198217D02*
X0012956Y0198217D01*
X0012956Y0199216D02*
X0303257Y0199216D01*
X0303257Y0200214D02*
X0012956Y0200214D01*
X0012956Y0201213D02*
X0128414Y0201213D01*
X0128480Y0201146D02*
X0130281Y0200400D01*
X0132231Y0200400D01*
X0134032Y0201146D01*
X0135410Y0202524D01*
X0136156Y0204325D01*
X0136156Y0212675D01*
X0135410Y0214476D01*
X0134032Y0215854D01*
X0132231Y0216600D01*
X0130281Y0216600D01*
X0128480Y0215854D01*
X0127102Y0214476D01*
X0126356Y0212675D01*
X0126356Y0204325D01*
X0127102Y0202524D01*
X0128480Y0201146D01*
X0127415Y0202211D02*
X0012956Y0202211D01*
X0012956Y0203210D02*
X0126818Y0203210D01*
X0126404Y0204208D02*
X0012956Y0204208D01*
X0012956Y0205207D02*
X0126356Y0205207D01*
X0126356Y0206205D02*
X0012956Y0206205D01*
X0012956Y0207204D02*
X0126356Y0207204D01*
X0126356Y0208202D02*
X0012956Y0208202D01*
X0012956Y0209201D02*
X0126356Y0209201D01*
X0126356Y0210199D02*
X0012956Y0210199D01*
X0012956Y0211198D02*
X0126356Y0211198D01*
X0126356Y0212196D02*
X0012956Y0212196D01*
X0012956Y0213195D02*
X0126571Y0213195D01*
X0126985Y0214193D02*
X0012956Y0214193D01*
X0012956Y0215192D02*
X0127818Y0215192D01*
X0129292Y0216190D02*
X0012956Y0216190D01*
X0133220Y0216190D02*
X0139292Y0216190D01*
X0138480Y0215854D02*
X0137102Y0214476D01*
X0136356Y0212675D01*
X0136356Y0204325D01*
X0137102Y0202524D01*
X0138480Y0201146D01*
X0140281Y0200400D01*
X0142231Y0200400D01*
X0144032Y0201146D01*
X0145410Y0202524D01*
X0146156Y0204325D01*
X0146156Y0212675D01*
X0145410Y0214476D01*
X0144032Y0215854D01*
X0142231Y0216600D01*
X0140281Y0216600D01*
X0138480Y0215854D01*
X0137818Y0215192D02*
X0134694Y0215192D01*
X0135527Y0214193D02*
X0136985Y0214193D01*
X0136571Y0213195D02*
X0135940Y0213195D01*
X0136156Y0212196D02*
X0136356Y0212196D01*
X0136356Y0211198D02*
X0136156Y0211198D01*
X0136156Y0210199D02*
X0136356Y0210199D01*
X0136356Y0209201D02*
X0136156Y0209201D01*
X0136156Y0208202D02*
X0136356Y0208202D01*
X0136356Y0207204D02*
X0136156Y0207204D01*
X0136156Y0206205D02*
X0136356Y0206205D01*
X0136356Y0205207D02*
X0136156Y0205207D01*
X0136107Y0204208D02*
X0136404Y0204208D01*
X0136818Y0203210D02*
X0135694Y0203210D01*
X0135097Y0202211D02*
X0137415Y0202211D01*
X0138414Y0201213D02*
X0134098Y0201213D01*
X0144098Y0201213D02*
X0148414Y0201213D01*
X0148480Y0201146D02*
X0150281Y0200400D01*
X0152231Y0200400D01*
X0154032Y0201146D01*
X0155410Y0202524D01*
X0156156Y0204325D01*
X0156156Y0212675D01*
X0155410Y0214476D01*
X0154032Y0215854D01*
X0152231Y0216600D01*
X0150281Y0216600D01*
X0148480Y0215854D01*
X0147102Y0214476D01*
X0146356Y0212675D01*
X0146356Y0204325D01*
X0147102Y0202524D01*
X0148480Y0201146D01*
X0147415Y0202211D02*
X0145097Y0202211D01*
X0145694Y0203210D02*
X0146818Y0203210D01*
X0146404Y0204208D02*
X0146107Y0204208D01*
X0146156Y0205207D02*
X0146356Y0205207D01*
X0146356Y0206205D02*
X0146156Y0206205D01*
X0146156Y0207204D02*
X0146356Y0207204D01*
X0146356Y0208202D02*
X0146156Y0208202D01*
X0146156Y0209201D02*
X0146356Y0209201D01*
X0146356Y0210199D02*
X0146156Y0210199D01*
X0146156Y0211198D02*
X0146356Y0211198D01*
X0146356Y0212196D02*
X0146156Y0212196D01*
X0145940Y0213195D02*
X0146571Y0213195D01*
X0146985Y0214193D02*
X0145527Y0214193D01*
X0144694Y0215192D02*
X0147818Y0215192D01*
X0149292Y0216190D02*
X0143220Y0216190D01*
X0153220Y0216190D02*
X0159292Y0216190D01*
X0158480Y0215854D02*
X0157102Y0214476D01*
X0156356Y0212675D01*
X0156356Y0204325D01*
X0157102Y0202524D01*
X0158480Y0201146D01*
X0160281Y0200400D01*
X0162231Y0200400D01*
X0164032Y0201146D01*
X0165410Y0202524D01*
X0166156Y0204325D01*
X0166156Y0212675D01*
X0165410Y0214476D01*
X0164032Y0215854D01*
X0162231Y0216600D01*
X0160281Y0216600D01*
X0158480Y0215854D01*
X0157818Y0215192D02*
X0154694Y0215192D01*
X0155527Y0214193D02*
X0156985Y0214193D01*
X0156571Y0213195D02*
X0155940Y0213195D01*
X0156156Y0212196D02*
X0156356Y0212196D01*
X0156356Y0211198D02*
X0156156Y0211198D01*
X0156156Y0210199D02*
X0156356Y0210199D01*
X0156356Y0209201D02*
X0156156Y0209201D01*
X0156156Y0208202D02*
X0156356Y0208202D01*
X0156356Y0207204D02*
X0156156Y0207204D01*
X0156156Y0206205D02*
X0156356Y0206205D01*
X0156356Y0205207D02*
X0156156Y0205207D01*
X0156107Y0204208D02*
X0156404Y0204208D01*
X0156818Y0203210D02*
X0155694Y0203210D01*
X0155097Y0202211D02*
X0157415Y0202211D01*
X0158414Y0201213D02*
X0154098Y0201213D01*
X0164098Y0201213D02*
X0168414Y0201213D01*
X0168480Y0201146D02*
X0170281Y0200400D01*
X0172231Y0200400D01*
X0174032Y0201146D01*
X0175410Y0202524D01*
X0176156Y0204325D01*
X0176156Y0212675D01*
X0175410Y0214476D01*
X0174032Y0215854D01*
X0172231Y0216600D01*
X0170281Y0216600D01*
X0168480Y0215854D01*
X0167102Y0214476D01*
X0166356Y0212675D01*
X0166356Y0204325D01*
X0167102Y0202524D01*
X0168480Y0201146D01*
X0167415Y0202211D02*
X0165097Y0202211D01*
X0165694Y0203210D02*
X0166818Y0203210D01*
X0166404Y0204208D02*
X0166107Y0204208D01*
X0166156Y0205207D02*
X0166356Y0205207D01*
X0166356Y0206205D02*
X0166156Y0206205D01*
X0166156Y0207204D02*
X0166356Y0207204D01*
X0166356Y0208202D02*
X0166156Y0208202D01*
X0166156Y0209201D02*
X0166356Y0209201D01*
X0166356Y0210199D02*
X0166156Y0210199D01*
X0166156Y0211198D02*
X0166356Y0211198D01*
X0166356Y0212196D02*
X0166156Y0212196D01*
X0165940Y0213195D02*
X0166571Y0213195D01*
X0166985Y0214193D02*
X0165527Y0214193D01*
X0164694Y0215192D02*
X0167818Y0215192D01*
X0169292Y0216190D02*
X0163220Y0216190D01*
X0173220Y0216190D02*
X0179292Y0216190D01*
X0178480Y0215854D02*
X0180281Y0216600D01*
X0182231Y0216600D01*
X0184032Y0215854D01*
X0185410Y0214476D01*
X0186156Y0212675D01*
X0186156Y0204325D01*
X0185410Y0202524D01*
X0184032Y0201146D01*
X0182231Y0200400D01*
X0180281Y0200400D01*
X0178480Y0201146D01*
X0177102Y0202524D01*
X0176356Y0204325D01*
X0176356Y0212675D01*
X0177102Y0214476D01*
X0178480Y0215854D01*
X0177818Y0215192D02*
X0174694Y0215192D01*
X0175527Y0214193D02*
X0176985Y0214193D01*
X0176571Y0213195D02*
X0175940Y0213195D01*
X0176156Y0212196D02*
X0176356Y0212196D01*
X0176356Y0211198D02*
X0176156Y0211198D01*
X0176156Y0210199D02*
X0176356Y0210199D01*
X0176356Y0209201D02*
X0176156Y0209201D01*
X0176156Y0208202D02*
X0176356Y0208202D01*
X0176356Y0207204D02*
X0176156Y0207204D01*
X0176156Y0206205D02*
X0176356Y0206205D01*
X0176356Y0205207D02*
X0176156Y0205207D01*
X0176107Y0204208D02*
X0176404Y0204208D01*
X0176818Y0203210D02*
X0175694Y0203210D01*
X0175097Y0202211D02*
X0177415Y0202211D01*
X0178414Y0201213D02*
X0174098Y0201213D01*
X0184098Y0201213D02*
X0188414Y0201213D01*
X0188480Y0201146D02*
X0190281Y0200400D01*
X0192231Y0200400D01*
X0194032Y0201146D01*
X0195410Y0202524D01*
X0196156Y0204325D01*
X0196156Y0212675D01*
X0195410Y0214476D01*
X0194032Y0215854D01*
X0192231Y0216600D01*
X0190281Y0216600D01*
X0188480Y0215854D01*
X0187102Y0214476D01*
X0186356Y0212675D01*
X0186356Y0204325D01*
X0187102Y0202524D01*
X0188480Y0201146D01*
X0187415Y0202211D02*
X0185097Y0202211D01*
X0185694Y0203210D02*
X0186818Y0203210D01*
X0186404Y0204208D02*
X0186107Y0204208D01*
X0186156Y0205207D02*
X0186356Y0205207D01*
X0186356Y0206205D02*
X0186156Y0206205D01*
X0186156Y0207204D02*
X0186356Y0207204D01*
X0186356Y0208202D02*
X0186156Y0208202D01*
X0186156Y0209201D02*
X0186356Y0209201D01*
X0186356Y0210199D02*
X0186156Y0210199D01*
X0186156Y0211198D02*
X0186356Y0211198D01*
X0186356Y0212196D02*
X0186156Y0212196D01*
X0185940Y0213195D02*
X0186571Y0213195D01*
X0186985Y0214193D02*
X0185527Y0214193D01*
X0184694Y0215192D02*
X0187818Y0215192D01*
X0189292Y0216190D02*
X0183220Y0216190D01*
X0193220Y0216190D02*
X0199292Y0216190D01*
X0198480Y0215854D02*
X0197102Y0214476D01*
X0196356Y0212675D01*
X0196356Y0204325D01*
X0197102Y0202524D01*
X0198480Y0201146D01*
X0200281Y0200400D01*
X0202231Y0200400D01*
X0204032Y0201146D01*
X0205410Y0202524D01*
X0206156Y0204325D01*
X0206156Y0212675D01*
X0205410Y0214476D01*
X0204032Y0215854D01*
X0202231Y0216600D01*
X0200281Y0216600D01*
X0198480Y0215854D01*
X0197818Y0215192D02*
X0194694Y0215192D01*
X0195527Y0214193D02*
X0196985Y0214193D01*
X0196571Y0213195D02*
X0195940Y0213195D01*
X0196156Y0212196D02*
X0196356Y0212196D01*
X0196356Y0211198D02*
X0196156Y0211198D01*
X0196156Y0210199D02*
X0196356Y0210199D01*
X0196356Y0209201D02*
X0196156Y0209201D01*
X0196156Y0208202D02*
X0196356Y0208202D01*
X0196356Y0207204D02*
X0196156Y0207204D01*
X0196156Y0206205D02*
X0196356Y0206205D01*
X0196356Y0205207D02*
X0196156Y0205207D01*
X0196107Y0204208D02*
X0196404Y0204208D01*
X0196818Y0203210D02*
X0195694Y0203210D01*
X0195097Y0202211D02*
X0197415Y0202211D01*
X0198414Y0201213D02*
X0194098Y0201213D01*
X0204098Y0201213D02*
X0218414Y0201213D01*
X0218480Y0201146D02*
X0220281Y0200400D01*
X0222231Y0200400D01*
X0224032Y0201146D01*
X0225410Y0202524D01*
X0226156Y0204325D01*
X0226156Y0212675D01*
X0225410Y0214476D01*
X0224032Y0215854D01*
X0222231Y0216600D01*
X0220281Y0216600D01*
X0218480Y0215854D01*
X0217102Y0214476D01*
X0216356Y0212675D01*
X0216356Y0204325D01*
X0217102Y0202524D01*
X0218480Y0201146D01*
X0217415Y0202211D02*
X0205097Y0202211D01*
X0205694Y0203210D02*
X0216818Y0203210D01*
X0216404Y0204208D02*
X0206107Y0204208D01*
X0206156Y0205207D02*
X0216356Y0205207D01*
X0216356Y0206205D02*
X0206156Y0206205D01*
X0206156Y0207204D02*
X0216356Y0207204D01*
X0216356Y0208202D02*
X0206156Y0208202D01*
X0206156Y0209201D02*
X0216356Y0209201D01*
X0216356Y0210199D02*
X0206156Y0210199D01*
X0206156Y0211198D02*
X0216356Y0211198D01*
X0216356Y0212196D02*
X0206156Y0212196D01*
X0205940Y0213195D02*
X0216571Y0213195D01*
X0216985Y0214193D02*
X0205527Y0214193D01*
X0204694Y0215192D02*
X0217818Y0215192D01*
X0219292Y0216190D02*
X0203220Y0216190D01*
X0223220Y0216190D02*
X0229292Y0216190D01*
X0228480Y0215854D02*
X0230281Y0216600D01*
X0232231Y0216600D01*
X0234032Y0215854D01*
X0235410Y0214476D01*
X0236156Y0212675D01*
X0236156Y0204325D01*
X0235410Y0202524D01*
X0234032Y0201146D01*
X0232231Y0200400D01*
X0230281Y0200400D01*
X0228480Y0201146D01*
X0227102Y0202524D01*
X0226356Y0204325D01*
X0226356Y0212675D01*
X0227102Y0214476D01*
X0228480Y0215854D01*
X0227818Y0215192D02*
X0224694Y0215192D01*
X0225527Y0214193D02*
X0226985Y0214193D01*
X0226571Y0213195D02*
X0225940Y0213195D01*
X0226156Y0212196D02*
X0226356Y0212196D01*
X0226356Y0211198D02*
X0226156Y0211198D01*
X0226156Y0210199D02*
X0226356Y0210199D01*
X0226356Y0209201D02*
X0226156Y0209201D01*
X0226156Y0208202D02*
X0226356Y0208202D01*
X0226356Y0207204D02*
X0226156Y0207204D01*
X0226156Y0206205D02*
X0226356Y0206205D01*
X0226356Y0205207D02*
X0226156Y0205207D01*
X0226107Y0204208D02*
X0226404Y0204208D01*
X0226818Y0203210D02*
X0225694Y0203210D01*
X0225097Y0202211D02*
X0227415Y0202211D01*
X0228414Y0201213D02*
X0224098Y0201213D01*
X0234098Y0201213D02*
X0238414Y0201213D01*
X0238480Y0201146D02*
X0237102Y0202524D01*
X0236356Y0204325D01*
X0236356Y0212675D01*
X0237102Y0214476D01*
X0238480Y0215854D01*
X0240281Y0216600D01*
X0242231Y0216600D01*
X0244032Y0215854D01*
X0245410Y0214476D01*
X0246156Y0212675D01*
X0246156Y0204325D01*
X0245410Y0202524D01*
X0244032Y0201146D01*
X0242231Y0200400D01*
X0240281Y0200400D01*
X0238480Y0201146D01*
X0237415Y0202211D02*
X0235097Y0202211D01*
X0235694Y0203210D02*
X0236818Y0203210D01*
X0236404Y0204208D02*
X0236107Y0204208D01*
X0236156Y0205207D02*
X0236356Y0205207D01*
X0236356Y0206205D02*
X0236156Y0206205D01*
X0236156Y0207204D02*
X0236356Y0207204D01*
X0236356Y0208202D02*
X0236156Y0208202D01*
X0236156Y0209201D02*
X0236356Y0209201D01*
X0236356Y0210199D02*
X0236156Y0210199D01*
X0236156Y0211198D02*
X0236356Y0211198D01*
X0236356Y0212196D02*
X0236156Y0212196D01*
X0235940Y0213195D02*
X0236571Y0213195D01*
X0236985Y0214193D02*
X0235527Y0214193D01*
X0234694Y0215192D02*
X0237818Y0215192D01*
X0239292Y0216190D02*
X0233220Y0216190D01*
X0243220Y0216190D02*
X0249292Y0216190D01*
X0248480Y0215854D02*
X0247102Y0214476D01*
X0246356Y0212675D01*
X0246356Y0204325D01*
X0247102Y0202524D01*
X0248480Y0201146D01*
X0250281Y0200400D01*
X0252231Y0200400D01*
X0254032Y0201146D01*
X0255410Y0202524D01*
X0256156Y0204325D01*
X0256156Y0212675D01*
X0255410Y0214476D01*
X0254032Y0215854D01*
X0252231Y0216600D01*
X0250281Y0216600D01*
X0248480Y0215854D01*
X0247818Y0215192D02*
X0244694Y0215192D01*
X0245527Y0214193D02*
X0246985Y0214193D01*
X0246571Y0213195D02*
X0245940Y0213195D01*
X0246156Y0212196D02*
X0246356Y0212196D01*
X0246356Y0211198D02*
X0246156Y0211198D01*
X0246156Y0210199D02*
X0246356Y0210199D01*
X0246356Y0209201D02*
X0246156Y0209201D01*
X0246156Y0208202D02*
X0246356Y0208202D01*
X0246356Y0207204D02*
X0246156Y0207204D01*
X0246156Y0206205D02*
X0246356Y0206205D01*
X0246356Y0205207D02*
X0246156Y0205207D01*
X0246107Y0204208D02*
X0246404Y0204208D01*
X0246818Y0203210D02*
X0245694Y0203210D01*
X0245097Y0202211D02*
X0247415Y0202211D01*
X0248414Y0201213D02*
X0244098Y0201213D01*
X0254098Y0201213D02*
X0258414Y0201213D01*
X0258480Y0201146D02*
X0260281Y0200400D01*
X0262231Y0200400D01*
X0264032Y0201146D01*
X0265410Y0202524D01*
X0266156Y0204325D01*
X0266156Y0212675D01*
X0265410Y0214476D01*
X0264032Y0215854D01*
X0262231Y0216600D01*
X0260281Y0216600D01*
X0258480Y0215854D01*
X0257102Y0214476D01*
X0256356Y0212675D01*
X0256356Y0204325D01*
X0257102Y0202524D01*
X0258480Y0201146D01*
X0257415Y0202211D02*
X0255097Y0202211D01*
X0255694Y0203210D02*
X0256818Y0203210D01*
X0256404Y0204208D02*
X0256107Y0204208D01*
X0256156Y0205207D02*
X0256356Y0205207D01*
X0256356Y0206205D02*
X0256156Y0206205D01*
X0256156Y0207204D02*
X0256356Y0207204D01*
X0256356Y0208202D02*
X0256156Y0208202D01*
X0256156Y0209201D02*
X0256356Y0209201D01*
X0256356Y0210199D02*
X0256156Y0210199D01*
X0256156Y0211198D02*
X0256356Y0211198D01*
X0256356Y0212196D02*
X0256156Y0212196D01*
X0255940Y0213195D02*
X0256571Y0213195D01*
X0256985Y0214193D02*
X0255527Y0214193D01*
X0254694Y0215192D02*
X0257818Y0215192D01*
X0259292Y0216190D02*
X0253220Y0216190D01*
X0263220Y0216190D02*
X0269292Y0216190D01*
X0268480Y0215854D02*
X0267102Y0214476D01*
X0266356Y0212675D01*
X0266356Y0204325D01*
X0267102Y0202524D01*
X0268480Y0201146D01*
X0270281Y0200400D01*
X0272231Y0200400D01*
X0274032Y0201146D01*
X0275410Y0202524D01*
X0276156Y0204325D01*
X0276156Y0212675D01*
X0275410Y0214476D01*
X0274032Y0215854D01*
X0272231Y0216600D01*
X0270281Y0216600D01*
X0268480Y0215854D01*
X0267818Y0215192D02*
X0264694Y0215192D01*
X0265527Y0214193D02*
X0266985Y0214193D01*
X0266571Y0213195D02*
X0265940Y0213195D01*
X0266156Y0212196D02*
X0266356Y0212196D01*
X0266356Y0211198D02*
X0266156Y0211198D01*
X0266156Y0210199D02*
X0266356Y0210199D01*
X0266356Y0209201D02*
X0266156Y0209201D01*
X0266156Y0208202D02*
X0266356Y0208202D01*
X0266356Y0207204D02*
X0266156Y0207204D01*
X0266156Y0206205D02*
X0266356Y0206205D01*
X0266356Y0205207D02*
X0266156Y0205207D01*
X0266107Y0204208D02*
X0266404Y0204208D01*
X0266818Y0203210D02*
X0265694Y0203210D01*
X0265097Y0202211D02*
X0267415Y0202211D01*
X0268414Y0201213D02*
X0264098Y0201213D01*
X0274098Y0201213D02*
X0278414Y0201213D01*
X0278480Y0201146D02*
X0280281Y0200400D01*
X0282231Y0200400D01*
X0284032Y0201146D01*
X0285410Y0202524D01*
X0286156Y0204325D01*
X0286156Y0212675D01*
X0285410Y0214476D01*
X0284032Y0215854D01*
X0282231Y0216600D01*
X0280281Y0216600D01*
X0278480Y0215854D01*
X0277102Y0214476D01*
X0276356Y0212675D01*
X0276356Y0204325D01*
X0277102Y0202524D01*
X0278480Y0201146D01*
X0277415Y0202211D02*
X0275097Y0202211D01*
X0275694Y0203210D02*
X0276818Y0203210D01*
X0276404Y0204208D02*
X0276107Y0204208D01*
X0276156Y0205207D02*
X0276356Y0205207D01*
X0276356Y0206205D02*
X0276156Y0206205D01*
X0276156Y0207204D02*
X0276356Y0207204D01*
X0276356Y0208202D02*
X0276156Y0208202D01*
X0276156Y0209201D02*
X0276356Y0209201D01*
X0276356Y0210199D02*
X0276156Y0210199D01*
X0276156Y0211198D02*
X0276356Y0211198D01*
X0276356Y0212196D02*
X0276156Y0212196D01*
X0275940Y0213195D02*
X0276571Y0213195D01*
X0276985Y0214193D02*
X0275527Y0214193D01*
X0274694Y0215192D02*
X0277818Y0215192D01*
X0279292Y0216190D02*
X0273220Y0216190D01*
X0283220Y0216190D02*
X0289292Y0216190D01*
X0288480Y0215854D02*
X0290281Y0216600D01*
X0292231Y0216600D01*
X0294032Y0215854D01*
X0295410Y0214476D01*
X0296156Y0212675D01*
X0296156Y0204325D01*
X0295410Y0202524D01*
X0294032Y0201146D01*
X0292231Y0200400D01*
X0290281Y0200400D01*
X0288480Y0201146D01*
X0287102Y0202524D01*
X0286356Y0204325D01*
X0286356Y0212675D01*
X0287102Y0214476D01*
X0288480Y0215854D01*
X0287818Y0215192D02*
X0284694Y0215192D01*
X0285527Y0214193D02*
X0286985Y0214193D01*
X0286571Y0213195D02*
X0285940Y0213195D01*
X0286156Y0212196D02*
X0286356Y0212196D01*
X0286356Y0211198D02*
X0286156Y0211198D01*
X0286156Y0210199D02*
X0286356Y0210199D01*
X0286356Y0209201D02*
X0286156Y0209201D01*
X0286156Y0208202D02*
X0286356Y0208202D01*
X0286356Y0207204D02*
X0286156Y0207204D01*
X0286156Y0206205D02*
X0286356Y0206205D01*
X0286356Y0205207D02*
X0286156Y0205207D01*
X0286107Y0204208D02*
X0286404Y0204208D01*
X0286818Y0203210D02*
X0285694Y0203210D01*
X0285097Y0202211D02*
X0287415Y0202211D01*
X0288414Y0201213D02*
X0284098Y0201213D01*
X0294098Y0201213D02*
X0303257Y0201213D01*
X0303257Y0202211D02*
X0295097Y0202211D01*
X0295694Y0203210D02*
X0303257Y0203210D01*
X0303257Y0204208D02*
X0296107Y0204208D01*
X0296156Y0205207D02*
X0303257Y0205207D01*
X0303257Y0206205D02*
X0296156Y0206205D01*
X0296156Y0207204D02*
X0303257Y0207204D01*
X0303257Y0208202D02*
X0296156Y0208202D01*
X0296156Y0209201D02*
X0303257Y0209201D01*
X0303257Y0210199D02*
X0296156Y0210199D01*
X0296156Y0211198D02*
X0303257Y0211198D01*
X0303257Y0212196D02*
X0296156Y0212196D01*
X0295940Y0213195D02*
X0303257Y0213195D01*
X0303257Y0214193D02*
X0295527Y0214193D01*
X0294694Y0215192D02*
X0303257Y0215192D01*
X0303257Y0216190D02*
X0293220Y0216190D01*
X0253820Y0191228D02*
X0234212Y0191228D01*
X0235388Y0190229D02*
X0252821Y0190229D01*
X0252302Y0189231D02*
X0236000Y0189231D01*
X0236294Y0188232D02*
X0251956Y0188232D01*
X0229556Y0188232D02*
X0228956Y0188232D01*
X0228956Y0189231D02*
X0229556Y0189231D01*
X0229556Y0190229D02*
X0228956Y0190229D01*
X0228956Y0191228D02*
X0229556Y0191228D01*
X0229556Y0186235D02*
X0228956Y0186235D01*
X0228956Y0185237D02*
X0229556Y0185237D01*
X0229556Y0184238D02*
X0228956Y0184238D01*
X0228956Y0183239D02*
X0229556Y0183239D01*
X0225868Y0183239D02*
X0175088Y0183239D01*
X0173291Y0184238D02*
X0223637Y0184238D01*
X0228956Y0137308D02*
X0229556Y0137308D01*
X0229556Y0136309D02*
X0228956Y0136309D01*
X0228956Y0135311D02*
X0229556Y0135311D01*
X0229556Y0134312D02*
X0228956Y0134312D01*
X0228956Y0132315D02*
X0229556Y0132315D01*
X0229556Y0131317D02*
X0228956Y0131317D01*
X0228956Y0130318D02*
X0229556Y0130318D01*
X0229556Y0129320D02*
X0228956Y0129320D01*
X0225406Y0129320D02*
X0179008Y0129320D01*
X0178009Y0130318D02*
X0223556Y0130318D01*
X0236454Y0102360D02*
X0252305Y0102360D01*
X0252719Y0101362D02*
X0236041Y0101362D01*
X0235283Y0100363D02*
X0253512Y0100363D01*
X0255268Y0099365D02*
X0233831Y0099365D01*
X0258956Y0099365D02*
X0259556Y0099365D01*
X0259556Y0100363D02*
X0258956Y0100363D01*
X0258956Y0101362D02*
X0259556Y0101362D01*
X0259556Y0102360D02*
X0258956Y0102360D01*
X0258956Y0104357D02*
X0259556Y0104357D01*
X0259556Y0105356D02*
X0258956Y0105356D01*
X0258956Y0106354D02*
X0259556Y0106354D01*
X0259556Y0107353D02*
X0258956Y0107353D01*
X0263795Y0109350D02*
X0303257Y0109350D01*
X0303257Y0110348D02*
X0265268Y0110348D01*
X0266035Y0111347D02*
X0303257Y0111347D01*
X0303257Y0112345D02*
X0266448Y0112345D01*
X0266556Y0113344D02*
X0303257Y0113344D01*
X0303257Y0114342D02*
X0266556Y0114342D01*
X0266164Y0115341D02*
X0303257Y0115341D01*
X0303257Y0116339D02*
X0265581Y0116339D01*
X0266207Y0102360D02*
X0303257Y0102360D01*
X0303257Y0101362D02*
X0265792Y0101362D01*
X0265000Y0100363D02*
X0303257Y0100363D01*
X0303257Y0099365D02*
X0263243Y0099365D01*
X0303257Y0032464D02*
X0048657Y0032464D01*
X0048386Y0031466D02*
X0303257Y0031466D01*
X0303257Y0030467D02*
X0047913Y0030467D01*
X0047120Y0029469D02*
X0303257Y0029469D01*
X0303257Y0028470D02*
X0045853Y0028470D01*
X0056356Y0022479D02*
X0012956Y0022479D01*
X0012956Y0021481D02*
X0056356Y0021481D01*
X0056356Y0020482D02*
X0012956Y0020482D01*
X0012956Y0019484D02*
X0056356Y0019484D01*
X0056356Y0018485D02*
X0012956Y0018485D01*
X0012956Y0017487D02*
X0056356Y0017487D01*
X0056356Y0016488D02*
X0012956Y0016488D01*
X0012956Y0015490D02*
X0056356Y0015490D01*
X0056356Y0014491D02*
X0012956Y0014491D01*
X0012956Y0013493D02*
X0056701Y0013493D01*
X0057132Y0012494D02*
X0012956Y0012494D01*
X0012956Y0011496D02*
X0058131Y0011496D01*
X0064381Y0011496D02*
X0068131Y0011496D01*
X0067132Y0012494D02*
X0065380Y0012494D01*
X0065811Y0013493D02*
X0066701Y0013493D01*
X0066356Y0014491D02*
X0066156Y0014491D01*
X0066156Y0015490D02*
X0066356Y0015490D01*
X0066356Y0016488D02*
X0066156Y0016488D01*
X0066156Y0017487D02*
X0066356Y0017487D01*
X0066356Y0018485D02*
X0066156Y0018485D01*
X0066156Y0019484D02*
X0066356Y0019484D01*
X0066356Y0020482D02*
X0066156Y0020482D01*
X0066156Y0021481D02*
X0066356Y0021481D01*
X0066356Y0022479D02*
X0066156Y0022479D01*
X0065823Y0023478D02*
X0066689Y0023478D01*
X0067102Y0024476D02*
X0065409Y0024476D01*
X0064411Y0025475D02*
X0068101Y0025475D01*
X0069975Y0026473D02*
X0062537Y0026473D01*
X0059975Y0026473D02*
X0012956Y0026473D01*
X0012956Y0025475D02*
X0058101Y0025475D01*
X0057102Y0024476D02*
X0012956Y0024476D01*
X0012956Y0023478D02*
X0056689Y0023478D01*
X0072537Y0026473D02*
X0079975Y0026473D01*
X0078101Y0025475D02*
X0074411Y0025475D01*
X0075409Y0024476D02*
X0077102Y0024476D01*
X0076689Y0023478D02*
X0075823Y0023478D01*
X0076156Y0022479D02*
X0076356Y0022479D01*
X0076356Y0021481D02*
X0076156Y0021481D01*
X0076156Y0020482D02*
X0076356Y0020482D01*
X0076356Y0019484D02*
X0076156Y0019484D01*
X0076156Y0018485D02*
X0076356Y0018485D01*
X0076356Y0017487D02*
X0076156Y0017487D01*
X0076156Y0016488D02*
X0076356Y0016488D01*
X0076356Y0015490D02*
X0076156Y0015490D01*
X0076156Y0014491D02*
X0076356Y0014491D01*
X0076701Y0013493D02*
X0075811Y0013493D01*
X0075380Y0012494D02*
X0077132Y0012494D01*
X0078131Y0011496D02*
X0074381Y0011496D01*
X0084381Y0011496D02*
X0088131Y0011496D01*
X0087132Y0012494D02*
X0085380Y0012494D01*
X0085811Y0013493D02*
X0086701Y0013493D01*
X0086356Y0014491D02*
X0086156Y0014491D01*
X0086156Y0015490D02*
X0086356Y0015490D01*
X0086356Y0016488D02*
X0086156Y0016488D01*
X0086156Y0017487D02*
X0086356Y0017487D01*
X0086356Y0018485D02*
X0086156Y0018485D01*
X0086156Y0019484D02*
X0086356Y0019484D01*
X0086356Y0020482D02*
X0086156Y0020482D01*
X0086156Y0021481D02*
X0086356Y0021481D01*
X0086356Y0022479D02*
X0086156Y0022479D01*
X0085823Y0023478D02*
X0086689Y0023478D01*
X0087102Y0024476D02*
X0085409Y0024476D01*
X0084411Y0025475D02*
X0088101Y0025475D01*
X0089975Y0026473D02*
X0082537Y0026473D01*
X0092537Y0026473D02*
X0099975Y0026473D01*
X0098101Y0025475D02*
X0094411Y0025475D01*
X0095409Y0024476D02*
X0097102Y0024476D01*
X0096689Y0023478D02*
X0095823Y0023478D01*
X0096156Y0022479D02*
X0096356Y0022479D01*
X0096356Y0021481D02*
X0096156Y0021481D01*
X0096156Y0020482D02*
X0096356Y0020482D01*
X0096356Y0019484D02*
X0096156Y0019484D01*
X0096156Y0018485D02*
X0096356Y0018485D01*
X0096356Y0017487D02*
X0096156Y0017487D01*
X0096156Y0016488D02*
X0096356Y0016488D01*
X0096356Y0015490D02*
X0096156Y0015490D01*
X0096156Y0014491D02*
X0096356Y0014491D01*
X0096701Y0013493D02*
X0095811Y0013493D01*
X0095380Y0012494D02*
X0097132Y0012494D01*
X0098131Y0011496D02*
X0094381Y0011496D01*
X0104381Y0011496D02*
X0108496Y0011496D01*
X0108793Y0011280D02*
X0109452Y0010944D01*
X0110155Y0010716D01*
X0110756Y0010621D01*
X0110756Y0018000D01*
X0111756Y0018000D01*
X0111756Y0019000D01*
X0115956Y0019000D01*
X0115956Y0022070D01*
X0115840Y0022801D01*
X0115612Y0023504D01*
X0115276Y0024163D01*
X0114841Y0024762D01*
X0114318Y0025285D01*
X0113719Y0025720D01*
X0113060Y0026056D01*
X0112356Y0026284D01*
X0111756Y0026379D01*
X0111756Y0019000D01*
X0110756Y0019000D01*
X0110756Y0026379D01*
X0110155Y0026284D01*
X0109452Y0026056D01*
X0108793Y0025720D01*
X0108194Y0025285D01*
X0107671Y0024762D01*
X0107236Y0024163D01*
X0106900Y0023504D01*
X0106672Y0022801D01*
X0106556Y0022070D01*
X0106556Y0019000D01*
X0110756Y0019000D01*
X0110756Y0018000D01*
X0106556Y0018000D01*
X0106556Y0014930D01*
X0106672Y0014199D01*
X0106900Y0013496D01*
X0107236Y0012837D01*
X0107671Y0012238D01*
X0108194Y0011715D01*
X0108793Y0011280D01*
X0107485Y0012494D02*
X0105380Y0012494D01*
X0105811Y0013493D02*
X0106902Y0013493D01*
X0106625Y0014491D02*
X0106156Y0014491D01*
X0106156Y0015490D02*
X0106556Y0015490D01*
X0106556Y0016488D02*
X0106156Y0016488D01*
X0106156Y0017487D02*
X0106556Y0017487D01*
X0106156Y0018485D02*
X0110756Y0018485D01*
X0110756Y0017487D02*
X0111756Y0017487D01*
X0111756Y0018000D02*
X0111756Y0010621D01*
X0112356Y0010716D01*
X0113060Y0010944D01*
X0113719Y0011280D01*
X0114318Y0011715D01*
X0114841Y0012238D01*
X0115276Y0012837D01*
X0115612Y0013496D01*
X0115840Y0014199D01*
X0115956Y0014930D01*
X0115956Y0018000D01*
X0111756Y0018000D01*
X0111756Y0018485D02*
X0116356Y0018485D01*
X0116356Y0017487D02*
X0115956Y0017487D01*
X0115956Y0016488D02*
X0116356Y0016488D01*
X0116356Y0015490D02*
X0115956Y0015490D01*
X0115886Y0014491D02*
X0116356Y0014491D01*
X0116701Y0013493D02*
X0115610Y0013493D01*
X0115027Y0012494D02*
X0117132Y0012494D01*
X0118131Y0011496D02*
X0114016Y0011496D01*
X0111756Y0011496D02*
X0110756Y0011496D01*
X0110756Y0012494D02*
X0111756Y0012494D01*
X0111756Y0013493D02*
X0110756Y0013493D01*
X0110756Y0014491D02*
X0111756Y0014491D01*
X0111756Y0015490D02*
X0110756Y0015490D01*
X0110756Y0016488D02*
X0111756Y0016488D01*
X0111756Y0019484D02*
X0110756Y0019484D01*
X0110756Y0020482D02*
X0111756Y0020482D01*
X0111756Y0021481D02*
X0110756Y0021481D01*
X0110756Y0022479D02*
X0111756Y0022479D01*
X0111756Y0023478D02*
X0110756Y0023478D01*
X0110756Y0024476D02*
X0111756Y0024476D01*
X0111756Y0025475D02*
X0110756Y0025475D01*
X0108455Y0025475D02*
X0104411Y0025475D01*
X0105409Y0024476D02*
X0107463Y0024476D01*
X0106892Y0023478D02*
X0105823Y0023478D01*
X0106156Y0022479D02*
X0106621Y0022479D01*
X0106556Y0021481D02*
X0106156Y0021481D01*
X0106156Y0020482D02*
X0106556Y0020482D01*
X0106556Y0019484D02*
X0106156Y0019484D01*
X0102537Y0026473D02*
X0119975Y0026473D01*
X0118101Y0025475D02*
X0114057Y0025475D01*
X0115048Y0024476D02*
X0117102Y0024476D01*
X0116689Y0023478D02*
X0115620Y0023478D01*
X0115891Y0022479D02*
X0116356Y0022479D01*
X0116356Y0021481D02*
X0115956Y0021481D01*
X0115956Y0020482D02*
X0116356Y0020482D01*
X0116356Y0019484D02*
X0115956Y0019484D01*
X0122537Y0026473D02*
X0129975Y0026473D01*
X0128101Y0025475D02*
X0124411Y0025475D01*
X0125409Y0024476D02*
X0127102Y0024476D01*
X0126689Y0023478D02*
X0125823Y0023478D01*
X0126156Y0022479D02*
X0126356Y0022479D01*
X0126356Y0021481D02*
X0126156Y0021481D01*
X0126156Y0020482D02*
X0126356Y0020482D01*
X0126356Y0019484D02*
X0126156Y0019484D01*
X0126156Y0018485D02*
X0126356Y0018485D01*
X0126356Y0017487D02*
X0126156Y0017487D01*
X0126156Y0016488D02*
X0126356Y0016488D01*
X0126356Y0015490D02*
X0126156Y0015490D01*
X0126156Y0014491D02*
X0126356Y0014491D01*
X0126701Y0013493D02*
X0125811Y0013493D01*
X0125380Y0012494D02*
X0127132Y0012494D01*
X0128131Y0011496D02*
X0124381Y0011496D01*
X0134381Y0011496D02*
X0148131Y0011496D01*
X0147132Y0012494D02*
X0135380Y0012494D01*
X0135811Y0013493D02*
X0146701Y0013493D01*
X0146356Y0014491D02*
X0136156Y0014491D01*
X0136156Y0015490D02*
X0146356Y0015490D01*
X0146356Y0016488D02*
X0136156Y0016488D01*
X0136156Y0017487D02*
X0146356Y0017487D01*
X0146356Y0018485D02*
X0136156Y0018485D01*
X0136156Y0019484D02*
X0146356Y0019484D01*
X0146356Y0020482D02*
X0136156Y0020482D01*
X0136156Y0021481D02*
X0146356Y0021481D01*
X0146356Y0022479D02*
X0136156Y0022479D01*
X0135823Y0023478D02*
X0146689Y0023478D01*
X0147102Y0024476D02*
X0135409Y0024476D01*
X0134411Y0025475D02*
X0148101Y0025475D01*
X0149975Y0026473D02*
X0132537Y0026473D01*
X0152537Y0026473D02*
X0159975Y0026473D01*
X0158101Y0025475D02*
X0154411Y0025475D01*
X0155409Y0024476D02*
X0157102Y0024476D01*
X0156689Y0023478D02*
X0155823Y0023478D01*
X0156156Y0022479D02*
X0156356Y0022479D01*
X0156356Y0021481D02*
X0156156Y0021481D01*
X0156156Y0020482D02*
X0156356Y0020482D01*
X0156356Y0019484D02*
X0156156Y0019484D01*
X0156156Y0018485D02*
X0156356Y0018485D01*
X0156356Y0017487D02*
X0156156Y0017487D01*
X0156156Y0016488D02*
X0156356Y0016488D01*
X0156356Y0015490D02*
X0156156Y0015490D01*
X0156156Y0014491D02*
X0156356Y0014491D01*
X0156701Y0013493D02*
X0155811Y0013493D01*
X0155380Y0012494D02*
X0157132Y0012494D01*
X0158131Y0011496D02*
X0154381Y0011496D01*
X0164381Y0011496D02*
X0168131Y0011496D01*
X0167132Y0012494D02*
X0165380Y0012494D01*
X0165811Y0013493D02*
X0166701Y0013493D01*
X0166356Y0014491D02*
X0166156Y0014491D01*
X0166156Y0015490D02*
X0166356Y0015490D01*
X0166356Y0016488D02*
X0166156Y0016488D01*
X0166156Y0017487D02*
X0166356Y0017487D01*
X0166356Y0018485D02*
X0166156Y0018485D01*
X0166156Y0019484D02*
X0166356Y0019484D01*
X0166356Y0020482D02*
X0166156Y0020482D01*
X0166156Y0021481D02*
X0166356Y0021481D01*
X0166356Y0022479D02*
X0166156Y0022479D01*
X0165823Y0023478D02*
X0166689Y0023478D01*
X0167102Y0024476D02*
X0165409Y0024476D01*
X0164411Y0025475D02*
X0168101Y0025475D01*
X0169975Y0026473D02*
X0162537Y0026473D01*
X0172537Y0026473D02*
X0179975Y0026473D01*
X0178101Y0025475D02*
X0174411Y0025475D01*
X0175409Y0024476D02*
X0177102Y0024476D01*
X0176689Y0023478D02*
X0175823Y0023478D01*
X0176156Y0022479D02*
X0176356Y0022479D01*
X0176356Y0021481D02*
X0176156Y0021481D01*
X0176156Y0020482D02*
X0176356Y0020482D01*
X0176356Y0019484D02*
X0176156Y0019484D01*
X0176156Y0018485D02*
X0176356Y0018485D01*
X0176356Y0017487D02*
X0176156Y0017487D01*
X0176156Y0016488D02*
X0176356Y0016488D01*
X0176356Y0015490D02*
X0176156Y0015490D01*
X0176156Y0014491D02*
X0176356Y0014491D01*
X0176701Y0013493D02*
X0175811Y0013493D01*
X0175380Y0012494D02*
X0177132Y0012494D01*
X0178131Y0011496D02*
X0174381Y0011496D01*
X0184381Y0011496D02*
X0188131Y0011496D01*
X0187132Y0012494D02*
X0185380Y0012494D01*
X0185811Y0013493D02*
X0186701Y0013493D01*
X0186356Y0014491D02*
X0186156Y0014491D01*
X0186156Y0015490D02*
X0186356Y0015490D01*
X0186356Y0016488D02*
X0186156Y0016488D01*
X0186156Y0017487D02*
X0186356Y0017487D01*
X0186356Y0018485D02*
X0186156Y0018485D01*
X0186156Y0019484D02*
X0186356Y0019484D01*
X0186356Y0020482D02*
X0186156Y0020482D01*
X0186156Y0021481D02*
X0186356Y0021481D01*
X0186356Y0022479D02*
X0186156Y0022479D01*
X0185823Y0023478D02*
X0186689Y0023478D01*
X0187102Y0024476D02*
X0185409Y0024476D01*
X0184411Y0025475D02*
X0188101Y0025475D01*
X0189975Y0026473D02*
X0182537Y0026473D01*
X0192537Y0026473D02*
X0199975Y0026473D01*
X0198101Y0025475D02*
X0194411Y0025475D01*
X0195409Y0024476D02*
X0197102Y0024476D01*
X0196689Y0023478D02*
X0195823Y0023478D01*
X0196156Y0022479D02*
X0196356Y0022479D01*
X0196356Y0021481D02*
X0196156Y0021481D01*
X0196156Y0020482D02*
X0196356Y0020482D01*
X0196356Y0019484D02*
X0196156Y0019484D01*
X0196156Y0018485D02*
X0196356Y0018485D01*
X0196356Y0017487D02*
X0196156Y0017487D01*
X0196156Y0016488D02*
X0196356Y0016488D01*
X0196356Y0015490D02*
X0196156Y0015490D01*
X0196156Y0014491D02*
X0196356Y0014491D01*
X0196701Y0013493D02*
X0195811Y0013493D01*
X0195380Y0012494D02*
X0197132Y0012494D01*
X0198131Y0011496D02*
X0194381Y0011496D01*
X0204381Y0011496D02*
X0208131Y0011496D01*
X0207132Y0012494D02*
X0205380Y0012494D01*
X0205811Y0013493D02*
X0206701Y0013493D01*
X0206356Y0014491D02*
X0206156Y0014491D01*
X0206156Y0015490D02*
X0206356Y0015490D01*
X0206356Y0016488D02*
X0206156Y0016488D01*
X0206156Y0017487D02*
X0206356Y0017487D01*
X0206356Y0018485D02*
X0206156Y0018485D01*
X0206156Y0019484D02*
X0206356Y0019484D01*
X0206356Y0020482D02*
X0206156Y0020482D01*
X0206156Y0021481D02*
X0206356Y0021481D01*
X0206356Y0022479D02*
X0206156Y0022479D01*
X0205823Y0023478D02*
X0206689Y0023478D01*
X0207102Y0024476D02*
X0205409Y0024476D01*
X0204411Y0025475D02*
X0208101Y0025475D01*
X0209975Y0026473D02*
X0202537Y0026473D01*
X0212537Y0026473D02*
X0219975Y0026473D01*
X0218101Y0025475D02*
X0214411Y0025475D01*
X0215409Y0024476D02*
X0217102Y0024476D01*
X0216689Y0023478D02*
X0215823Y0023478D01*
X0216156Y0022479D02*
X0216356Y0022479D01*
X0216356Y0021481D02*
X0216156Y0021481D01*
X0216156Y0020482D02*
X0216356Y0020482D01*
X0216356Y0019484D02*
X0216156Y0019484D01*
X0216156Y0018485D02*
X0216356Y0018485D01*
X0216356Y0017487D02*
X0216156Y0017487D01*
X0216156Y0016488D02*
X0216356Y0016488D01*
X0216356Y0015490D02*
X0216156Y0015490D01*
X0216156Y0014491D02*
X0216356Y0014491D01*
X0216701Y0013493D02*
X0215811Y0013493D01*
X0215380Y0012494D02*
X0217132Y0012494D01*
X0218131Y0011496D02*
X0214381Y0011496D01*
D17*
X0226256Y0035700D03*
X0257956Y0091900D03*
X0257756Y0146000D03*
M02*
