G75*
%MOIN*%
%OFA0B0*%
%FSLAX25Y25*%
%IPPOS*%
%LPD*%
%AMOC8*
5,1,8,0,0,1.08239X$1,22.5*
%
%ADD10C,0.06600*%
%ADD11C,0.05400*%
%ADD12C,0.09200*%
%ADD13R,0.04562X0.04562*%
D10*
X0056500Y0018500D02*
X0056500Y0024500D01*
X0066500Y0024500D02*
X0066500Y0018500D01*
X0076500Y0018500D02*
X0076500Y0024500D01*
X0086500Y0024500D02*
X0086500Y0018500D01*
X0096500Y0018500D02*
X0096500Y0024500D01*
X0106500Y0024500D02*
X0106500Y0018500D01*
X0116500Y0018500D02*
X0116500Y0024500D01*
X0126500Y0024500D02*
X0126500Y0018500D01*
X0146500Y0018500D02*
X0146500Y0024500D01*
X0156500Y0024500D02*
X0156500Y0018500D01*
X0166500Y0018500D02*
X0166500Y0024500D01*
X0176500Y0024500D02*
X0176500Y0018500D01*
X0186500Y0018500D02*
X0186500Y0024500D01*
X0196500Y0024500D02*
X0196500Y0018500D01*
X0206500Y0018500D02*
X0206500Y0024500D01*
X0216500Y0024500D02*
X0216500Y0018500D01*
X0216500Y0208500D02*
X0216500Y0214500D01*
X0226500Y0214500D02*
X0226500Y0208500D01*
X0236500Y0208500D02*
X0236500Y0214500D01*
X0246500Y0214500D02*
X0246500Y0208500D01*
X0256500Y0208500D02*
X0256500Y0214500D01*
X0266500Y0214500D02*
X0266500Y0208500D01*
X0276500Y0208500D02*
X0276500Y0214500D01*
X0286500Y0214500D02*
X0286500Y0208500D01*
X0196500Y0208500D02*
X0196500Y0214500D01*
X0186500Y0214500D02*
X0186500Y0208500D01*
X0176500Y0208500D02*
X0176500Y0214500D01*
X0166500Y0214500D02*
X0166500Y0208500D01*
X0156500Y0208500D02*
X0156500Y0214500D01*
X0146500Y0214500D02*
X0146500Y0208500D01*
X0136500Y0208500D02*
X0136500Y0214500D01*
X0126500Y0214500D02*
X0126500Y0208500D01*
D11*
X0147100Y0190500D02*
X0151900Y0190500D01*
X0151900Y0180500D02*
X0147100Y0180500D01*
X0147100Y0170500D02*
X0151900Y0170500D01*
X0151900Y0160500D02*
X0147100Y0160500D01*
X0177100Y0160500D02*
X0181900Y0160500D01*
X0181900Y0170500D02*
X0177100Y0170500D01*
X0177100Y0180500D02*
X0181900Y0180500D01*
X0181900Y0190500D02*
X0177100Y0190500D01*
X0177100Y0136500D02*
X0181900Y0136500D01*
X0181900Y0126500D02*
X0177100Y0126500D01*
X0177100Y0116500D02*
X0181900Y0116500D01*
X0181900Y0106500D02*
X0177100Y0106500D01*
X0151900Y0106500D02*
X0147100Y0106500D01*
X0147100Y0116500D02*
X0151900Y0116500D01*
X0151900Y0126500D02*
X0147100Y0126500D01*
X0147100Y0136500D02*
X0151900Y0136500D01*
X0151900Y0083500D02*
X0147100Y0083500D01*
X0147100Y0073500D02*
X0151900Y0073500D01*
X0151900Y0063500D02*
X0147100Y0063500D01*
X0147100Y0053500D02*
X0151900Y0053500D01*
X0177100Y0053500D02*
X0181900Y0053500D01*
X0181900Y0063500D02*
X0177100Y0063500D01*
X0177100Y0073500D02*
X0181900Y0073500D01*
X0181900Y0083500D02*
X0177100Y0083500D01*
D12*
X0024413Y0036500D03*
X0038193Y0036500D03*
X0074500Y0061807D03*
X0074500Y0075587D03*
X0074500Y0114807D03*
X0074500Y0128587D03*
X0071500Y0167807D03*
X0071500Y0181587D03*
D13*
X0178000Y0149000D03*
X0206500Y0161500D03*
X0242000Y0156000D03*
X0256500Y0131500D03*
X0256200Y0075900D03*
X0178200Y0094900D03*
X0146500Y0038700D03*
M02*
