G75*
%MOIN*%
%OFA0B0*%
%FSLAX25Y25*%
%IPPOS*%
%LPD*%
%AMOC8*
5,1,8,0,0,1.08239X$1,22.5*
%
%ADD10C,0.00600*%
%ADD11C,0.02200*%
%ADD12C,0.00500*%
D10*
X0056256Y0016000D02*
X0058756Y0013500D01*
X0063756Y0013500D01*
X0066256Y0016000D01*
X0068756Y0013500D01*
X0073756Y0013500D01*
X0076256Y0016000D01*
X0078756Y0013500D01*
X0083756Y0013500D01*
X0086256Y0016000D01*
X0088756Y0013500D01*
X0093756Y0013500D01*
X0096256Y0016000D01*
X0098756Y0013500D01*
X0103756Y0013500D01*
X0106256Y0016000D01*
X0108756Y0013500D01*
X0113756Y0013500D01*
X0116256Y0016000D01*
X0118756Y0013500D01*
X0123756Y0013500D01*
X0126256Y0016000D01*
X0128756Y0013500D01*
X0133756Y0013500D01*
X0136256Y0016000D01*
X0136256Y0021000D01*
X0133756Y0023500D01*
X0128756Y0023500D01*
X0126256Y0021000D01*
X0123756Y0023500D01*
X0118756Y0023500D01*
X0116256Y0021000D01*
X0113756Y0023500D01*
X0108756Y0023500D01*
X0106256Y0021000D01*
X0103756Y0023500D01*
X0098756Y0023500D01*
X0096256Y0021000D01*
X0093756Y0023500D01*
X0088756Y0023500D01*
X0086256Y0021000D01*
X0083756Y0023500D01*
X0078756Y0023500D01*
X0076256Y0021000D01*
X0073756Y0023500D01*
X0068756Y0023500D01*
X0066256Y0021000D01*
X0063756Y0023500D01*
X0058756Y0023500D01*
X0056256Y0021000D01*
X0056256Y0016000D01*
X0081556Y0030935D02*
X0083691Y0028800D01*
X0085826Y0030935D01*
X0085826Y0035205D01*
X0088001Y0032003D02*
X0088001Y0029868D01*
X0089069Y0028800D01*
X0092272Y0028800D01*
X0094447Y0029868D02*
X0095514Y0028800D01*
X0098717Y0028800D01*
X0094447Y0029868D02*
X0094447Y0032003D01*
X0095514Y0033070D01*
X0098717Y0033070D01*
X0105050Y0032150D02*
X0107412Y0032126D01*
X0107462Y0036850D02*
X0105100Y0036874D01*
X0092272Y0033070D02*
X0089069Y0033070D01*
X0088001Y0032003D01*
X0081556Y0030935D02*
X0081556Y0035205D01*
X0043717Y0053800D02*
X0040514Y0053800D01*
X0039447Y0054868D01*
X0039447Y0057003D01*
X0040514Y0058070D01*
X0043717Y0058070D01*
X0043717Y0060205D02*
X0043717Y0053800D01*
X0037272Y0053800D02*
X0037272Y0057003D01*
X0036204Y0058070D01*
X0033001Y0058070D01*
X0033001Y0053800D01*
X0030826Y0054868D02*
X0030826Y0057003D01*
X0028691Y0057003D01*
X0026556Y0059138D02*
X0026556Y0054868D01*
X0027623Y0053800D01*
X0029759Y0053800D01*
X0030826Y0054868D01*
X0030826Y0059138D02*
X0029759Y0060205D01*
X0027623Y0060205D01*
X0026556Y0059138D01*
X0121556Y0034138D02*
X0121556Y0029868D01*
X0122623Y0028800D01*
X0124759Y0028800D01*
X0125826Y0029868D01*
X0125826Y0032003D01*
X0123691Y0032003D01*
X0121556Y0034138D02*
X0122623Y0035205D01*
X0124759Y0035205D01*
X0125826Y0034138D01*
X0128001Y0033070D02*
X0131204Y0033070D01*
X0132272Y0032003D01*
X0132272Y0028800D01*
X0134447Y0029868D02*
X0134447Y0032003D01*
X0135514Y0033070D01*
X0138717Y0033070D01*
X0138717Y0035205D02*
X0138717Y0028800D01*
X0135514Y0028800D01*
X0134447Y0029868D01*
X0128001Y0028800D02*
X0128001Y0033070D01*
X0146256Y0021000D02*
X0146256Y0016000D01*
X0148756Y0013500D01*
X0153756Y0013500D01*
X0156256Y0016000D01*
X0158756Y0013500D01*
X0163756Y0013500D01*
X0166256Y0016000D01*
X0168756Y0013500D01*
X0173756Y0013500D01*
X0176256Y0016000D01*
X0178756Y0013500D01*
X0183756Y0013500D01*
X0186256Y0016000D01*
X0188756Y0013500D01*
X0193756Y0013500D01*
X0196256Y0016000D01*
X0198756Y0013500D01*
X0203756Y0013500D01*
X0206256Y0016000D01*
X0208756Y0013500D01*
X0213756Y0013500D01*
X0216256Y0016000D01*
X0218756Y0013500D01*
X0223756Y0013500D01*
X0226256Y0016000D01*
X0226256Y0021000D01*
X0223756Y0023500D01*
X0218756Y0023500D01*
X0216256Y0021000D01*
X0213756Y0023500D01*
X0208756Y0023500D01*
X0206256Y0021000D01*
X0203756Y0023500D01*
X0198756Y0023500D01*
X0196256Y0021000D01*
X0193756Y0023500D01*
X0188756Y0023500D01*
X0186256Y0021000D01*
X0183756Y0023500D01*
X0178756Y0023500D01*
X0176256Y0021000D01*
X0173756Y0023500D01*
X0168756Y0023500D01*
X0166256Y0021000D01*
X0163756Y0023500D01*
X0158756Y0023500D01*
X0156256Y0021000D01*
X0153756Y0023500D01*
X0148756Y0023500D01*
X0146256Y0021000D01*
X0151556Y0056300D02*
X0154759Y0056300D01*
X0155826Y0057368D01*
X0155826Y0058435D01*
X0154759Y0059503D01*
X0151556Y0059503D01*
X0151556Y0062705D02*
X0151556Y0056300D01*
X0154759Y0059503D02*
X0155826Y0060570D01*
X0155826Y0061638D01*
X0154759Y0062705D01*
X0151556Y0062705D01*
X0151556Y0071300D02*
X0151556Y0075570D01*
X0153691Y0077705D01*
X0155826Y0075570D01*
X0155826Y0071300D01*
X0155826Y0074503D02*
X0151556Y0074503D01*
X0151556Y0108800D02*
X0154759Y0108800D01*
X0155826Y0109868D01*
X0155826Y0110935D01*
X0154759Y0112003D01*
X0151556Y0112003D01*
X0151556Y0115205D02*
X0154759Y0115205D01*
X0155826Y0114138D01*
X0155826Y0113070D01*
X0154759Y0112003D01*
X0151556Y0108800D02*
X0151556Y0115205D01*
X0151556Y0123800D02*
X0151556Y0128070D01*
X0153691Y0130205D01*
X0155826Y0128070D01*
X0155826Y0123800D01*
X0155826Y0127003D02*
X0151556Y0127003D01*
X0152259Y0161300D02*
X0149056Y0161300D01*
X0149056Y0167705D01*
X0152259Y0167705D01*
X0153326Y0166638D01*
X0153326Y0165570D01*
X0152259Y0164503D01*
X0149056Y0164503D01*
X0152259Y0164503D02*
X0153326Y0163435D01*
X0153326Y0162368D01*
X0152259Y0161300D01*
X0153326Y0176300D02*
X0153326Y0180570D01*
X0151191Y0182705D01*
X0149056Y0180570D01*
X0149056Y0176300D01*
X0149056Y0179503D02*
X0153326Y0179503D01*
X0134474Y0195868D02*
X0133406Y0194800D01*
X0131271Y0194800D01*
X0130204Y0195868D01*
X0134474Y0200138D01*
X0134474Y0195868D01*
X0130204Y0195868D02*
X0130204Y0200138D01*
X0131271Y0201205D01*
X0133406Y0201205D01*
X0134474Y0200138D01*
X0133756Y0203500D02*
X0128756Y0203500D01*
X0126256Y0206000D01*
X0126256Y0211000D01*
X0128756Y0213500D01*
X0133756Y0213500D01*
X0136256Y0211000D01*
X0138756Y0213500D01*
X0143756Y0213500D01*
X0146256Y0211000D01*
X0148756Y0213500D01*
X0153756Y0213500D01*
X0156256Y0211000D01*
X0158756Y0213500D01*
X0163756Y0213500D01*
X0166256Y0211000D01*
X0168756Y0213500D01*
X0173756Y0213500D01*
X0176256Y0211000D01*
X0178756Y0213500D01*
X0183756Y0213500D01*
X0186256Y0211000D01*
X0188756Y0213500D01*
X0193756Y0213500D01*
X0196256Y0211000D01*
X0198756Y0213500D01*
X0203756Y0213500D01*
X0206256Y0211000D01*
X0206256Y0206000D01*
X0203756Y0203500D01*
X0198756Y0203500D01*
X0196256Y0206000D01*
X0193756Y0203500D01*
X0188756Y0203500D01*
X0186256Y0206000D01*
X0183756Y0203500D01*
X0178756Y0203500D01*
X0176256Y0206000D01*
X0173756Y0203500D01*
X0168756Y0203500D01*
X0166256Y0206000D01*
X0163756Y0203500D01*
X0158756Y0203500D01*
X0156256Y0206000D01*
X0153756Y0203500D01*
X0148756Y0203500D01*
X0146256Y0206000D01*
X0143756Y0203500D01*
X0138756Y0203500D01*
X0136256Y0206000D01*
X0133756Y0203500D01*
X0128048Y0195868D02*
X0128048Y0194800D01*
X0126981Y0194800D01*
X0126981Y0195868D01*
X0128048Y0195868D01*
X0124806Y0194800D02*
X0120535Y0194800D01*
X0122671Y0194800D02*
X0122671Y0201205D01*
X0120535Y0199070D01*
X0118360Y0199070D02*
X0116225Y0194800D01*
X0114090Y0199070D01*
X0109773Y0205800D02*
X0106570Y0205800D01*
X0106570Y0203665D02*
X0106570Y0210070D01*
X0109773Y0210070D01*
X0110840Y0209003D01*
X0110840Y0206868D01*
X0109773Y0205800D01*
X0104395Y0205800D02*
X0104395Y0210070D01*
X0104395Y0205800D02*
X0101192Y0205800D01*
X0100125Y0206868D01*
X0100125Y0210070D01*
X0097949Y0209003D02*
X0096882Y0210070D01*
X0094747Y0210070D01*
X0093679Y0209003D01*
X0093679Y0206868D01*
X0094747Y0205800D01*
X0096882Y0205800D01*
X0097949Y0206868D01*
X0097949Y0209003D01*
X0091511Y0210070D02*
X0090443Y0210070D01*
X0088308Y0207935D01*
X0088308Y0205800D02*
X0088308Y0210070D01*
X0086133Y0209003D02*
X0086133Y0206868D01*
X0085065Y0205800D01*
X0082930Y0205800D01*
X0081862Y0206868D01*
X0081862Y0211138D01*
X0082930Y0212205D01*
X0085065Y0212205D01*
X0086133Y0211138D01*
X0086133Y0209003D02*
X0083998Y0209003D01*
X0078620Y0201205D02*
X0075417Y0201205D01*
X0075417Y0194800D01*
X0078620Y0194800D01*
X0079687Y0195868D01*
X0079687Y0200138D01*
X0078620Y0201205D01*
X0073242Y0200138D02*
X0073242Y0198003D01*
X0072174Y0196935D01*
X0068971Y0196935D01*
X0068971Y0194800D02*
X0068971Y0201205D01*
X0072174Y0201205D01*
X0073242Y0200138D01*
X0071107Y0196935D02*
X0073242Y0194800D01*
X0066796Y0195868D02*
X0065729Y0194800D01*
X0062526Y0194800D01*
X0062526Y0201205D01*
X0065729Y0201205D01*
X0066796Y0200138D01*
X0066796Y0199070D01*
X0065729Y0198003D01*
X0062526Y0198003D01*
X0065729Y0198003D02*
X0066796Y0196935D01*
X0066796Y0195868D01*
X0060351Y0201205D02*
X0056080Y0201205D01*
X0058216Y0201205D02*
X0058216Y0194800D01*
X0047460Y0194800D02*
X0044257Y0194800D01*
X0043189Y0195868D01*
X0044257Y0196935D01*
X0047460Y0196935D01*
X0047460Y0198003D02*
X0047460Y0194800D01*
X0047460Y0198003D02*
X0046392Y0199070D01*
X0044257Y0199070D01*
X0041021Y0199070D02*
X0039953Y0199070D01*
X0037818Y0196935D01*
X0037818Y0194800D02*
X0037818Y0199070D01*
X0035650Y0199070D02*
X0034582Y0199070D01*
X0032447Y0196935D01*
X0032447Y0194800D02*
X0032447Y0199070D01*
X0030272Y0198003D02*
X0030272Y0196935D01*
X0026001Y0196935D01*
X0026001Y0195868D02*
X0026001Y0198003D01*
X0027069Y0199070D01*
X0029204Y0199070D01*
X0030272Y0198003D01*
X0029204Y0194800D02*
X0027069Y0194800D01*
X0026001Y0195868D01*
X0021691Y0194800D02*
X0021691Y0201205D01*
X0019556Y0201205D02*
X0023826Y0201205D01*
X0023826Y0205800D02*
X0023826Y0210070D01*
X0021691Y0212205D01*
X0019556Y0210070D01*
X0019556Y0205800D01*
X0019556Y0209003D02*
X0023826Y0209003D01*
X0026001Y0209003D02*
X0027069Y0210070D01*
X0030272Y0210070D01*
X0029204Y0207935D02*
X0027069Y0207935D01*
X0026001Y0209003D01*
X0026001Y0205800D02*
X0029204Y0205800D01*
X0030272Y0206868D01*
X0029204Y0207935D01*
X0032447Y0206868D02*
X0033514Y0205800D01*
X0036717Y0205800D01*
X0038892Y0206868D02*
X0038892Y0209003D01*
X0039960Y0210070D01*
X0042095Y0210070D01*
X0043163Y0209003D01*
X0043163Y0207935D01*
X0038892Y0207935D01*
X0038892Y0206868D02*
X0039960Y0205800D01*
X0042095Y0205800D01*
X0045338Y0205800D02*
X0045338Y0210070D01*
X0048541Y0210070D01*
X0049608Y0209003D01*
X0049608Y0205800D01*
X0051783Y0206868D02*
X0051783Y0209003D01*
X0052851Y0210070D01*
X0056054Y0210070D01*
X0056054Y0212205D02*
X0056054Y0205800D01*
X0052851Y0205800D01*
X0051783Y0206868D01*
X0058229Y0206868D02*
X0058229Y0209003D01*
X0059296Y0210070D01*
X0061432Y0210070D01*
X0062499Y0209003D01*
X0062499Y0207935D01*
X0058229Y0207935D01*
X0058229Y0206868D02*
X0059296Y0205800D01*
X0061432Y0205800D01*
X0064674Y0205800D02*
X0064674Y0210070D01*
X0067877Y0210070D01*
X0068945Y0209003D01*
X0068945Y0205800D01*
X0071120Y0210070D02*
X0073255Y0210070D01*
X0072187Y0211138D02*
X0072187Y0206868D01*
X0073255Y0205800D01*
X0088308Y0199070D02*
X0090443Y0201205D01*
X0090443Y0194800D01*
X0088308Y0194800D02*
X0092578Y0194800D01*
X0094753Y0195868D02*
X0099024Y0200138D01*
X0099024Y0195868D01*
X0097956Y0194800D01*
X0095821Y0194800D01*
X0094753Y0195868D01*
X0094753Y0200138D01*
X0095821Y0201205D01*
X0097956Y0201205D01*
X0099024Y0200138D01*
X0101199Y0200138D02*
X0102266Y0201205D01*
X0104402Y0201205D01*
X0105469Y0200138D01*
X0101199Y0195868D01*
X0102266Y0194800D01*
X0104402Y0194800D01*
X0105469Y0195868D01*
X0105469Y0200138D01*
X0101199Y0200138D02*
X0101199Y0195868D01*
X0036717Y0210070D02*
X0033514Y0210070D01*
X0032447Y0209003D01*
X0032447Y0206868D01*
X0216256Y0206000D02*
X0218756Y0203500D01*
X0223756Y0203500D01*
X0226256Y0206000D01*
X0228756Y0203500D01*
X0233756Y0203500D01*
X0236256Y0206000D01*
X0238756Y0203500D01*
X0243756Y0203500D01*
X0246256Y0206000D01*
X0248756Y0203500D01*
X0253756Y0203500D01*
X0256256Y0206000D01*
X0258756Y0203500D01*
X0263756Y0203500D01*
X0266256Y0206000D01*
X0268756Y0203500D01*
X0273756Y0203500D01*
X0276256Y0206000D01*
X0278756Y0203500D01*
X0283756Y0203500D01*
X0286256Y0206000D01*
X0288756Y0203500D01*
X0293756Y0203500D01*
X0296256Y0206000D01*
X0296256Y0211000D01*
X0293756Y0213500D01*
X0288756Y0213500D01*
X0286256Y0211000D01*
X0283756Y0213500D01*
X0278756Y0213500D01*
X0276256Y0211000D01*
X0273756Y0213500D01*
X0268756Y0213500D01*
X0266256Y0211000D01*
X0263756Y0213500D01*
X0258756Y0213500D01*
X0256256Y0211000D01*
X0253756Y0213500D01*
X0248756Y0213500D01*
X0246256Y0211000D01*
X0243756Y0213500D01*
X0238756Y0213500D01*
X0236256Y0211000D01*
X0233756Y0213500D01*
X0228756Y0213500D01*
X0226256Y0211000D01*
X0223756Y0213500D01*
X0218756Y0213500D01*
X0216256Y0211000D01*
X0216256Y0206000D01*
X0232756Y0192500D02*
X0255756Y0192500D01*
X0255756Y0152500D01*
X0248256Y0152500D01*
X0248254Y0152626D01*
X0248248Y0152751D01*
X0248238Y0152876D01*
X0248224Y0153001D01*
X0248207Y0153126D01*
X0248185Y0153250D01*
X0248160Y0153373D01*
X0248130Y0153495D01*
X0248097Y0153616D01*
X0248060Y0153736D01*
X0248020Y0153855D01*
X0247975Y0153972D01*
X0247927Y0154089D01*
X0247875Y0154203D01*
X0247820Y0154316D01*
X0247761Y0154427D01*
X0247699Y0154536D01*
X0247633Y0154643D01*
X0247564Y0154748D01*
X0247492Y0154851D01*
X0247417Y0154952D01*
X0247338Y0155050D01*
X0247256Y0155145D01*
X0247172Y0155238D01*
X0247084Y0155328D01*
X0246994Y0155416D01*
X0246901Y0155500D01*
X0246806Y0155582D01*
X0246708Y0155661D01*
X0246607Y0155736D01*
X0246504Y0155808D01*
X0246399Y0155877D01*
X0246292Y0155943D01*
X0246183Y0156005D01*
X0246072Y0156064D01*
X0245959Y0156119D01*
X0245845Y0156171D01*
X0245728Y0156219D01*
X0245611Y0156264D01*
X0245492Y0156304D01*
X0245372Y0156341D01*
X0245251Y0156374D01*
X0245129Y0156404D01*
X0245006Y0156429D01*
X0244882Y0156451D01*
X0244757Y0156468D01*
X0244632Y0156482D01*
X0244507Y0156492D01*
X0244382Y0156498D01*
X0244256Y0156500D01*
X0244130Y0156498D01*
X0244005Y0156492D01*
X0243880Y0156482D01*
X0243755Y0156468D01*
X0243630Y0156451D01*
X0243506Y0156429D01*
X0243383Y0156404D01*
X0243261Y0156374D01*
X0243140Y0156341D01*
X0243020Y0156304D01*
X0242901Y0156264D01*
X0242784Y0156219D01*
X0242667Y0156171D01*
X0242553Y0156119D01*
X0242440Y0156064D01*
X0242329Y0156005D01*
X0242220Y0155943D01*
X0242113Y0155877D01*
X0242008Y0155808D01*
X0241905Y0155736D01*
X0241804Y0155661D01*
X0241706Y0155582D01*
X0241611Y0155500D01*
X0241518Y0155416D01*
X0241428Y0155328D01*
X0241340Y0155238D01*
X0241256Y0155145D01*
X0241174Y0155050D01*
X0241095Y0154952D01*
X0241020Y0154851D01*
X0240948Y0154748D01*
X0240879Y0154643D01*
X0240813Y0154536D01*
X0240751Y0154427D01*
X0240692Y0154316D01*
X0240637Y0154203D01*
X0240585Y0154089D01*
X0240537Y0153972D01*
X0240492Y0153855D01*
X0240452Y0153736D01*
X0240415Y0153616D01*
X0240382Y0153495D01*
X0240352Y0153373D01*
X0240327Y0153250D01*
X0240305Y0153126D01*
X0240288Y0153001D01*
X0240274Y0152876D01*
X0240264Y0152751D01*
X0240258Y0152626D01*
X0240256Y0152500D01*
X0232756Y0152500D01*
X0232756Y0192500D01*
X0232756Y0138500D02*
X0255756Y0138500D01*
X0255756Y0098500D01*
X0248256Y0098500D01*
X0248254Y0098626D01*
X0248248Y0098751D01*
X0248238Y0098876D01*
X0248224Y0099001D01*
X0248207Y0099126D01*
X0248185Y0099250D01*
X0248160Y0099373D01*
X0248130Y0099495D01*
X0248097Y0099616D01*
X0248060Y0099736D01*
X0248020Y0099855D01*
X0247975Y0099972D01*
X0247927Y0100089D01*
X0247875Y0100203D01*
X0247820Y0100316D01*
X0247761Y0100427D01*
X0247699Y0100536D01*
X0247633Y0100643D01*
X0247564Y0100748D01*
X0247492Y0100851D01*
X0247417Y0100952D01*
X0247338Y0101050D01*
X0247256Y0101145D01*
X0247172Y0101238D01*
X0247084Y0101328D01*
X0246994Y0101416D01*
X0246901Y0101500D01*
X0246806Y0101582D01*
X0246708Y0101661D01*
X0246607Y0101736D01*
X0246504Y0101808D01*
X0246399Y0101877D01*
X0246292Y0101943D01*
X0246183Y0102005D01*
X0246072Y0102064D01*
X0245959Y0102119D01*
X0245845Y0102171D01*
X0245728Y0102219D01*
X0245611Y0102264D01*
X0245492Y0102304D01*
X0245372Y0102341D01*
X0245251Y0102374D01*
X0245129Y0102404D01*
X0245006Y0102429D01*
X0244882Y0102451D01*
X0244757Y0102468D01*
X0244632Y0102482D01*
X0244507Y0102492D01*
X0244382Y0102498D01*
X0244256Y0102500D01*
X0244130Y0102498D01*
X0244005Y0102492D01*
X0243880Y0102482D01*
X0243755Y0102468D01*
X0243630Y0102451D01*
X0243506Y0102429D01*
X0243383Y0102404D01*
X0243261Y0102374D01*
X0243140Y0102341D01*
X0243020Y0102304D01*
X0242901Y0102264D01*
X0242784Y0102219D01*
X0242667Y0102171D01*
X0242553Y0102119D01*
X0242440Y0102064D01*
X0242329Y0102005D01*
X0242220Y0101943D01*
X0242113Y0101877D01*
X0242008Y0101808D01*
X0241905Y0101736D01*
X0241804Y0101661D01*
X0241706Y0101582D01*
X0241611Y0101500D01*
X0241518Y0101416D01*
X0241428Y0101328D01*
X0241340Y0101238D01*
X0241256Y0101145D01*
X0241174Y0101050D01*
X0241095Y0100952D01*
X0241020Y0100851D01*
X0240948Y0100748D01*
X0240879Y0100643D01*
X0240813Y0100536D01*
X0240751Y0100427D01*
X0240692Y0100316D01*
X0240637Y0100203D01*
X0240585Y0100089D01*
X0240537Y0099972D01*
X0240492Y0099855D01*
X0240452Y0099736D01*
X0240415Y0099616D01*
X0240382Y0099495D01*
X0240352Y0099373D01*
X0240327Y0099250D01*
X0240305Y0099126D01*
X0240288Y0099001D01*
X0240274Y0098876D01*
X0240264Y0098751D01*
X0240258Y0098626D01*
X0240256Y0098500D01*
X0232756Y0098500D01*
X0232756Y0138500D01*
X0232756Y0085500D02*
X0255756Y0085500D01*
X0255756Y0045500D01*
X0248256Y0045500D01*
X0248254Y0045626D01*
X0248248Y0045751D01*
X0248238Y0045876D01*
X0248224Y0046001D01*
X0248207Y0046126D01*
X0248185Y0046250D01*
X0248160Y0046373D01*
X0248130Y0046495D01*
X0248097Y0046616D01*
X0248060Y0046736D01*
X0248020Y0046855D01*
X0247975Y0046972D01*
X0247927Y0047089D01*
X0247875Y0047203D01*
X0247820Y0047316D01*
X0247761Y0047427D01*
X0247699Y0047536D01*
X0247633Y0047643D01*
X0247564Y0047748D01*
X0247492Y0047851D01*
X0247417Y0047952D01*
X0247338Y0048050D01*
X0247256Y0048145D01*
X0247172Y0048238D01*
X0247084Y0048328D01*
X0246994Y0048416D01*
X0246901Y0048500D01*
X0246806Y0048582D01*
X0246708Y0048661D01*
X0246607Y0048736D01*
X0246504Y0048808D01*
X0246399Y0048877D01*
X0246292Y0048943D01*
X0246183Y0049005D01*
X0246072Y0049064D01*
X0245959Y0049119D01*
X0245845Y0049171D01*
X0245728Y0049219D01*
X0245611Y0049264D01*
X0245492Y0049304D01*
X0245372Y0049341D01*
X0245251Y0049374D01*
X0245129Y0049404D01*
X0245006Y0049429D01*
X0244882Y0049451D01*
X0244757Y0049468D01*
X0244632Y0049482D01*
X0244507Y0049492D01*
X0244382Y0049498D01*
X0244256Y0049500D01*
X0244130Y0049498D01*
X0244005Y0049492D01*
X0243880Y0049482D01*
X0243755Y0049468D01*
X0243630Y0049451D01*
X0243506Y0049429D01*
X0243383Y0049404D01*
X0243261Y0049374D01*
X0243140Y0049341D01*
X0243020Y0049304D01*
X0242901Y0049264D01*
X0242784Y0049219D01*
X0242667Y0049171D01*
X0242553Y0049119D01*
X0242440Y0049064D01*
X0242329Y0049005D01*
X0242220Y0048943D01*
X0242113Y0048877D01*
X0242008Y0048808D01*
X0241905Y0048736D01*
X0241804Y0048661D01*
X0241706Y0048582D01*
X0241611Y0048500D01*
X0241518Y0048416D01*
X0241428Y0048328D01*
X0241340Y0048238D01*
X0241256Y0048145D01*
X0241174Y0048050D01*
X0241095Y0047952D01*
X0241020Y0047851D01*
X0240948Y0047748D01*
X0240879Y0047643D01*
X0240813Y0047536D01*
X0240751Y0047427D01*
X0240692Y0047316D01*
X0240637Y0047203D01*
X0240585Y0047089D01*
X0240537Y0046972D01*
X0240492Y0046855D01*
X0240452Y0046736D01*
X0240415Y0046616D01*
X0240382Y0046495D01*
X0240352Y0046373D01*
X0240327Y0046250D01*
X0240305Y0046126D01*
X0240288Y0046001D01*
X0240274Y0045876D01*
X0240264Y0045751D01*
X0240258Y0045626D01*
X0240256Y0045500D01*
X0232756Y0045500D01*
X0232756Y0085500D01*
D11*
X0106257Y0034620D02*
X0106255Y0034380D01*
D12*
X0049642Y0020114D02*
X0022083Y0020114D01*
X0022083Y0042161D01*
X0049642Y0042161D01*
X0049642Y0047673D01*
X0022083Y0047673D01*
X0022083Y0042161D01*
X0049642Y0042161D02*
X0049642Y0020114D01*
X0059506Y0010253D02*
X0061007Y0011754D01*
X0061007Y0007250D01*
X0059506Y0007250D02*
X0062508Y0007250D01*
X0129006Y0026001D02*
X0129006Y0026751D01*
X0129757Y0027502D01*
X0131258Y0027502D01*
X0132008Y0026751D01*
X0132008Y0026001D01*
X0131258Y0025250D01*
X0129757Y0025250D01*
X0129006Y0026001D01*
X0129757Y0027502D02*
X0129006Y0028253D01*
X0129006Y0029003D01*
X0129757Y0029754D01*
X0131258Y0029754D01*
X0132008Y0029003D01*
X0132008Y0028253D01*
X0131258Y0027502D01*
X0149506Y0010253D02*
X0151007Y0011754D01*
X0151007Y0007250D01*
X0149506Y0007250D02*
X0152508Y0007250D01*
X0160870Y0052114D02*
X0160870Y0079673D01*
X0182917Y0079673D01*
X0182917Y0052114D01*
X0188429Y0052114D01*
X0188429Y0079673D01*
X0182917Y0079673D01*
X0182917Y0105114D02*
X0160870Y0105114D01*
X0160870Y0132673D01*
X0182917Y0132673D01*
X0182917Y0105114D01*
X0188429Y0105114D01*
X0188429Y0132673D01*
X0182917Y0132673D01*
X0185429Y0158114D02*
X0179917Y0158114D01*
X0179917Y0185673D01*
X0157870Y0185673D01*
X0157870Y0158114D01*
X0179917Y0158114D01*
X0185429Y0158114D02*
X0185429Y0185673D01*
X0179917Y0185673D01*
X0199757Y0215250D02*
X0199006Y0216001D01*
X0199006Y0216751D01*
X0199757Y0217502D01*
X0201258Y0217502D01*
X0202008Y0216751D01*
X0202008Y0216001D01*
X0201258Y0215250D01*
X0199757Y0215250D01*
X0199757Y0217502D02*
X0199006Y0218253D01*
X0199006Y0219003D01*
X0199757Y0219754D01*
X0201258Y0219754D01*
X0202008Y0219003D01*
X0202008Y0218253D01*
X0201258Y0217502D01*
X0219506Y0200253D02*
X0221007Y0201754D01*
X0221007Y0197250D01*
X0219506Y0197250D02*
X0222508Y0197250D01*
X0289006Y0216001D02*
X0289757Y0215250D01*
X0291258Y0215250D01*
X0292008Y0216001D01*
X0292008Y0216751D01*
X0291258Y0217502D01*
X0289757Y0217502D01*
X0289006Y0218253D01*
X0289006Y0219003D01*
X0289757Y0219754D01*
X0291258Y0219754D01*
X0292008Y0219003D01*
X0292008Y0218253D01*
X0291258Y0217502D01*
X0289757Y0217502D02*
X0289006Y0216751D01*
X0289006Y0216001D01*
X0132508Y0197250D02*
X0129506Y0197250D01*
X0131007Y0197250D02*
X0131007Y0201754D01*
X0129506Y0200253D01*
X0160870Y0052114D02*
X0182917Y0052114D01*
X0219006Y0029003D02*
X0219006Y0028253D01*
X0219757Y0027502D01*
X0221258Y0027502D01*
X0222008Y0026751D01*
X0222008Y0026001D01*
X0221258Y0025250D01*
X0219757Y0025250D01*
X0219006Y0026001D01*
X0219006Y0026751D01*
X0219757Y0027502D01*
X0221258Y0027502D02*
X0222008Y0028253D01*
X0222008Y0029003D01*
X0221258Y0029754D01*
X0219757Y0029754D01*
X0219006Y0029003D01*
M02*
