G75*
%MOIN*%
%OFA0B0*%
%FSLAX25Y25*%
%IPPOS*%
%LPD*%
%AMOC8*
5,1,8,0,0,1.08239X$1,22.5*
%
%ADD10R,0.03750X0.05324*%
%ADD11C,0.06600*%
%ADD12C,0.05400*%
%ADD13C,0.09200*%
%ADD14R,0.05718X0.06506*%
%ADD15R,0.06506X0.05718*%
%ADD16R,0.06112X0.04537*%
%ADD17R,0.05324X0.05324*%
%ADD18R,0.06100X0.04600*%
%ADD19R,0.04562X0.04562*%
D10*
G36*
X0099804Y0034856D02*
X0096055Y0034895D01*
X0096110Y0040218D01*
X0099859Y0040179D01*
X0099804Y0034856D01*
G37*
G36*
X0106890Y0034782D02*
X0103141Y0034821D01*
X0103196Y0040144D01*
X0106945Y0040105D01*
X0106890Y0034782D01*
G37*
D11*
X0106500Y0024500D02*
X0106500Y0018500D01*
X0116500Y0018500D02*
X0116500Y0024500D01*
X0126500Y0024500D02*
X0126500Y0018500D01*
X0146500Y0018500D02*
X0146500Y0024500D01*
X0156500Y0024500D02*
X0156500Y0018500D01*
X0166500Y0018500D02*
X0166500Y0024500D01*
X0176500Y0024500D02*
X0176500Y0018500D01*
X0186500Y0018500D02*
X0186500Y0024500D01*
X0196500Y0024500D02*
X0196500Y0018500D01*
X0206500Y0018500D02*
X0206500Y0024500D01*
X0216500Y0024500D02*
X0216500Y0018500D01*
X0096500Y0018500D02*
X0096500Y0024500D01*
X0086500Y0024500D02*
X0086500Y0018500D01*
X0076500Y0018500D02*
X0076500Y0024500D01*
X0066500Y0024500D02*
X0066500Y0018500D01*
X0056500Y0018500D02*
X0056500Y0024500D01*
X0126500Y0208500D02*
X0126500Y0214500D01*
X0136500Y0214500D02*
X0136500Y0208500D01*
X0146500Y0208500D02*
X0146500Y0214500D01*
X0156500Y0214500D02*
X0156500Y0208500D01*
X0166500Y0208500D02*
X0166500Y0214500D01*
X0176500Y0214500D02*
X0176500Y0208500D01*
X0186500Y0208500D02*
X0186500Y0214500D01*
X0196500Y0214500D02*
X0196500Y0208500D01*
X0216500Y0208500D02*
X0216500Y0214500D01*
X0226500Y0214500D02*
X0226500Y0208500D01*
X0236500Y0208500D02*
X0236500Y0214500D01*
X0246500Y0214500D02*
X0246500Y0208500D01*
X0256500Y0208500D02*
X0256500Y0214500D01*
X0266500Y0214500D02*
X0266500Y0208500D01*
X0276500Y0208500D02*
X0276500Y0214500D01*
X0286500Y0214500D02*
X0286500Y0208500D01*
D12*
X0181900Y0190500D02*
X0177100Y0190500D01*
X0177100Y0180500D02*
X0181900Y0180500D01*
X0181900Y0170500D02*
X0177100Y0170500D01*
X0177100Y0160500D02*
X0181900Y0160500D01*
X0151900Y0160500D02*
X0147100Y0160500D01*
X0147100Y0170500D02*
X0151900Y0170500D01*
X0151900Y0180500D02*
X0147100Y0180500D01*
X0147100Y0190500D02*
X0151900Y0190500D01*
X0151900Y0136500D02*
X0147100Y0136500D01*
X0147100Y0126500D02*
X0151900Y0126500D01*
X0151900Y0116500D02*
X0147100Y0116500D01*
X0147100Y0106500D02*
X0151900Y0106500D01*
X0177100Y0106500D02*
X0181900Y0106500D01*
X0181900Y0116500D02*
X0177100Y0116500D01*
X0177100Y0126500D02*
X0181900Y0126500D01*
X0181900Y0136500D02*
X0177100Y0136500D01*
X0177100Y0083500D02*
X0181900Y0083500D01*
X0181900Y0073500D02*
X0177100Y0073500D01*
X0177100Y0063500D02*
X0181900Y0063500D01*
X0181900Y0053500D02*
X0177100Y0053500D01*
X0151900Y0053500D02*
X0147100Y0053500D01*
X0147100Y0063500D02*
X0151900Y0063500D01*
X0151900Y0073500D02*
X0147100Y0073500D01*
X0147100Y0083500D02*
X0151900Y0083500D01*
D13*
X0024413Y0036500D03*
X0038193Y0036500D03*
X0074500Y0061807D03*
X0074500Y0075587D03*
X0074500Y0114807D03*
X0074500Y0128587D03*
X0071500Y0167807D03*
X0071500Y0181587D03*
D14*
X0160760Y0148500D03*
X0168240Y0148500D03*
X0168040Y0094900D03*
X0160560Y0094900D03*
D15*
X0136500Y0046240D03*
X0136500Y0038760D03*
D16*
X0242169Y0082760D03*
X0242169Y0090240D03*
X0250831Y0086500D03*
X0242169Y0137760D03*
X0242169Y0145240D03*
X0250831Y0141500D03*
D17*
X0241500Y0120634D03*
X0241500Y0112366D03*
X0241500Y0065634D03*
X0241500Y0057366D03*
D18*
X0256000Y0057800D03*
X0256000Y0065200D03*
X0256500Y0112800D03*
X0256500Y0120200D03*
X0127000Y0172800D03*
X0127000Y0180200D03*
X0124000Y0071700D03*
X0124000Y0064300D03*
D19*
X0146500Y0038700D03*
X0178200Y0094900D03*
X0178000Y0149000D03*
X0206500Y0161500D03*
X0242000Y0156000D03*
X0256500Y0131500D03*
X0256200Y0075900D03*
M02*
