G75*
%MOIN*%
%OFA0B0*%
%FSLAX25Y25*%
%IPPOS*%
%LPD*%
%AMOC8*
5,1,8,0,0,1.08239X$1,22.5*
%
%ADD10C,0.00000*%
%ADD11R,0.03150X0.04724*%
%ADD12C,0.06400*%
%ADD13C,0.05600*%
%ADD14C,0.08600*%
%ADD15R,0.05118X0.05906*%
%ADD16R,0.05906X0.05118*%
%ADD17C,0.02400*%
%ADD18C,0.01200*%
%ADD19R,0.04362X0.04362*%
%ADD20C,0.01000*%
D10*
X0011256Y0008500D02*
X0011256Y0218461D01*
X0304957Y0218461D01*
X0304957Y0008500D01*
X0011256Y0008500D01*
D11*
G36*
X0104263Y0032159D02*
X0101114Y0032192D01*
X0101163Y0036915D01*
X0104312Y0036882D01*
X0104263Y0032159D01*
G37*
G36*
X0111349Y0032085D02*
X0108200Y0032118D01*
X0108249Y0036841D01*
X0111398Y0036808D01*
X0111349Y0032085D01*
G37*
D12*
X0111256Y0021700D02*
X0111256Y0015300D01*
X0121256Y0015300D02*
X0121256Y0021700D01*
X0131256Y0021700D02*
X0131256Y0015300D01*
X0151256Y0015300D02*
X0151256Y0021700D01*
X0161256Y0021700D02*
X0161256Y0015300D01*
X0171256Y0015300D02*
X0171256Y0021700D01*
X0181256Y0021700D02*
X0181256Y0015300D01*
X0191256Y0015300D02*
X0191256Y0021700D01*
X0201256Y0021700D02*
X0201256Y0015300D01*
X0211256Y0015300D02*
X0211256Y0021700D01*
X0221256Y0021700D02*
X0221256Y0015300D01*
X0101256Y0015300D02*
X0101256Y0021700D01*
X0091256Y0021700D02*
X0091256Y0015300D01*
X0081256Y0015300D02*
X0081256Y0021700D01*
X0071256Y0021700D02*
X0071256Y0015300D01*
X0061256Y0015300D02*
X0061256Y0021700D01*
X0131256Y0205300D02*
X0131256Y0211700D01*
X0141256Y0211700D02*
X0141256Y0205300D01*
X0151256Y0205300D02*
X0151256Y0211700D01*
X0161256Y0211700D02*
X0161256Y0205300D01*
X0171256Y0205300D02*
X0171256Y0211700D01*
X0181256Y0211700D02*
X0181256Y0205300D01*
X0191256Y0205300D02*
X0191256Y0211700D01*
X0201256Y0211700D02*
X0201256Y0205300D01*
X0221256Y0205300D02*
X0221256Y0211700D01*
X0231256Y0211700D02*
X0231256Y0205300D01*
X0241256Y0205300D02*
X0241256Y0211700D01*
X0251256Y0211700D02*
X0251256Y0205300D01*
X0261256Y0205300D02*
X0261256Y0211700D01*
X0271256Y0211700D02*
X0271256Y0205300D01*
X0281256Y0205300D02*
X0281256Y0211700D01*
X0291256Y0211700D02*
X0291256Y0205300D01*
D13*
X0262056Y0187500D02*
X0256456Y0187500D01*
X0256456Y0177500D02*
X0262056Y0177500D01*
X0262056Y0167500D02*
X0256456Y0167500D01*
X0256456Y0157500D02*
X0262056Y0157500D01*
X0262056Y0133500D02*
X0256456Y0133500D01*
X0256456Y0123500D02*
X0262056Y0123500D01*
X0262056Y0113500D02*
X0256456Y0113500D01*
X0256456Y0103500D02*
X0262056Y0103500D01*
X0262056Y0080500D02*
X0256456Y0080500D01*
X0256456Y0070500D02*
X0262056Y0070500D01*
X0262056Y0060500D02*
X0256456Y0060500D01*
X0256456Y0050500D02*
X0262056Y0050500D01*
X0232056Y0050500D02*
X0226456Y0050500D01*
X0226456Y0060500D02*
X0232056Y0060500D01*
X0232056Y0070500D02*
X0226456Y0070500D01*
X0226456Y0080500D02*
X0232056Y0080500D01*
X0232056Y0103500D02*
X0226456Y0103500D01*
X0226456Y0113500D02*
X0232056Y0113500D01*
X0232056Y0123500D02*
X0226456Y0123500D01*
X0226456Y0133500D02*
X0232056Y0133500D01*
X0232056Y0157500D02*
X0226456Y0157500D01*
X0226456Y0167500D02*
X0232056Y0167500D01*
X0232056Y0177500D02*
X0226456Y0177500D01*
X0226456Y0187500D02*
X0232056Y0187500D01*
D14*
X0171256Y0178587D03*
X0171256Y0164807D03*
X0174256Y0125587D03*
X0174256Y0111807D03*
X0174256Y0072587D03*
X0174256Y0058807D03*
X0042949Y0033500D03*
X0029169Y0033500D03*
D15*
X0240316Y0091900D03*
X0247796Y0091900D03*
X0247996Y0145500D03*
X0240516Y0145500D03*
D16*
X0216256Y0043240D03*
X0216256Y0035760D03*
D17*
X0222196Y0035760D01*
X0226256Y0035700D01*
X0222996Y0043240D02*
X0228256Y0048500D01*
X0228256Y0049500D01*
X0229256Y0050500D01*
X0236256Y0050500D01*
X0240256Y0054500D01*
X0240256Y0091240D01*
X0240316Y0091900D01*
X0240516Y0113500D01*
X0240516Y0144240D01*
X0239256Y0145500D01*
X0240516Y0145500D01*
X0239256Y0145500D02*
X0239256Y0154500D01*
X0236256Y0157500D01*
X0229256Y0157500D01*
X0229256Y0167500D02*
X0173949Y0167500D01*
X0171256Y0164807D01*
X0172343Y0177500D02*
X0171256Y0178587D01*
X0172343Y0177500D02*
X0229256Y0177500D01*
X0247996Y0146000D02*
X0247996Y0145500D01*
X0247996Y0146000D02*
X0257756Y0146000D01*
X0229256Y0123500D02*
X0176343Y0123500D01*
X0174256Y0125587D01*
X0175949Y0113500D02*
X0174256Y0111807D01*
X0175949Y0113500D02*
X0229256Y0113500D01*
X0229256Y0103500D02*
X0237256Y0103500D01*
X0240516Y0100240D01*
X0240316Y0091900D01*
X0247796Y0091900D02*
X0257956Y0091900D01*
X0229256Y0070500D02*
X0176343Y0070500D01*
X0174256Y0072587D01*
X0175949Y0060500D02*
X0174256Y0058807D01*
X0175949Y0060500D02*
X0229256Y0060500D01*
X0222996Y0043240D02*
X0216256Y0043240D01*
X0214059Y0043043D01*
X0214059Y0043500D01*
X0101256Y0043500D01*
X0101256Y0034537D01*
X0102713Y0034537D01*
X0101256Y0034537D02*
X0101256Y0018500D01*
X0111219Y0018537D02*
X0111256Y0018537D01*
X0111256Y0036000D01*
X0109799Y0036000D01*
X0109799Y0034463D01*
X0111219Y0018537D02*
X0111256Y0018500D01*
D18*
X0240516Y0113500D02*
X0259256Y0113500D01*
X0259256Y0123500D01*
X0259256Y0133500D02*
X0274256Y0148500D01*
X0274256Y0183500D01*
X0262256Y0195500D01*
X0262256Y0208500D01*
X0261256Y0208500D01*
D19*
X0257756Y0146000D03*
X0257956Y0091900D03*
X0226256Y0035700D03*
D20*
X0259256Y0050500D02*
X0283256Y0074500D01*
X0283256Y0182500D01*
X0271256Y0194500D01*
X0271256Y0208500D01*
X0251256Y0208500D02*
X0251256Y0195500D01*
X0259256Y0187500D01*
X0254256Y0182500D02*
X0265256Y0182500D01*
X0268256Y0179500D01*
X0268256Y0166500D01*
X0259256Y0157500D01*
X0259256Y0167500D02*
X0258256Y0168500D01*
X0258256Y0176500D01*
X0259256Y0177500D01*
X0258256Y0176500D02*
X0252256Y0176500D01*
X0228256Y0200500D01*
X0131256Y0200500D01*
X0131256Y0208500D01*
X0241256Y0208500D02*
X0241256Y0195500D01*
X0254256Y0182500D01*
M02*
